<svg id="Solid" enable-background="new 0 0 128 128" height="512" viewBox="0 0 128 128" width="512" xmlns="http://www.w3.org/2000/svg"><g><path d="m55.278 88.4c-2.363-.009-4.285 1.9-4.293 4.263-.007 1.806 1.122 3.422 2.82 4.037-.017.091-.026.183-.027.276v10.932c.001.129.02.258.055.382-1.472.798-2.019 2.638-1.221 4.11s2.638 2.019 4.11 1.221 2.019-2.638 1.221-4.11c-.28-.517-.704-.941-1.221-1.221.035-.124.054-.253.056-.382v-10.932c-.001-.093-.01-.185-.028-.276 2.221-.805 3.369-3.258 2.564-5.48-.615-1.697-2.23-2.826-4.036-2.82z"/><path d="m77.009 92.689c.008-2.368-1.904-4.294-4.272-4.302s-4.294 1.904-4.302 4.272c-.006 1.806 1.119 3.422 2.815 4.042-.018.091-.027.183-.028.276v10.932c.002.129.02.258.055.382-1.472.798-2.019 2.638-1.221 4.111.798 1.472 2.638 2.019 4.111 1.221s2.019-2.638 1.221-4.111c-.28-.516-.704-.941-1.221-1.221.035-.124.053-.253.055-.382v-10.933c-.001-.093-.01-.185-.028-.276 1.688-.613 2.812-2.215 2.815-4.011z"/><path d="m104.682 99.267c-6.136 0-12.74 1.652-12.74 5.28 0 2.822 4 4.443 8.661 5.027.889 2.253 3.436 3.358 5.688 2.47 1.13-.446 2.024-1.34 2.47-2.47 4.663-.584 8.661-2.2 8.661-5.027 0-3.628-6.604-5.28-12.74-5.28zm4.156 7.306c-.745-2.295-3.211-3.552-5.506-2.806-1.328.431-2.37 1.471-2.804 2.798-3.619-.483-5.581-1.508-5.593-1.969-.019-.706 3.5-2.329 9.747-2.329 6.1 0 9.725 1.492 9.725 2.28 0 .587-2.015 1.565-5.569 2.026z"/><path d="m126.176 65.705c.004-2.127-1.717-3.854-3.844-3.858s-3.854 1.717-3.858 3.844c-.002 1.046.422 2.048 1.174 2.776-5.059 7.058-10.086 10.64-14.942 10.645h-.006c-4.86 0-9.9-3.583-14.982-10.645 1.527-1.48 1.565-3.917.085-5.444s-3.917-1.565-5.444-.085-1.565 3.917-.085 5.444c.712.734 1.686 1.155 2.709 1.17 2.236 19.692 13.865 21.318 17.565 21.318h.243c3.73 0 15.358-1.627 17.594-21.319 2.102-.032 3.79-1.744 3.791-3.846zm-21.413 22.164h-.19c-2.694 0-10.442-1.1-13.6-13.1 4.511 4.872 9.111 7.346 13.724 7.346h.01c4.6 0 9.189-2.473 13.677-7.329-3.159 11.985-10.904 13.083-13.621 13.083z"/><circle cx="15.237" cy="104.658" r="3.892"/><circle cx="33.845" cy="104.658" r="3.892"/><path d="m43.525 67.224c-.684-.043-1.348-.051-2-.038-4.201-9.38-15.211-13.579-24.591-9.378-4.172 1.868-7.51 5.206-9.378 9.378-.622-.01-1.254 0-1.905.036-1.473.116-2.605 1.351-2.592 2.828v11.669c-.008 1.545 1.226 2.81 2.771 2.841 3.9.045 10.967-.846 15.017-7.257.064-.1.113-.21.169-.315.46.993 1.454 1.629 2.548 1.63h1.953c1.133.002 2.157-.675 2.6-1.718.069.136.134.274.216.4 4.05 6.411 11.122 7.3 15.017 7.257 1.545-.031 2.779-1.296 2.771-2.841v-11.664c.013-1.479-1.122-2.714-2.596-2.828zm-15.537 5.289c-.487-.913-1.436-1.484-2.471-1.487h-1.953c-.999.003-1.921.536-2.421 1.4-.445-.967-1.193-1.762-2.131-2.266-2.583-1.357-5.375-2.269-8.26-2.7 4.06-7.615 13.524-10.497 21.139-6.437 2.742 1.462 4.985 3.707 6.444 6.45-2.853.436-5.614 1.344-8.17 2.685-.969.519-1.736 1.348-2.177 2.355z"/><path d="m111.727 20.259c-1.463-9.424-21.878-16.524-47.487-16.524-25.885 0-46.509 7.103-47.966 16.521-2.869 18.445 35.06 41.635 46.52 46.282-.192.254-.311.567-.311.91 0 .496.241.933.61 1.21-2.716.467-4.784 2.827-4.784 5.676 0 3.185 2.581 5.766 5.766 5.766 3.184 0 5.766-2.581 5.766-5.766 0-2.893-2.134-5.282-4.912-5.696.354-.277.586-.704.586-1.188v-.001c0-.342-.118-.655-.31-.908 11.455-4.644 49.388-27.837 46.522-46.282zm-47.727 43.535c-12.352-4.894-47.184-27.524-44.768-43.075 1.045-6.725 18.55-13.984 45.008-13.984 26.16 0 43.478 7.259 44.525 13.984 2.417 15.551-32.415 38.175-44.765 43.075z"/></g></svg>