<svg id="Capa_1" enable-background="new 0 0 511.993 511.993" height="512" viewBox="0 0 511.993 511.993" width="512" xmlns="http://www.w3.org/2000/svg"><g><g><path d="m403.145 225.959c2.479-9.855 3.739-20.208 3.669-30.471-.426-64.58-53.321-117.261-117.914-117.435-.107 0-.211 0-.318 0-32.515 0-62.942 13.065-85.179 36.237-22.237-23.164-52.673-36.237-85.179-36.237-22.611 0-44.831 6.84-64.258 19.778-18.861 12.562-33.817 29.958-43.25 50.306-2.323 5.011-.145 10.956 4.866 13.278 5.011 2.325 10.956.145 13.278-4.866 16.221-34.988 52.133-58.496 89.363-58.496 30.348 0 58.528 13.722 77.315 37.646 1.896 2.415 4.795 3.824 7.865 3.824s5.97-1.41 7.865-3.825c18.79-23.935 46.956-37.645 77.313-37.645h.264c53.666.145 97.614 43.912 97.968 97.568.062 9.031-1.098 18.129-3.381 26.715-5.421-.605-10.883-.918-16.338-.918-78.974 0-144.901 65.92-144.901 144.895v30.18.242c-.002 1.772.032 3.622.221 5.448l-4.826 4.853c-7.72 7.773-20.654 7.769-28.373-.003l-140.151-141.001c-9.057-9.057-16.211-19.713-21.265-31.673-2.15-5.087-8.016-7.466-13.104-5.319-5.087 2.15-7.469 8.017-5.319 13.104 6.062 14.347 14.657 27.142 25.524 38.009l140.128 140.977c11.741 11.821 30.152 15.148 45.271 8.089 4.196-1.959 8.033-4.662 11.313-7.929 6.865 7.751 16.881 12.65 28.025 12.65h214.914c20.646 0 37.441-16.796 37.441-37.441v-30.181c.001-67.457-46.334-124.294-108.847-140.359zm88.848 170.539c0 9.617-7.824 17.441-17.441 17.441h-214.914c-9.618 0-17.442-7.824-17.442-17.441v-30.181c0-69.813 59.916-127.41 129.612-124.801 66.128 2.438 120.186 58.651 120.186 124.801v30.181z"/><path d="m445.25 300.369c-18.543-22.621-46.691-37.081-78.155-37.081-31.455 0-59.596 14.452-78.139 37.062-.076.091-.15.183-.222.276-14.163 17.392-22.668 39.566-22.668 63.692v13.753c0 5.522 4.478 10 10 10h182.059c5.522 0 10-4.478 10-10v-13.753c0-24.139-8.514-46.323-22.69-63.72-.061-.077-.122-.153-.185-.229zm2.874 67.701h-56.938l14.692-14.736c3.899-3.911 3.89-10.243-.021-14.143-3.912-3.898-10.242-3.89-14.143.021l-28.771 28.857h-76.878v-3.753c0-15.413 4.328-29.832 11.829-42.112l2.343 2.343c3.852 3.852 10.289 3.854 14.142.001 3.906-3.905 3.906-10.236.001-14.142l-3.943-3.943c12.374-12.121 28.604-20.303 46.657-22.537v6.673c0 5.522 4.478 10 10 10s10-4.478 10-10v-6.673c18.053 2.233 34.282 10.416 46.656 22.536l-3.944 3.944c-3.905 3.905-3.905 10.236.001 14.142 3.851 3.853 10.291 3.852 14.142-.001l2.344-2.344c7.501 12.28 11.83 26.7 11.83 42.114v3.753z"/><path d="m11.952 205.355c5.322-1.097 8.926-6.4 7.85-11.76-1.07-5.329-6.425-8.921-11.76-7.85-5.326 1.069-8.931 6.42-7.85 11.76 1.08 5.337 6.406 8.929 11.76 7.85z"/></g></g></svg>