<?xml version="1.0" encoding="UTF-8"?>
<svg xmlns="http://www.w3.org/2000/svg" viewBox="0 0 96 96" width="512" height="512"><path d="M87.8428,61.708l-5.8506-9.16a1,1,0,0,0-.6943-.4512,1.0242,1.0242,0,0,0-.7959.2265l-8.2862,7.0332a1.0076,1.0076,0,0,0,.4991,1.752l3.9326.5918c-1.5043,8.3239-5.694,9.6726-13.1056,12.8378C59.1511,76.4522,52.4413,77.43,52,70.9989V30h8.1709A3.0062,3.0062,0,0,0,63,32h2a3.0033,3.0033,0,0,0,3-3V25a3.0033,3.0033,0,0,0-3-3H63a3.0062,3.0062,0,0,0-2.8291,2H52V21.0586A9.0151,9.0151,0,0,0,49.0448,4.0591C39.0237,3.0659,35.0618,16.4676,44,21.06V24H35.8291A3.0062,3.0062,0,0,0,33,22H31a3.0033,3.0033,0,0,0-3,3v4a3.0033,3.0033,0,0,0,3,3h2a3.0062,3.0062,0,0,0,2.8291-2H44V70.999c-.46,6.445-7.1265,5.4508-11.542,3.539C25.046,71.37,20.8587,70.0269,19.3525,61.7l3.9327-.5918a1.0076,1.0076,0,0,0,.4989-1.752L15.498,52.3232a1.0073,1.0073,0,0,0-1.49.2247l-5.8506,9.16a1.007,1.007,0,0,0,.9913,1.5273l3.8115-.5742c2.8454,21.7464,21.6152,16.5527,34.3332,29.0457a.999.999,0,0,0,1.4138,0C61.408,79.2291,80.2139,84.3858,83.04,62.6611l3.8116.5743A1.0067,1.0067,0,0,0,87.8428,61.708ZM48,17a4,4,0,0,1,0-8A4,4,0,0,1,48,17Z"/></svg>
