<svg id="Capa_1" enable-background="new 0 0 508.87 508.87" height="512" viewBox="0 0 508.87 508.87" width="512" xmlns="http://www.w3.org/2000/svg"><path d="m259.513 270.816 63.445 31.378c2.031-3.351 4.537-6.362 7.449-8.951-13.371-3.543-24.969-12.408-31.8-24.692l-52.731-20.565c-9.247-3.605-19.664.966-23.269 10.211-2.371 6.08-1.189 12.655 2.516 17.478 9.094-8.298 22.69-10.645 34.39-4.859z"/><path d="m480.971 464.811c-.05 0-.101 0-.151 0h-42.3c2.594-2.137 32.623-26.688 34.065-27.881 6.782-5.611 10.149-15.314 5.967-24.545-8.298-18.319-48.577-107.221-54.82-120.7-6.243-13.477-22.135-19.002-35.24-12.929l-68.962 36.025-65.27-32.28c-9.028-4.465-20.349-.869-24.643 8.241-4.165 8.834-.502 19.413 8.29 23.762l73.701 36.45c5.044 2.495 10.966 2.482 16-.034l48.152-24.073-33.44 27.999 22.904 49.45-53.94 41.582c-6.865 5.292-10.318 14.085-8.353 22.528 2.33 10.01 11.204 16.926 21.284 16.926h14.184c1.215-10.726 7.555-19.937 16.503-25.082 69.997-39.99 65.713-37.642 67.292-38.401l-58.925 48.555c-7.135 5.88-9.796 15.615-6.643 24.306 3.136 8.645 11.347 14.16 20.532 14.159h.149 103.81c12.063-.082 21.776-10.397 21.694-22.46-.082-12.012-9.845-21.598-21.84-21.598z"/><path d="m359.961 279.304c19.691-9.12 28.26-32.476 19.139-52.167-9.134-19.72-32.504-28.247-52.167-19.139-19.691 9.12-28.26 32.476-19.139 52.167 9.134 19.719 32.505 28.246 52.167 19.139z"/><path d="m47.419 103.274c20.525 11.899 46.81 4.906 58.708-15.619 3.232-5.575 5.059-11.575 5.611-17.596l-.533-.219-75.402-31.034c-1.464 1.782-2.809 3.699-4.003 5.759-11.899 20.526-4.906 46.81 15.619 58.709z"/><path d="m126.869 63.309 20.523 8.446c3.523-8.559-.56-18.354-9.12-21.876l-5.025-2.068-11.097-4.567 4.372-10.624c2.632-6.396-.419-13.716-6.815-16.348l-56.297-15.326c-1.559-.642-3.174-.946-4.762-.946-4.925 0-9.596 2.924-11.587 7.761l-7.99 19.414 49.872 20.525z"/><path d="m209.384 240.491c-2.935-3.857-6.75-6.799-11.096-8.64 1.069-10.813-6.428-20.73-17.3-22.485l-66.787-10.78-24.836-33.433 24.721 18.957 1.885.304v-33.187c0-16.027-12.992-29.019-29.019-29.019h-51.749c-16.027 0-29.144 12.992-29.144 29.019v332.701c-.039 13.737 10.68 24.904 24.417 24.942h.072c13.703 0 24.832-11.09 24.871-24.802l.52-183.884c0-.024-.002-.047-.002-.07h10.726l.014 183.886c.001 13.736 11.138 24.872 24.875 24.871s24.646-11.138 24.645-24.875c-.105-129.254 0-228.676 0-228.676s-20.162-3.218-26.375-4.221c-7.224-1.166-12.904-6.142-15.333-12.521l-18.4-48.704 29.858 40.193c3.22 4.335 8.004 7.242 13.335 8.102l62.297 10.055c-1.561 4.58-1.9 9.527-.946 14.305 1.53 7.664 6.351 14.523 13.441 18.501-.298 5.325-2.291 10.429-5.716 14.54-14.519-6.249-30.93.963-36.471 15.311-1.557 4.03.448 8.56 4.479 10.116 4.032 1.559 8.56-.449 10.116-4.479 2.351-6.085 9.177-9.108 15.264-6.758 2.941 1.136 5.264 3.35 6.54 6.232 2.641 5.965-.048 12.93-6.015 15.572-2.883 1.276-6.091 1.354-9.032.218-4.032-1.559-8.559.449-10.116 4.479s.448 8.56 4.479 10.116c6.731 2.601 14.194 2.509 21.003-.506 13.872-6.141 20.13-22.338 13.988-36.212-1.371-3.096-3.266-5.855-5.577-8.194 3.906-4.97 6.398-10.891 7.236-17.12 7.323.885 14.368-1.173 19.909-5.388 3.438-2.616 4.104-7.524 1.488-10.963-2.617-3.438-7.524-4.105-10.963-1.488-10.477 7.972-24.404-4.778-16.95-15.949 4.907-.006 9.52-1.765 13.143-4.754 2.4.703 4.511 2.134 6.054 4.162 2.644 3.475 7.584 4.06 10.963 1.489 3.499-2.663 4.042-7.606 1.488-10.963z"/></svg>