<?xml version="1.0" encoding="iso-8859-1"?>
<!-- Generator: Adobe Illustrator 19.0.0, SVG Export Plug-In . SVG Version: 6.00 Build 0)  -->
<svg version="1.1" id="Capa_1" xmlns="http://www.w3.org/2000/svg" xmlns:xlink="http://www.w3.org/1999/xlink" x="0px" y="0px"
	 viewBox="0 0 512 512" style="enable-background:new 0 0 512 512;" xml:space="preserve">
<g>
	<g>
		<polygon points="253.544,80.333 194.094,238.867 258.454,238.867 317.905,80.333 		"/>
	</g>
</g>
<g>
	<g>
		<polygon points="349.944,80.333 290.494,238.867 354.854,238.867 414.304,80.333 		"/>
	</g>
</g>
<g>
	<g>
		<path d="M162.054,238.867l59.451-158.534h-64.36L96.399,242.321v159.346H79.267c-8.284,0-15,6.716-15,15s6.716,15,15,15h64.267
			c8.284,0,15-6.716,15-15s-6.716-15-15-15H126.4v-162.8H162.054z"/>
	</g>
</g>
<g>
	<g>
		<path d="M15,80.333c-8.284,0-15,6.716-15,15v128.534c0,8.284,6.716,15,15,15h50.655l59.449-158.534H15z"/>
	</g>
</g>
<g>
	<g>
		<path d="M497,80.333h-50.656L385.6,242.319v159.348h-17.133c-8.284,0-15,6.716-15,15s6.716,15,15,15h64.267
			c8.284,0,15-6.716,15-15s-6.716-15-15-15H415.6v-162.8H497c8.284,0,15-6.716,15-15V95.333C512,87.049,505.284,80.333,497,80.333z"
			/>
	</g>
</g>
<g>
</g>
<g>
</g>
<g>
</g>
<g>
</g>
<g>
</g>
<g>
</g>
<g>
</g>
<g>
</g>
<g>
</g>
<g>
</g>
<g>
</g>
<g>
</g>
<g>
</g>
<g>
</g>
<g>
</g>
</svg>
