<svg id="bg" enable-background="new 0 0 512 512" height="512" viewBox="0 0 512 512" width="512" xmlns="http://www.w3.org/2000/svg"><path d="m468.975 204.954c-9.189-11.165-25.162-17.193-36.474-18.012-32.313-1.931-39.456 26.596-39.34 28.738 2.474-3.581 6.801-15.333 27.703-16.396 34.823.685 41.723 30.379 40.608 41.979-1.455 15.144-10.067 27.66-28.572 30.669-33.713 3.37-50.88-12.63-62.019-30.677s-24.025-42.81-50.866-47.502c-28.929-5.056-49.613 2.407-64.016 16.523-14.402-14.116-35.087-21.58-64.016-16.523-26.841 4.692-39.728 29.456-50.866 47.502s-28.306 34.046-62.019 30.677c-18.505-3.009-27.117-15.525-28.572-30.669-1.114-11.6 5.785-41.294 40.608-41.979 20.902 1.062 25.229 12.814 27.703 16.396.116-2.142-7.026-30.669-39.34-28.738-11.312.819-27.284 6.847-36.474 18.012-14.226 17.284-19.638 37.498-15.854 59.759 16.628 68.547 104.672 61.512 129.969 58.897 16.53-1.709 32.729-5.144 48.427-10.576 28.082-9.858 49.07-30.033 50.434-31.459 1.363 1.426 22.352 21.601 50.434 31.459 15.698 5.432 31.896 8.867 48.427 10.576 25.297 2.615 113.341 9.65 129.969-58.897 3.783-22.261-1.629-42.475-15.854-59.759z"/></svg>