<?xml version="1.0" encoding="UTF-8"?>
<svg xmlns="http://www.w3.org/2000/svg" id="Layer_1" data-name="Layer 1" viewBox="0 0 64 64" width="512" height="512"><path d="M38.78,11.25a9.35,9.35,0,0,1,3.1.53A9.47,9.47,0,0,1,48,18.65l.07.3.3-.07A7.45,7.45,0,0,0,54,13.2a7.76,7.76,0,0,0,.17-1.63A7.51,7.51,0,0,0,49,4.46l-.54-.18.15.55a8.22,8.22,0,0,1-.2,4.88.71.71,0,0,1-.67.48,1,1,0,0,1-.24,0,.72.72,0,0,1-.44-.91A6.94,6.94,0,0,0,34,4.48l0,0,0,8,.44-.22A9.65,9.65,0,0,1,38.78,11.25Z"/><path d="M60.18,38.36l-.27.24A8.9,8.9,0,0,1,54,40.86H50.32l0,.27a8.93,8.93,0,0,1-8.89,8,.72.72,0,1,1,0-1.43,7.52,7.52,0,1,0,0-15,.73.73,0,0,1-.72-.72.72.72,0,0,1,.72-.72,8.94,8.94,0,0,1,8.89,8l0,.27H54a7.52,7.52,0,0,0,5.34-12.8l-.24-.24-.22.27a9,9,0,0,1-7,3.39.72.72,0,0,1,0-1.43,7.52,7.52,0,0,0,3.59-14.12l-.31-.17-.12.34a8.86,8.86,0,0,1-6.54,5.66l-.25.06v.25a10.12,10.12,0,0,1-.55,3.64.71.71,0,0,1-.69.48.66.66,0,0,1-.23,0,.73.73,0,0,1-.41-.36.75.75,0,0,1,0-.55,8.51,8.51,0,0,0,.43-3.94,8.14,8.14,0,0,0-5.37-6.74,8,8,0,0,0-2.61-.44,8.22,8.22,0,0,0-4.67,1.46l-.13.09v7.92l.44-.21a6.77,6.77,0,0,1,2.89-.69,6.19,6.19,0,0,1,4.31,1.83.71.71,0,0,1,.05,1,.73.73,0,0,1-1,0,4.92,4.92,0,0,0-3.38-1.45,5.54,5.54,0,0,0-3.18,1.12l-.12.09,0,13.69.12.1a5.56,5.56,0,0,0,3.2,1.14,4.94,4.94,0,0,0,3.38-1.45.7.7,0,0,1,.49-.2.76.76,0,0,1,.53.23.72.72,0,0,1-.05,1,6.19,6.19,0,0,1-4.32,1.83,6.62,6.62,0,0,1-2.91-.7L34,39.32l0,14.17.12.1a5.6,5.6,0,0,0,3.22,1.16,4.91,4.91,0,0,0,3.39-1.46.73.73,0,0,1,.49-.19.71.71,0,0,1,.48,1.24,6.19,6.19,0,0,1-4.32,1.83,6.67,6.67,0,0,1-2.94-.72l-.44-.22v2.23A7.48,7.48,0,0,0,41.36,64a7.26,7.26,0,0,0,.93-.06,7.52,7.52,0,0,0,6.54-8.37.73.73,0,0,1,.7-.8.71.71,0,0,1,.72.62,9,9,0,0,1-.42,4l-.15.46.48-.06a7.49,7.49,0,0,0,6.47-8.21l0-.35-.35.09a8.8,8.8,0,0,1-2.22.29h-.47a.72.72,0,0,1,.07-1.43H54A7.49,7.49,0,0,0,61.51,43a7.4,7.4,0,0,0-1.14-4.34Z"/><path d="M15.65,18.88l.3.06.07-.29a9.47,9.47,0,0,1,6.1-6.87,9.35,9.35,0,0,1,3.1-.53,9.64,9.64,0,0,1,4.34,1.05l.44.22v-8l0,0a6.94,6.94,0,0,0-13,4.76.71.71,0,0,1-.43.91,1,1,0,0,1-.24,0,.71.71,0,0,1-.68-.48,8.37,8.37,0,0,1-.2-4.88l.14-.55L15,4.46a7.5,7.5,0,0,0,.66,14.42Z"/><path d="M29.63,55.45a6.67,6.67,0,0,1-2.94.72,6.19,6.19,0,0,1-4.32-1.83.71.71,0,1,1,1-1.05,4.92,4.92,0,0,0,3.38,1.45A5.61,5.61,0,0,0,30,53.59l.12-.09,0-14.18-.44.22a6.59,6.59,0,0,1-2.92.7,6.19,6.19,0,0,1-4.32-1.83.73.73,0,0,1-.23-.5.69.69,0,0,1,.19-.51.76.76,0,0,1,.53-.23.67.67,0,0,1,.48.2,4.91,4.91,0,0,0,3.38,1.44,5.55,5.55,0,0,0,3.2-1.13l.12-.1,0-13.69-.12-.09a5.5,5.5,0,0,0-3.17-1.13,4.91,4.91,0,0,0-3.39,1.46.71.71,0,0,1-.49.19.68.68,0,0,1-.52-.23.71.71,0,0,1,0-1,6.23,6.23,0,0,1,4.32-1.83,6.77,6.77,0,0,1,2.89.69l.44.21V14.23l-.13-.09a8.22,8.22,0,0,0-4.66-1.47,7.86,7.86,0,0,0-2.63.45,8.14,8.14,0,0,0-5.36,6.73,8.62,8.62,0,0,0,.42,3.95.72.72,0,0,1-.44.91.66.66,0,0,1-.23,0,.72.72,0,0,1-.68-.47,9.79,9.79,0,0,1-.55-3.65v-.25l-.25-.06A8.84,8.84,0,0,1,9,14.66l-.12-.34-.31.17a7.52,7.52,0,0,0,3.59,14.12.72.72,0,1,1,0,1.43,9,9,0,0,1-7-3.39l-.21-.27-.25.24A7.51,7.51,0,0,0,10,39.42h3.68l0-.27a9,9,0,0,1,8.9-8,.72.72,0,0,1,.72.72.73.73,0,0,1-.72.72,7.53,7.53,0,0,0-7.52,7.21h0v.31a7.54,7.54,0,0,0,7.53,7.51.72.72,0,1,1,0,1.43,8.94,8.94,0,0,1-8.9-8l0-.27H10A8.92,8.92,0,0,1,4.08,38.6l-.27-.24-.19.31A7.37,7.37,0,0,0,2.49,43a7.58,7.58,0,0,0,4.65,6.6,7.67,7.67,0,0,0,2.84.55h.41a.72.72,0,0,1,.72.68.73.73,0,0,1-.19.52.71.71,0,0,1-.48.23H10a9,9,0,0,1-2.24-.3l-.35-.08,0,.35A7.45,7.45,0,0,0,8.9,57a7.53,7.53,0,0,0,4.93,2.81l.49.07-.16-.47a9,9,0,0,1-.42-4,.74.74,0,0,1,.79-.62h0a.73.73,0,0,1,.63.8,7.36,7.36,0,0,0,.9,4.57v0l.06.06a7.71,7.71,0,0,0,.57.87,7.52,7.52,0,0,0,13.38-3.7V55.23Z"/></svg>
