<svg clip-rule="evenodd" fill-rule="evenodd" height="512" image-rendering="optimizeQuality" shape-rendering="geometricPrecision" text-rendering="geometricPrecision" viewBox="0 0 43.3492 43.3492" width="512" xmlns="http://www.w3.org/2000/svg"><g id="Layer_x0020_1"><g id="_521226128"><g fill-rule="nonzero"><path id="_521227472" d="m43.3492 32.7863h-10.2461v-4.3253h5.123 5.1231z"/><path id="_521228072" d="m33.1031 37.8998h10.2461v-4.3253h-10.2461z"/><path id="_521227376" d="m43.3492 38.688h-10.2461v4.3252h10.2461z"/><path id="_521228024" d="m32.3149 37.8998h-10.2462v-4.3253h10.2462z"/><path id="_521227904" d="m32.3149 43.0132h-10.2462v-4.3252h10.2462z"/><path id="_521227016" d="m11.0343 32.7863v-4.7194c0-.2176-.1764-.3941-.3941-.3941h-5.1197c.0829-5.3465 1.8513-9.5375 4.5232-12.5121 3.1302-3.4847 7.5012-5.308 11.8512-5.3679h.2225c3.9189 0 7.8022 1.4323 10.7244 4.3712 2.9332 2.95 4.9053 7.4229 4.989 13.4979l.0001.0109h-5.1219c-.2177 0-.3941.1765-.3941.3941v4.7194h-10.6403zm19.5852-15.8145h-17.8898v3.5221h17.8898z"/><path id="_521226704" d="m10.2461 32.7863h-10.2461v-4.3253h5.1231 5.123z"/><path id="_521226992" d="m11.0343 37.8998v-4.3253h10.2462v4.3253z"/><path id="_521226632" d="m10.2461 38.688h-10.2461v4.3252h10.2461z"/><path id="_521225816" d="m11.0343 38.688v4.3252h10.2462v-4.3252z"/><path id="_521225888" d="m0 37.8998h10.2461v-4.3253h-10.2461z"/><path id="_521226464" d="m21.3234 12.33v-11.9941h1.5764v11.9941z"/></g><path id="_521226176" d="m30.5208.3359h-6.8328v4.175h6.8328z"/></g></g></svg>