<svg id="Capa_1" enable-background="new 0 0 512 512" height="512" viewBox="0 0 512 512" width="512" xmlns="http://www.w3.org/2000/svg"><g><path d="m76.304 428.763c-5.041-.449-23.534-.197-33.276-.264l14.453-21.68c4.6-6.899 2.739-16.201-4.16-20.801-6.943-4.6-16.23-2.725-20.801 4.16l-30 45c-6.395 9.592.884 23.273 12.437 23.311.009 0 .02.009.029.009.002 0 .005-.002.007-.002.004 0 .004.002.007.002h31.972l-14.453 21.68c-4.6 6.899-2.739 16.201 4.16 20.801 7.019 4.653 16.281 2.631 20.801-4.16l30-45c5.99-8.983.324-22.033-11.176-23.056z"/><path d="m497 38.5h-17v120h17c8.291 0 15-6.709 15-15v-90c0-8.291-6.709-15-15-15z"/><path d="m437 308.5h-379.578c-24.787 0-42-33.078-9.823-57.396 39.936 16.187 85.66 11.695 121.518-12.331l120.424-80.273h49.248l25.605 25.605c2.813 2.813 6.621 4.395 10.605 4.395h60c8.291 0 15-6.709 15-15v-150c0-8.291-6.709-15-15-15h-103.197c-53.408 0-104.663 16.421-148.228 47.505l-98.979 70.781c-32.717 23.311-52.798 60.643-54.468 101.22-16.969 12.276-30.127 31.458-30.127 53.072 0 31.67 25.752 57.422 57.422 57.422h379.578c24.814 0 45 20.186 45 45s-20.186 45-45 45h-302c-8.291 0-15 6.709-15 15s6.709 15 15 15h302c41.353 0 75-33.647 75-75s-33.647-75-75-75z"/></g></svg>