<svg id="Layer_1" enable-background="new 0 0 512 512" height="512" viewBox="0 0 512 512" width="512" xmlns="http://www.w3.org/2000/svg"><path d="m140.97 464h-1.71c-12.82 0-23.26 10.44-23.26 23.26v1.48c0 12.82 10.44 23.26 23.26 23.26h235.55c11.69 0 21.19-9.5 21.19-21.19 0-10.06-7.16-18.8-17.03-20.77l-21.74-4.35c-5.6-1.12-11.33-1.69-17.04-1.69h-7.02m54.76-398.91c.447-3.305-1.188-6.672-4.395-8.268-1.165-.58-2.469-.822-3.77-.822h-2.635c6.921-6.1 11.196-15.126 10.851-25.125-.599-17.341-15.303-30.875-32.654-30.875h-119.327c-4.42 0-8 3.58-8 8h-8c0-4.595-3.869-8.282-8.529-7.983-4.253.273-7.471 3.993-7.471 8.255v23.728c-4.02 0-7.42 2.98-7.93 6.97l-52.309 408.534c-.584 4.504 2.924 8.496 7.465 8.496h177.158c3.762 0 6.946-2.777 7.458-6.504zm-31.93-49.09c8.82 0 16 7.18 16 16s-7.18 16-16 16zm-99.77 344c-6.84 0-13.34-2.95-17.85-8.09-2.04-2.34-3.58-5.04-4.57-7.91h44.83c-3.24 9.38-12.17 16-22.41 16zm25.03-32h-47.86l5.34-40h47.86zm7.47-56h-47.86l5.33-40h47.86zm7.47-56h-47.86l5.33-40h47.86zm-40.4-56 .46-3.42c1.56-11.73 11.67-20.58 23.51-20.58 6.84 0 13.34 2.95 17.85 8.09 3.87 4.43 5.93 10.1 5.86 15.91zm-35.8-128v-8h16c4.42 0 8-3.58 8-8h96v21.58l-1.34-2.02c-1.49-2.22-3.99-3.56-6.66-3.56z"/></svg>