<svg id="Capa_1" enable-background="new 0 0 512 512" height="512" viewBox="0 0 512 512" width="512" xmlns="http://www.w3.org/2000/svg"><g><path d="m442.709 181.582c-6.233-3.116-180.804-90.403-169.872-84.937 1.732-6.013 4.697-11.613 9.838-15.405 11.47-8.452 18.325-22.002 18.325-36.24 0-24.814-20.186-45-45-45s-45 20.186-45 45c0 8.291 6.709 15 15 15s15-6.709 15-15c0-8.276 6.724-15 15-15s15 6.724 15 15c0 4.819-2.241 9.229-6.138 12.1-12.325 9.088-20.217 22.773-22.722 38.058-9.417 4.708-175.961 87.979-172.85 86.424-5.082 2.549-8.29 7.734-8.29 13.418v60c0 8.291 6.709 15 15 15h45v227c0 8.291 6.709 15 15 15h240c8.291 0 15-6.709 15-15v-227h45c8.291 0 15-6.709 15-15v-60c0-5.684-3.208-10.869-8.291-13.418zm-141.709-19.79c0 25.801-19.276 49.537-47.373 48.14-23.859-1.184-42.627-21.037-42.627-44.932v-20.728l45-22.5 45 22.5z"/></g></svg>