<svg id="Layer_1" enable-background="new 0 0 105 105" height="512" viewBox="0 0 105 105" width="512" xmlns="http://www.w3.org/2000/svg"><g><g><path d="m34.4199829 67.6846924h21.5200195v-9.8399658c0-1.1199951-.5800171-2.1400146-1.5-2.7900391-2.5800171-1.8399658-4.0499878-4.3800049-4.8599854-7.3399658-.4500122-1.6300049-.6199951-3.3300171-.6199951-5.0300293v-27.3900147c0-1.5899658-1.2800293-2.8799438-2.8699951-2.8799438h-5.4100342c-1.5899658 0-2.8699951 1.289978-2.8699951 2.8799438v11.4800415c0 3.1300049-2.2999878 5.9199829-5.4199829 6.2099609-3.5700073.3300171-6.5599976-2.4799805-6.5599976-5.9699707v-11.7200317c0-1.5899658-1.2900391-2.8799438-2.8699951-2.8799438h-5.3800049c-1.5900269 0-2.8699951 1.289978-2.8699951 2.8799438v29.3300171c14.1599732 1.0400391 20.2299805 9.1799927 19.709961 23.0599976z"/><path d="m60.210022 69.6846924h-26.8000489c-1.3399658 0-2.539978.8400269-3 2.1099854l-.9799805 2.6800537-1.3200073 3.6199951-2.1099853 5.7699585h41.6300049l-4.4000244-12.0700073c-.4799805-1.2699586-1.6699829-2.1099854-3.0199585-2.1099854zm-13.3900147 10.7200317c-1.7600098 0-3.1799927-1.4200439-3.1799927-3.1799927 0-1.75 1.4199829-3.1800537 3.1799927-3.1800537 1.75 0 3.1799927 1.4300537 3.1799927 3.1800537 0 1.7599488-1.4299927 3.1799927-3.1799927 3.1799927z"/><path d="m93.9609375 90.5852661h-10.4528809c2.5880127-1.1469727 4.9765015-2.7553711 7.0373535-4.8171387l7.4645996-7.4645996c1.3128052-1.3117676 1.3128052-3.4407349 0-4.7525024-1.3128662-1.3128052-3.4396362-1.3128052-4.7525024 0l-7.4656372 7.4646606c-3.1245117 3.1254883-7.2807007 4.8475342-11.7016602 4.8475342h-59.3848876c-1.8565674 0-3.3608398 1.5042725-3.3608398 3.3608398 0 .4857178.1074829.944458.2927246 1.3612061h-1.3129883c-.5527344 0-1 .4472656-1 1s.4472656 1 1 1h83.6367188c.5527344 0 1-.4472656 1-1s-.4472657-1-1.0000001-1z"/><path d="m6.1474609 90.5852661h-1.6142578c-.5527344 0-1 .4472656-1 1s.4472656 1 1 1h1.6142578c.5527344 0 1-.4472656 1-1s-.4472656-1-1-1z"/><path d="m100.4667969 90.5852661h-2.5791016c-.5527344 0-1 .4472656-1 1s.4472656 1 1 1h2.5791016c.5527344 0 1-.4472656 1-1s-.4472656-1-1-1z"/><path d="m88.427063 34.2932739c1.5379028 0 2.7846069-1.2467041 2.7846069-2.7846069v-11.5158691c0-1.5378418-1.2467041-2.7845459-2.7846069-2.7845459-1.5378418 0-2.7845459 1.2467041-2.7845459 2.7845459v11.5158691c0 1.5379028 1.2467041 2.7846069 2.7845459 2.7846069z"/><path d="m71.6599731 42.9946899c0 14.1799927 5.1400146 38.5800781 5.1400146 38.5800781s5.1500244-24.4000854 5.1500244-38.5800781l-.25-5.0499878c-.3597412-3.3204956-1.0583496-5.6416626-1.8164063-7.2799683h5.7564087v-9.6200562h-34.6799925v9.6200562h22.7519531c-1.0908203 2.3694459-2.052002 6.1947022-2.052002 12.3299561zm6.2619019 20.0065918c0 .6171875-.5009766 1.1181641-1.1181641 1.1181641s-1.1181641-.5009766-1.1181641-1.1181641v-6.4160156c0-.6171875.5009766-1.1181641 1.1181641-1.1181641s1.1181641.5009766 1.1181641 1.1181641z"/></g></g></svg>