<svg id="Layer_1" height="512" viewBox="0 0 512 512" width="512" xmlns="http://www.w3.org/2000/svg" data-name="Layer 1"><path d="m451.069 390.163a60.919 60.919 0 1 1 -60.891 60.916 61.007 61.007 0 0 1 60.891-60.916zm-390.138-390.163a60.919 60.919 0 1 1 -60.941 60.916 61 61 0 0 1 60.941-60.916zm195.094 0a60.919 60.919 0 1 1 -60.941 60.916 61 61 0 0 1 60.941-60.916zm195.044 121.837a60.919 60.919 0 1 1 60.941-60.921 61 61 0 0 1 -60.941 60.921zm-390.138 73.247a60.919 60.919 0 1 1 -60.941 60.916 60.993 60.993 0 0 1 60.941-60.916zm195.094 0a60.919 60.919 0 1 1 -60.941 60.916 60.993 60.993 0 0 1 60.941-60.916zm195.044 0a60.919 60.919 0 1 1 -60.891 60.916 61 61 0 0 1 60.891-60.916zm-390.138 195.079a60.919 60.919 0 1 1 -60.941 60.916 61 61 0 0 1 60.941-60.916zm195.094 0a60.919 60.919 0 1 1 -60.941 60.916 61 61 0 0 1 60.941-60.916z" fill-rule="evenodd"/></svg>