<?xml version="1.0" encoding="iso-8859-1"?>
<!-- Generator: Adobe Illustrator 19.0.0, SVG Export Plug-In . SVG Version: 6.00 Build 0)  -->
<svg version="1.1" id="Layer_1" xmlns="http://www.w3.org/2000/svg" xmlns:xlink="http://www.w3.org/1999/xlink" x="0px" y="0px"
	 viewBox="0 0 511.999 511.999" style="enable-background:new 0 0 511.999 511.999;" xml:space="preserve">
<g>
	<g>
		<g>
			<path d="M146.875,414.992c0.799,45.687,23.598,69.006,42.793,80.542c22.64,13.609,48.567,16.465,66.331,16.465
				s43.689-2.856,66.33-16.465c19.195-11.537,41.994-34.855,42.793-80.542c-25.282-11.766-65.97-18.913-109.124-18.913
				C212.845,396.08,172.158,403.225,146.875,414.992z M220.203,450.789c-9.694,0-17.583-8.022-17.583-17.916
				c0-9.896,7.889-17.911,17.583-17.911c9.707,0,17.594,8.014,17.594,17.911C237.797,442.769,229.909,450.789,220.203,450.789z
				 M291.663,414.825c9.776,0,17.716,8.081,17.716,18.05c0,9.969-7.94,18.05-17.716,18.05c-9.788,0-17.728-8.081-17.728-18.05
				C273.935,422.906,281.875,414.825,291.663,414.825z"/>
			<path d="M464.858,13.184l-2.705-10.818L451.124,0.72c-1.805-0.269-44.627-6.274-80.699,21.733
				c-21.2,16.459-35.351,40.7-42.228,72.235C307.873,86.756,283.756,82.757,256,82.757c-27.757,0-51.874,3.999-72.198,11.931
				c-6.877-31.536-21.028-55.776-42.228-72.235C105.5-5.553,62.679,0.45,60.875,0.721L49.845,2.367L47.14,13.185
				c-0.301,1.201-7.286,29.812-1.399,64.373c5.125,30.085,21.071,70.05,66.933,96.292c-6.025,21.865-7.504,47.359-4.381,76.311
				c4.17,38.662,13.243,61.659,23.75,88.286c4.068,10.312,8.276,20.974,12.544,33.455c0.594,1.738,1.064,4.33,1.427,7.426
				c29.238-10.585,68.365-16.641,109.986-16.641c41.621,0,80.748,6.055,109.987,16.642c0.363-3.097,0.833-5.689,1.427-7.426
				c4.269-12.481,8.476-23.144,12.544-33.457c10.506-26.628,19.579-49.623,23.749-88.284c3.122-28.952,1.644-54.447-4.381-76.313
				c45.862-26.243,61.808-66.207,66.933-96.292C472.144,42.996,465.158,14.385,464.858,13.184z M204.344,287.15
				c-11.23,0-20.369-9.292-20.369-20.754c0-11.464,9.14-20.748,20.369-20.748c11.244,0,20.382,9.284,20.382,20.748
				C224.725,277.858,215.588,287.15,204.344,287.15z M307.501,287.305c-11.339,0-20.537-9.361-20.537-20.909
				c0-11.548,9.197-20.909,20.537-20.909c11.324,0,20.523,9.361,20.523,20.909C328.024,277.944,318.826,287.305,307.501,287.305z"/>
		</g>
	</g>
</g>
<g>
</g>
<g>
</g>
<g>
</g>
<g>
</g>
<g>
</g>
<g>
</g>
<g>
</g>
<g>
</g>
<g>
</g>
<g>
</g>
<g>
</g>
<g>
</g>
<g>
</g>
<g>
</g>
<g>
</g>
</svg>
