<svg id="Capa_1" enable-background="new 0 0 512 512" height="512" viewBox="0 0 512 512" width="512" xmlns="http://www.w3.org/2000/svg"><path d="m146.814 187.171h.018v-.372c.003-.096.013-.191.013-.287 0-.211-.007-.42-.013-.629v-14.652c0-1.743-1.413-3.157-3.157-3.157h-20.878c-1.743 0-3.157 1.413-3.157 3.157v14.653c-.007.209-.013.417-.013.628 0 .096.01.191.013.286v.372h.017c.488 6.594 8.128 12.875 11.728 15.485 1.106.802 2.595.802 3.7 0 3.601-2.609 11.241-8.89 11.729-15.484z"/><path d="m419.403 68.301c3.419 0 7.243-5.526 7.243-12.922 0-7.397-3.824-12.924-7.243-12.924s-7.243 5.527-7.243 12.924c.001 7.396 3.824 12.922 7.243 12.922z"/><path d="m166.876 309.415c.004 10.011 8.12 18.123 18.13 18.123h.007c10.013-.004 18.127-8.124 18.123-18.137l-.004-9.677-36.271-27.128z"/><path d="m138.823 223.062 24.616-60.564c2.774-6.826 6.74-12.891 11.6-17.999-7.169-3.735-15.304-5.86-23.93-5.86-16.905 0-63.155 0-81.791 0-15.362 0-29.391 8.423-36.613 21.982-4.683 8.793-26.789 50.296-30.574 57.403-4.676 8.779-1.405 19.686 7.33 24.444l57.695 31.427c8.827 4.808 19.823 1.51 24.594-7.249 4.79-8.793 1.544-19.804-7.249-24.594l-41.922-22.835c6.181-11.604 14.356-26.954 20.586-38.65v37.178l26.665 14.525c14.196 7.733 19.435 25.509 11.703 39.706-.421.772-.881 1.508-1.359 2.227h59.123v-7.263l-10.715-8.014c-11.172-8.357-15.076-23.221-9.759-35.864zm-7.437-20.406c-3.6-2.61-11.24-8.891-11.728-15.485h-.017v-.372c-.003-.096-.013-.191-.013-.286 0-.21.007-.419.013-.628v-14.653c0-1.743 1.413-3.157 3.157-3.157h20.878c1.743 0 3.157 1.413 3.157 3.157v14.652c.007.209.013.418.013.629 0 .096-.01.191-.013.287v.372h-.018c-.488 6.594-8.128 12.875-11.728 15.485-1.106.801-2.595.801-3.701-.001z"/><path d="m159.296 287.922h-62.787c8.158 5.617 11.287 16.471 6.922 25.72-4.692 9.943-16.382 14.455-26.543 10.202l-13.714 29.061v133.381c0 12.016 9.741 21.756 21.756 21.756 12.016 0 21.756-9.741 21.756-21.756v-173.9h9.393v173.901c0 12.016 9.741 21.756 21.756 21.756 12.016 0 21.46-9.741 21.46-21.756-.075-97.789.001-198.365.001-198.365z"/><path d="m111.558 128.622c21.039 0 38.094-17.056 38.094-38.094 0-.212-.013-.422-.016-.633h-76.157c-.003.212-.016.421-.016.633 0 21.039 17.056 38.094 38.095 38.094z"/><path d="m165.91 76.174h18.735c0-8.785-7.122-15.908-15.907-15.908h-2.828-13.72v-10.903c0-6.565-5.322-11.888-11.888-11.888l-54.951 6.885c-6.565 0-11.888 5.322-11.888 11.887v19.927h78.727z"/><path d="m80.915 313.131c4.538 2.143 10.006.229 12.175-4.368 2.156-4.569.2-10.02-4.368-12.175l-9.499-4.483 2.589-5.486c-6.588 1.379-13.198.458-19.061-2.475l-.072.154-9.499-4.483c-4.567-2.157-10.021-.2-12.175 4.368-2.156 4.569-.2 10.02 4.368 12.176l9.499 4.482-37.874 80.256c-2.156 4.568-.2 10.02 4.368 12.176 4.558 2.15 10.015.212 12.176-4.369l37.874-80.255z"/><path d="m456.625 92.96c0-.966-.049-1.921-.121-2.868-9.046 6.967-22.574 11.565-37.101 11.565s-28.055-4.601-37.099-11.575c-.073.951-.122 1.909-.122 2.879 0 20.557 16.664 37.221 37.221 37.221 20.558-.001 37.222-16.665 37.222-37.222z"/><path d="m488.665 146.539v-7.185c0-1.583-1.283-2.867-2.867-2.867h-31.659c-1.583 0-2.867 1.284-2.867 2.867v2.394h-5.644c-.948 5.182-6.794 34.668-18.496 43.572l1.926-9.149c.064-.302.066-.614.006-.916l-2.262-11.5c-.212-1.077-1.156-1.853-2.254-1.853h-8.676c-1.097 0-2.042.776-2.253 1.853l-2.262 11.5c-.06.303-.057.614.006.916l1.926 9.149c-11.702-8.904-17.548-38.39-18.496-43.572h-4.845v-2.394c0-1.583-1.283-2.867-2.867-2.867h-31.659c-1.583 0-2.867 1.284-2.867 2.867v6.663c-2.024.979-3.956 2.117-5.789 3.389 2.988 3.951 5.498 8.336 7.431 13.091l10.516 25.874v-3.597c0-3.593 3.949-6.517 7.542-6.517v28.671l6.555 16.127c4.709 11.188 2.25 24.363-6.555 33.099v230.258c0 11.946 9.805 21.63 21.751 21.63s21.63-9.684 21.63-21.63v-172.26h9.147v172.26c0 11.946 9.684 21.63 21.63 21.63s21.708-9.684 21.708-21.63c0-65.435 0-249.197 0-308.154 3.593 0 7.368 2.924 7.368 6.517v138.395c0 10.082 8.173 18.255 18.255 18.255s18.256-8.174 18.256-18.255v-138.394c0-16.631-9.491-31.077-23.335-38.237z"/><path d="m328.204 323.17c0 10.082 8.173 18.255 18.255 18.255s18.255-8.173 18.255-18.255v-60.998l-36.51 27.306z"/><path d="m382.824 63.66v7.005c.014 8.315 16.372 19.15 36.58 19.15s36.58-10.835 36.594-19.15v-7.01c4.778-1.529 8.895-3.736 11.841-6.89 2.979-3.19 4.763-7.345 4.763-12.795 0-9.387-6.087-19.674-16.284-27.517-10.479-8.058-23.588-12.496-36.915-12.496-13.321 0-26.428 4.438-36.907 12.497-10.2 7.844-16.289 18.131-16.289 27.517 0 5.457 1.789 9.617 4.776 12.808 2.948 3.15 7.064 5.354 11.841 6.881zm36.579-21.205c3.419 0 7.243 5.527 7.243 12.924 0 7.396-3.824 12.922-7.243 12.922s-7.243-5.526-7.243-12.922c.001-7.397 3.824-12.924 7.243-12.924z"/><path d="m413.247 140.966c-1.751 0-3.073 1.588-2.755 3.31l2.293 12.422c.245 1.329 1.404 2.293 2.755 2.293h9.341c1.351 0 2.509-.964 2.755-2.293l2.293-12.422c.318-1.722-1.004-3.31-2.755-3.31z"/><path d="m303.58 307.895c-13.38 10.007-32.292 7.231-42.259-6.095-.949-1.269-1.782-2.588-2.503-3.945-.721 1.357-1.554 2.676-2.503 3.945-9.979 13.341-28.896 16.09-42.259 6.095l-3.179-2.381v180.787c0 12.008 9.738 21.743 21.746 21.743s21.743-9.735 21.743-21.743v-173.793h9.387v173.793c0 12.008 9.735 21.743 21.743 21.743s21.546-9.735 21.546-21.743c-.033-40.411.487-189.09 0-180.849z"/><path d="m259.306 63.373c20.739 0 37.552 16.813 37.552 37.552s-16.813 37.552-37.552 37.552c-20.74 0-37.552-16.813-37.552-37.552s16.812-37.552 37.552-37.552zm-44.213 230.222 21.928-28.852 5.971 4.465c8.013 5.993 9.651 17.348 3.657 25.362-6.001 8.023-17.359 9.644-25.362 3.657zm66.384-29.497 21.928 28.852-7.055 5.277c-7.996 5.98-19.355 4.374-25.362-3.657-5.993-8.014-4.356-19.368 3.657-25.362z"/><path d="m246.648 294.57c5.993-8.014 4.356-19.368-3.657-25.362l-5.971-4.465-21.928 28.852 6.194 4.633c7.996 5.98 19.356 4.372 25.362-3.658z"/><path d="m367.759 227.925-24.744-60.881c-6.957-17.116-23.391-28.176-41.866-28.176h-9.902c-8.639 7.284-19.783 11.685-31.941 11.685s-23.302-4.402-31.941-11.685h-10.877c-18.476 0-34.91 11.06-41.865 28.176l-24.745 60.881c-3.103 7.633-.665 16.398 5.933 21.332l44.581 33.343 21.928-28.852-33.605-25.133 19.48-47.926c.586-1.443 1.526-2.65 2.679-3.582v53.006l39.348 29.429c3.696 2.764 6.574 6.214 8.597 10.04 2.024-3.825 4.902-7.276 8.597-10.04l39.431-29.491c0-11.051 0-41.732 0-52.878 1.115.924 2.024 2.109 2.597 3.517l19.479 47.925-32.743 24.489 21.928 28.852 43.719-32.698c6.596-4.936 9.034-13.7 5.932-21.333z"/><path d="m270.988 294.57c6.003 8.025 17.36 9.642 25.362 3.657l7.055-5.277-21.928-28.852-6.832 5.11c-8.013 5.994-9.651 17.349-3.657 25.362z"/><circle cx="259.306" cy="100.925" r="37.552"/></svg>