<svg id="Capa_1" enable-background="new 0 0 591.771 591.771" height="512" viewBox="0 0 591.771 591.771" width="512" xmlns="http://www.w3.org/2000/svg"><g><g id="Page-1_38_"><g id="_x30_39---Earrings" transform="translate(0 -1)"><path id="Path_267_" clip-rule="evenodd" d="m428.505 291.96c-19.72 23.015-71.411 87.417-71.411 129.488 0 39.439 31.972 71.411 71.411 71.411s71.411-31.972 71.411-71.411c0-42.071-51.691-106.473-71.411-129.488z" fill-rule="evenodd"/><path id="Path_266_" clip-rule="evenodd" d="m163.265 291.96c-19.72 23.015-71.411 87.417-71.411 129.488.643 38.828 32.581 69.817 71.411 69.289 38.83.528 70.768-30.46 71.411-69.289 0-42.071-51.691-106.473-71.411-129.488z" fill-rule="evenodd"/><path id="Shape_51_" d="m170.968 208.838c-1.921-2.259-4.737-3.561-7.702-3.561s-5.781 1.302-7.702 3.561c-38.205 44.499-135.12 165.398-135.12 245.99 1.463 77.478 65.34 139.164 142.821 137.925 48.531.155 93.897-24.069 120.766-64.484-12.29-22.532-18.737-47.785-18.75-73.451 1.183-27.253 7.772-54 19.383-78.684-30.748-66.658-86.785-135.957-113.696-167.296zm-119.919 271.697c-5.634 0-10.202-4.567-10.202-10.202 0-5.634 4.567-10.202 10.202-10.202s10.201 4.569 10.201 10.203-4.567 10.201-10.201 10.201zm20.403 40.807c-5.634 0-10.202-4.567-10.202-10.202s4.567-10.202 10.202-10.202 10.202 4.567 10.202 10.202-4.568 10.202-10.202 10.202zm40.806 30.604c-5.634 0-10.202-4.567-10.202-10.202 0-5.634 4.567-10.202 10.202-10.202 5.634 0 10.202 4.567 10.202 10.202-.001 5.635-4.568 10.202-10.202 10.202zm51.007 10.202c-5.634 0-10.202-4.567-10.202-10.202s4.567-10.202 10.202-10.202 10.202 4.567 10.202 10.202-4.567 10.202-10.202 10.202zm51.008-10.202c-5.634 0-10.202-4.567-10.202-10.202 0-5.634 4.567-10.202 10.202-10.202 5.634 0 10.202 4.567 10.202 10.202s-4.568 10.202-10.202 10.202zm-51.008-40.806c-50.096.522-91.164-39.598-91.814-89.692 0-59.659 80.868-148.126 84.316-151.86 1.976-2.013 4.678-3.146 7.498-3.146s5.522 1.134 7.498 3.146c3.448 3.734 84.316 92.201 84.316 151.86-.649 50.094-41.718 90.214-91.814 89.692zm91.814 10.202c-5.634 0-10.202-4.567-10.202-10.202s4.567-10.202 10.202-10.202 10.202 4.567 10.202 10.202-4.568 10.202-10.202 10.202z"/><path id="Shape_50_" d="m436.218 208.848c-1.923-2.263-4.743-3.568-7.712-3.568-2.97 0-5.79 1.304-7.712 3.568-38.195 44.509-135.109 165.397-135.109 245.969 1.458 77.482 65.336 139.174 142.821 137.935 77.485 1.24 141.364-60.453 142.821-137.935 0-80.571-96.915-201.459-135.109-245.969zm-119.93 271.687c-5.634 0-10.202-4.567-10.202-10.202 0-5.634 4.567-10.202 10.202-10.202 5.634 0 10.202 4.567 10.202 10.202s-4.568 10.202-10.202 10.202zm20.403 40.807c-5.634 0-10.202-4.567-10.202-10.202s4.567-10.202 10.202-10.202c5.634 0 10.202 4.567 10.202 10.202s-4.567 10.202-10.202 10.202zm40.807 30.604c-5.634 0-10.202-4.567-10.202-10.202 0-5.634 4.567-10.202 10.202-10.202 5.634 0 10.202 4.567 10.202 10.202-.001 5.635-4.568 10.202-10.202 10.202zm51.007 10.202c-5.634 0-10.202-4.567-10.202-10.202s4.567-10.202 10.202-10.202c5.634 0 10.202 4.567 10.202 10.202s-4.568 10.202-10.202 10.202zm51.008-10.202c-5.634 0-10.202-4.567-10.202-10.202 0-5.634 4.567-10.202 10.202-10.202 5.634 0 10.202 4.567 10.202 10.202-.001 5.635-4.568 10.202-10.202 10.202zm-51.008-40.806c-50.096.522-91.164-39.598-91.814-89.692 0-59.659 80.868-148.126 84.316-151.86 1.976-2.013 4.678-3.146 7.498-3.146s5.522 1.134 7.498 3.146c3.448 3.734 84.316 92.201 84.316 151.86-.65 50.094-41.718 90.214-91.814 89.692zm91.814 10.202c-5.634 0-10.202-4.567-10.202-10.202s4.567-10.202 10.202-10.202c5.634 0 10.202 4.567 10.202 10.202s-4.568 10.202-10.202 10.202zm20.403-40.807c-5.634 0-10.201-4.567-10.201-10.202 0-5.634 4.567-10.202 10.201-10.202s10.202 4.567 10.202 10.202-4.568 10.202-10.202 10.202z"/><path id="Shape_49_" d="m163.265 1.064c-31.683.184-57.989 24.515-60.64 56.087s19.23 59.949 50.439 65.413v13.956c-7.997 4.617-11.896 14.03-9.506 22.95s10.473 15.122 19.708 15.122 17.318-6.202 19.708-15.122-1.509-18.333-9.506-22.95v-13.956c31.209-5.464 53.089-33.841 50.439-65.413-2.652-31.573-28.959-55.904-60.642-56.087zm10.202 100.566v-8.753c0-5.634-4.567-10.202-10.202-10.202s-10.202 4.567-10.202 10.202v8.753c-19.896-5.137-32.869-24.267-30.279-44.652s19.932-35.664 40.481-35.664 37.892 15.28 40.481 35.664-10.383 39.515-30.279 44.652z"/><path id="Shape_48_" d="m489.714 62.273c.033-32.486-25.319-59.339-57.753-61.174s-60.652 21.989-64.282 54.272 18.592 61.778 50.624 67.192v13.956c-7.997 4.617-11.896 14.03-9.506 22.95s10.473 15.122 19.708 15.122 17.318-6.202 19.708-15.122-1.509-18.333-9.506-22.95v-13.956c29.414-4.997 50.952-30.455 51.007-60.29zm-102.015 0c-.079-21.225 16.126-38.967 37.271-40.806s40.17 12.84 43.754 33.761c3.585 20.92-9.467 41.096-30.018 46.402v-8.753c0-5.634-4.567-10.202-10.202-10.202-5.634 0-10.202 4.567-10.202 10.202v8.753c-17.96-4.637-30.533-20.807-30.603-39.357z"/></g></g></g></svg>