<svg id="Glyph" enable-background="new 0 0 32 32" height="512" viewBox="0 0 32 32" width="512" xmlns="http://www.w3.org/2000/svg"><path id="XMLID_370_" d="m27 10h-1c-.552 0-1 .448-1 1v3h-3v-2c0-1.105-.895-2-2-2h-4v-2h4c.552 0 1-.448 1-1v-1c0-.552-.448-1-1-1h-11c-.552 0-1 .448-1 1v1c0 .552.448 1 1 1h4v2h-4c-1.105 0-2 .895-2 2v4h-2v-3c0-.552-.448-1-1-1h-1c-.552 0-1 .448-1 1v9c0 .552.448 1 1 1h1c.552 0 1-.448 1-1v-3h2v2.592c0 .577.249 1.125.683 1.505l2.752 2.408c.364.319.832.495 1.316.495h8.249c1.105 0 2-.895 2-2v-3h3v3c0 .552.448 1 1 1h1c1.657 0 3-1.343 3-3v-9c0-1.657-1.343-3-3-3zm-9.168 8.555-2 3c-.307.46-.832.445-.832.445v-3h-2c-.369 0-.708-.203-.882-.528s-.155-.72.05-1.026l2-3c.306-.461.832-.446.832-.446v3h2c.369 0 .708.203.882.528s.155.72-.05 1.027z"/></svg>