<svg id="Layer_1" enable-background="new 0 0 100 100" height="512" viewBox="0 0 100 100" width="512" xmlns="http://www.w3.org/2000/svg"><path d="m94.01 60.28c-3.89-5.85-8.16-11.54-12.99-16.63-4.33-4.55-9.12-9.01-15.42-10.45-6.18-1.41-12.4-.29-18.34 1.59-5.91 1.87-11.67 4.25-17.32 6.81-5.17 2.34-10.31 4.85-15.17 7.79-4.85 2.95-11.63 7.69-8.17 14.21 1.44 2.72 4.51 4.23 7.53 3.74 1.78-.29 8.76-3.17 10.5-3.93 6.98-3.06 13.73-6.66 20.82-9.48 7.36-2.92 15.63-5.52 23.64-4.72 6.59.66 13.78 5.47 22.69 13.09 1.59 1.36 3.32-.37 2.23-2.02z"/></svg>