<svg id="Capa_1" enable-background="new 0 0 512 512" height="512" viewBox="0 0 512 512" width="512" xmlns="http://www.w3.org/2000/svg"><g id="Administrative_Fine_2_"><path d="m295 120c-8.291 0-15-6.709-15-15v-105h-255c-5.781 0-10.793 3.262-13.298 8.048-1.087 2.077-1.702 4.442-1.702 6.952v284.889 197.111c0 8.291 6.709 15 15 15h307.083c-6.387-4.018-12.878-7.33-19.343-9.463-46.641-14.59-74.736-49.453-74.736-93.135 0-12.803 4.497-25.312 9.712-39.814 2.007-5.596 6.606-18.442 7.148-22.617-.059-12.144-4.658-26.016-9.214-32.783-2.572-3.818-4.427-7.939-5.682-12.188-18.811 0-112.591 0-124.968 0-8.291 0-15-6.709-15-15s6.709-15 15-15h126.587c4.881-12.084 10.194-14.462 30.166-38.174 8.525-9.683 20.83-15.249 33.75-15.249 8.687 0 17.124 2.505 24.419 7.222-.088-.088-.029-.132.176-.132.9 0 16.902 2.859 29.678-.791 7.456-4.995 16.274-7.705 25.298-7.705 5.162 0 10.146 1.104 14.927 2.792v-99.963zm-120 302h-60c-8.291 0-15-6.709-15-15s6.709-15 15-15h60c8.291 0 15 6.709 15 15s-6.709 15-15 15zm-60-90h60c8.291 0 15 6.709 15 15s-6.709 15-15 15h-60c-8.291 0-15-6.709-15-15s6.709-15 15-15zm52.5-197h15c20.684 0 37.5 16.816 37.5 37.5 0 18.025-13.026 32.4-30 35.982v16.518c0 8.291-6.709 15-15 15s-15-6.709-15-15v-15h-15c-8.291 0-15-6.709-15-15s6.709-15 15-15h37.5c4.131 0 7.5-3.369 7.5-7.5s-3.369-7.5-7.5-7.5h-15c-20.684 0-37.5-16.816-37.5-37.5 0-18.025 13.028-32.402 30-35.984v-16.516c0-8.291 6.709-15 15-15s15 6.709 15 15v15h15c8.291 0 15 6.709 15 15s-6.709 15-15 15h-37.5c-4.131 0-7.5 3.369-7.5 7.5s3.369 7.5 7.5 7.5z"/><path d="m310 8.789v81.211h81.211z"/><path d="m494.116 379.974c-3.765-10.43-8.921-24.727-8.921-31.772 0-17.93 5.596-37.852 14.253-50.742 3.809-5.654 3.311-13.169-1.201-18.281l-22.5-25.503c-4.98-5.654-13.359-6.738-19.585-2.549-2.886 1.919-12.964 5.581-30.366 5.581-18.193 0-29.106-4.395-31.025-5.991-5.537-4.746-13.887-4.688-19.541 0-1.919 1.597-12.832 5.991-31.025 5.991-17.402 0-27.48-3.662-30.366-5.581-6.255-4.189-14.604-3.105-19.585 2.549l-22.5 25.503c-4.512 5.112-5.01 12.627-1.201 18.281 8.657 12.891 14.253 32.812 14.253 50.742 0 6.855-5.127 21.123-8.862 31.538-4.922 13.696-7.939 22.456-7.939 29.663 0 30.762 19.292 53.745 54.111 64.644 18.252 6.006 36.328 17.607 52.28 33.56 2.93 2.93 6.768 4.395 10.605 4.395s7.676-1.465 10.605-4.395c15.952-15.952 34.028-27.554 52.075-33.501 35.024-10.957 54.316-33.94 54.316-64.702 0-7.194-3.003-15.866-7.881-29.43zm-75.952 2.021-8.897 2.891 5.499 7.568c4.878 6.709 3.384 16.084-3.311 20.947-6.762 4.904-16.121 3.349-20.947-3.311l-5.508-7.58-5.508 7.581c-4.824 6.658-14.183 8.217-20.947 3.311-6.694-4.863-8.188-14.238-3.311-20.947l5.499-7.568-8.897-2.891c-7.881-2.563-12.202-11.03-9.639-18.896 2.578-7.881 11.06-12.173 18.896-9.639l8.906 2.895v-9.356c0-8.291 6.709-15 15-15s15 6.709 15 15v9.355l8.906-2.895c7.852-2.549 16.333 1.743 18.896 9.639 2.565 7.866-1.756 16.333-9.637 18.896z"/></g></svg>