<svg id="Layer_1" enable-background="new 0 0 64 64" height="512" viewBox="0 0 64 64" width="512" xmlns="http://www.w3.org/2000/svg"><g><path d="m41.4 17.3c-2.9 2.1-5.8 4.2-8.7 6.3-7.8 0-15.6 0-23.3 0-1.1 0-2.3 0-3.4 0s-2 .9-2 2v12.9c0 1.1.9 2 2 2h24 2.8c2.9 2.1 5.8 4.2 8.7 6.3 1.3.9 3-.3 3-1.7 0-7.6 0-15.1 0-22.7 0-1.1 0-2.2 0-3.3-.1-1.5-1.9-2.7-3.1-1.8zm-19.4 9c0-1 .8-1.9 1.8-2 1.1-.1 2.2.8 2.2 2v.4.9 1.9c0 1.1-1 2.1-2.1 2-1-.1-1.9-1-1.9-2 0-.1 0-.3 0-.4 0-.5 0-1 0-1.5s0-.9 0-1.3z"/><path d="m49.3 20c-1.1-.2-2.2.3-2.5 1.4-.3 1 .3 2.3 1.4 2.5 4.4.7 7.8 4.3 7.8 8.9s-3.4 8.2-7.8 8.9c-1.1.2-1.7 1.5-1.4 2.5.3 1.1 1.4 1.6 2.5 1.4 6.1-1 10.8-6.5 10.8-12.7 0-6.4-4.7-11.9-10.8-12.9z"/><path d="m50 33.5c-.3.6-.9 1.1-1.6 1.2-.1 0-.1 0-.2 0-.5.1-1 .5-1.2.9-.3.4-.4 1.1-.2 1.5.4 1.1 1.4 1.6 2.5 1.4 2.8-.5 4.9-3.1 4.9-5.9s-2.1-5.5-4.9-5.9c-.5-.1-1-.1-1.5.2-.4.2-.8.7-.9 1.2-.2 1 .3 2.3 1.4 2.5.4.1.8.2 1.1.4.4.3.7.8.8 1.3 0 .4 0 .8-.2 1.2z"/></g></svg>