<svg height="512" viewBox="0 0 56 60" width="512" xmlns="http://www.w3.org/2000/svg"><g id="Page-1" fill="none" fill-rule="evenodd"><g id="008---Girl-with-Pigtails" fill="rgb(0,0,0)" fill-rule="nonzero"><path id="Shape" d="m0 48c-.00014078.4714691.32904394.8789915.79.978 1.56621981.3048579 3.15839038.4565729 4.754.453 3.14 0 7.148-.62 9.833-3.266 1.923208 1.7196825 4.1767396 3.0293372 6.623 3.849v.986h-3c-4.4162219.0049599-7.9950401 3.5837781-8 8 0 .5522847.4477153 1 1 1h32c.5522847 0 1-.4477153 1-1 0-4.418278-3.581722-8-8-8h-3v-.986c2.4467284-.8200689 4.7003724-2.1308097 6.623-3.852 2.685 2.649 6.7 3.269 9.836 3.269 1.5956061.003497 3.1877693-.1482173 4.754-.453.4597635-.1002295.787446-.5074384.787-.978 0-7.856-2.673-12.084-5.3-14.341.8332652-.8401632 1.3005633-1.9756976 1.3-3.159.0060886-1.1915485-.4687393-2.3351735-1.317-3.172-.2092803-.2121899-.4390694-.4031225-.686-.57v-6.213c0-.265-.02-.543-.041-.773-.997-19.546-21.749-19.772-21.956-19.772s-20.965.226-21.96 19.741c-.021.264-.043.541-.043.8v6.217c-.2406431.1622267-.46442735.3481552-.668.555-.85573276.8389137-1.33518495 1.988661-1.329 3.187-.00056326 1.1833024.46673485 2.3188368 1.3 3.159-2.627 2.257-5.3 6.485-5.3 14.341zm2.011-.841c.19-7.1 2.774-10.639 5.111-12.4.44380917.1522699.90885401.2336021 1.378.241h.758c.58202922 3.6409627 2.2156913 7.0323757 4.7 9.757-3.387 3.307-9.716 2.731-11.947 2.402zm4.732-18.428c.46304881-.4707467 1.09669304-.7343744 1.757-.731h.5v4c0 .338.033.667.051 1h-.551c-1.38071187 0-2.5-1.1192881-2.5-2.5-.00232374-.6659956.26581481-1.3044036.743-1.769zm36.357-3.788c.024.035.048.078.072.112.5497015.8241724 1.1607671 1.6057213 1.828 2.338v4.607c0 9.3888407-7.6111593 17-17 17s-17-7.6111593-17-17v-4.6c.75224-.8276027 1.4330081-1.7174519 2.035-2.66 3.21-.533 9.355-2.064 10.7-6.081 5.8761776 3.5771335 12.5080658 5.729201 19.365 6.284zm-1.86 29.814c.8838072.8791827 1.4696304 2.0134063 1.675 3.243h-29.835c.4924042-2.8859387 2.9923563-4.9973847 5.92-5h3.142c.4545933 1.7606851 2.0395884 2.9931852 3.858 3h4c1.8184116-.0068148 3.4034067-1.2393149 3.858-3h3.142c1.5910559-.003039 3.1174358.6294727 4.24 1.757zm-9.24-2.757c0 1.1045695-.8954305 2-2 2h-4c-1.1045695 0-2-.8954305-2-2v-1.432c2.6355643.5759848 5.3644357.5759848 8 0zm21.992-4.841c-2.232.329-8.565.9-11.949-2.405 2.4808763-2.7250287 4.1122739-6.1150272 4.694-9.754h.763c.4689858-.0064314.9340264-.0867505 1.378-.238 2.337 1.758 4.922 5.301 5.111 12.397zm-6.492-14.159h-.554c.018-.333.051-.662.051-1v-4h.5c1.3782511.0070937 2.4942534 1.1217584 2.503 2.5 0 .6630412-.2633921 1.298926-.732233 1.767767-.468841.4688409-1.1047258.732233-1.767767.732233zm-39.5-12.455c0-.21.02-.429.039-.671.897-17.636 19.181-17.874 19.961-17.874s19.063.238 19.965 17.91c.018.208.036.427.036.635v5.5c-.1660413-.0242369-.3332973-.0392599-.501-.045h-1.067c-.223-.246-.566-.648-.946-1.145.3131214-.171169.5093198-.4981663.513-.855 0-.5522847-.4477153-1-1-1-11.528 0-21.329-6.751-21.427-6.819-.3054273-.2135425-.704261-.2395277-1.0348144-.0674214-.3305535.1721064-.5379787.5137471-.5381856.8864214 0 4.159-8 5.744-11.083 6-.2655717.0211216-.5117371.1473403-.68389.3506573-.172153.203317-.25606066.4669228-.23311.7323427.0309997.3258708.2217041.615112.509.772-.379.5-.722.9-.946 1.145h-1.063c-.16742719.007321-.33433688.0236782-.5.049z"/><path id="Shape" d="m20.878 27.385c-.9064496-.1894209-1.8410262-.2013069-2.752-.035-.02 0-.038.008-.058.011-1.4179891.2674384-2.7287248.9382573-3.775 1.932-.3789722.3923789-.3735524 1.0160848.0121814 1.4018186s1.0094397.3911536 1.4018186.0121814c.021-.021.129-.123.3-.257v.05c-.0030376 1.9329966 1.5615034 3.5024624 3.4945 3.5055s3.5024624-1.5615034 3.5055-3.4945c.125.09.249.168.376.27.4313344.3451779 1.060822.2753344 1.406-.156.3451779-.4313344.2753344-1.060822-.156-1.406-1.0295697-.8514014-2.2367978-1.4613369-3.533-1.785-.0717287-.0253121-.1462808-.0417673-.222-.049zm.122 3.115c.0068646.7140934-.490655 1.334017-1.1893011 1.4819029-.698646.1478859-1.4046833-.2172748-1.6877544-.8729022-.283071-.6556275-.0646798-1.4199156.5220555-1.8270007.5828871-.09042 1.1770499-.0789157 1.756.034.3743234.2788681.5960945.7172271.599 1.184z"/><path id="Shape" d="m32 31c.2268173-.0001205.4468557-.0773455.624-.219.127-.1.251-.18.376-.27.0030376 1.9329966 1.5725034 3.4975374 3.5055 3.4944999 1.9329966-.0030376 3.4975375-1.5725033 3.4945-3.5054999 0-.015 0-.029 0-.044.167.131.274.23.3.253.3929089.3784551 1.0166378.3721707 1.4018415-.0141242.3852036-.3862949.3897235-1.0100391.0101585-1.4018758-1.0461238-.9932088-2.3564777-1.6636628-3.774-1.931-.02 0-.04-.01-.06-.012-.9103032-.1662992-1.8442241-.1544129-2.75.035-.0773129.0074621-.1534931.0239063-.227.049-1.2920832.325012-2.495115.9348989-3.521 1.785-.3310707.2647337-.4592574.7094413-.3198927 1.1097776.1393648.4003364.5159964.6693071.9398927.6712224zm6-.5c.0070467.7045488-.477219 1.3190384-1.1638958 1.4768789s-1.3906551-.1835176-1.6919582-.8204282c-.301303-.6369106-.1187077-1.3976798.438854-1.8284507.5917114-.1144203 1.1988995-.1242355 1.794-.029.3878046.2776465.6193773.7240651.623 1.201z"/><path id="Shape" d="m26.7 35.71c.3511209-.3632656.8045884-.6109286 1.3-.71.49538.0985528.9489018.3458967 1.3.709.3929089.3784551 1.0166378.3721707 1.4018415-.0141242.3852036-.3862949.3897235-1.0100391.0101585-1.4018758-.7242908-.7358502-1.6842927-1.1935502-2.712-1.293-1.0259392.1005866-1.9839926.5582013-2.707 1.293-.3550623.3942928-.3403581.9972533.0335016 1.3737701s.9767009.3954908 1.3734984.0432299z"/><path id="Shape" d="m35 38h-14c-.5522847 0-1 .4477153-1 1 0 4.418278 3.581722 8 8 8s8-3.581722 8-8c0-.5522847-.4477153-1-1-1zm-7 7c-2.9266601-.003665-5.4251672-2.1149604-5.917-5h11.834c-.4918328 2.8850396-2.9903399 4.996335-5.917 5z"/><circle id="Oval" cx="39" cy="37" r="1"/><circle id="Oval" cx="41" cy="39" r="1"/><circle id="Oval" cx="39" cy="41" r="1"/><circle id="Oval" cx="17" cy="37" r="1"/><circle id="Oval" cx="15" cy="39" r="1"/><circle id="Oval" cx="17" cy="41" r="1"/></g></g></svg>