<svg id="Capa_1" enable-background="new 0 0 512.007 512.007" height="512" viewBox="0 0 512.007 512.007" width="512" xmlns="http://www.w3.org/2000/svg"><g><g id="Page-1_39_"><g id="_x30_40---Stocks" transform="translate(-1)"><path id="Shape_244_" d="m11.338 154.972c6.158 1.696 12.681-1.018 15.817-6.583l18.194-31.909c4.317-7.494 11.447-12.954 19.807-15.168s17.258-1 24.719 3.374l6.949 4.114 25.143 14.994c11.283 6.72 18.787 18.315 20.297 31.36l.091 1.097c.788 7.461 5.106 14.091 11.611 17.829 6.476 3.739 14.333 4.213 21.211 1.28 5.195-2.248 10.797-3.399 16.457-3.383 7.529-.019 14.923 2.003 21.394 5.851l61.074 36.297c12.752 7.595 21.212 20.723 22.857 35.474 2.588 15.005 15.969 25.718 31.177 24.96h.183c8.749-.466 17.019-4.145 23.223-10.331 5.786-5.913 10.738-12.588 14.72-19.84l4.389-6.857 107.156-164.388h-273.189c-15.83-.013-30.887-6.842-41.326-18.743l-10.789-12.251-25.873-29.623c-6.937-7.949-16.97-12.515-27.52-12.525h-70.675c-15.129.045-27.383 12.298-27.428 27.428v112.823c-.201 6.655 4.005 12.647 10.331 14.72zm318.812 110.171c-5.049 0-9.143-4.093-9.143-9.143 0-5.049 4.093-9.143 9.143-9.143 5.049 0 9.143 4.093 9.143 9.143s-4.094 9.143-9.143 9.143zm-111.269-142.08c2.131-7.927 9.347-13.414 17.554-13.349h140.16c6.721-.039 12.917 3.63 16.113 9.543s2.871 13.107-.844 18.708l-39.04 59.977c-3.393 5.183-9.166 8.31-15.36 8.32-3.295.004-6.525-.915-9.326-2.651l-100.937-59.886c-7.132-4.208-10.546-12.685-8.32-20.662zm-44.16 14.08c5.049 0 9.143 4.093 9.143 9.143s-4.093 9.143-9.143 9.143-9.143-4.093-9.143-9.143 4.094-9.143 9.143-9.143zm-54.857-91.428c15.148 0 27.429 12.28 27.429 27.429s-12.28 27.429-27.429 27.429-27.429-12.28-27.429-27.429c.056-15.126 12.304-27.374 27.429-27.429zm-45.714-27.429c5.049 0 9.143 4.093 9.143 9.143s-4.093 9.143-9.143 9.143c-5.049 0-9.143-4.093-9.143-9.143s4.093-9.143 9.143-9.143zm-45.715 54.857c5.049 0 9.143 4.093 9.143 9.143 0 5.049-4.093 9.143-9.143 9.143s-9.143-4.093-9.143-9.143c.001-5.049 4.094-9.143 9.143-9.143z"/><path id="Shape_243_" d="m204.618 54.858h299.246c2.382.041 4.671-.921 6.309-2.651 1.825-1.662 2.856-4.023 2.834-6.491 0-5.049-4.093-9.143-9.143-9.143h-331.886l5.12 5.76c6.937 7.948 16.97 12.515 27.52 12.525z"/><circle id="Oval_25_" cx="119.864" cy="73.143" r="9.143"/><path id="Rectangle-path_9_" d="m449.007 338.286h18.286v18.286h-18.286z"/><path id="Shape_242_" d="m439.864 448.001h-16.549c9.873 16.953 9.873 37.904 0 54.857h16.549c5.049 0 9.143-4.093 9.143-9.143v-36.571c0-5.05-4.093-9.143-9.143-9.143z"/><path id="Shape_241_" d="m503.864 374.858h-210.286c-44.491.496-88.156-12.025-125.623-36.023-5.029-3.383-10.331-7.131-16.091-11.611-15.409-12.897-29.276-27.531-41.326-43.611-17.097-21.303-29.44-36.754-53.577-36.754h-46.811c-5.049 0-9.143 4.093-9.143 9.143v100.571h155.429c5.049 0 9.143 4.093 9.143 9.143 0 5.049-4.093 9.143-9.143 9.143h-155.429v54.857c0 5.049 4.093 9.143 9.143 9.143h43.703c5.159-5.793 12.54-9.117 20.297-9.143h33.737c18.334-12.191 42.192-12.191 60.526 0h177.189c18.334-12.191 42.192-12.191 60.526 0h33.737c7.757.026 15.138 3.35 20.297 9.143h43.703c5.049 0 9.143-4.093 9.143-9.143v-45.714c-.001-5.051-4.094-9.144-9.144-9.144z"/><path id="Shape_240_" d="m485.578 310.858c0-5.049-4.093-9.143-9.143-9.143h-36.571c-5.049 0-9.143 4.093-9.143 9.143 0 5.049 4.093 9.143 9.143 9.143h36.571c5.05 0 9.143-4.094 9.143-9.143z"/><path id="Shape_239_" d="m375.864 438.858c-6.511.056-12.888 1.856-18.469 5.211l49.829 49.829c6.786-11.253 6.96-25.295.454-36.713-6.505-11.418-18.673-18.428-31.814-18.327z"/><path id="Shape_238_" d="m138.15 438.858c-13.14-.1-25.309 6.91-31.814 18.327s-6.332 25.46.454 36.713l49.829-49.829c-5.581-3.355-11.958-5.155-18.469-5.211z"/><path id="Shape_237_" d="m119.133 265.143c1.92 2.286 3.749 4.663 5.669 7.04 11.237 14.985 24.151 28.636 38.491 40.686 5.211 4.114 10.057 7.589 14.629 10.606 18.669 12.083 39.215 20.982 60.8 26.331v-66.377c-.03-10.086-8.199-18.256-18.286-18.286z"/><path id="Shape_236_" d="m74.15 448.001c-5.049 0-9.143 4.093-9.143 9.143v36.571c0 5.049 4.093 9.143 9.143 9.143h16.549c-9.873-16.953-9.873-37.904 0-54.857z"/><path id="Shape_235_" d="m185.601 448.001c9.873 16.953 9.873 37.904 0 54.857h142.811c-9.873-16.953-9.873-37.904 0-54.857z"/><path id="Shape_234_" d="m339.293 475.429c-.1 13.141 6.91 25.309 18.327 31.814 11.418 6.505 25.46 6.332 36.713-.454l-49.829-49.829c-3.355 5.581-5.155 11.958-5.211 18.469z"/><path id="Shape_233_" d="m119.681 506.789c14.289 8.62 32.614 6.386 44.414-5.414s14.034-30.125 5.414-44.414z"/></g></g></g></svg>