<svg id="Solid" height="512" viewBox="0 0 128 128" width="512" xmlns="http://www.w3.org/2000/svg"><path d="m116.69 38.51c-4.95-7.223-13.827-13.977-25.178-17.611a2.056 2.056 0 0 1 -1.377-1.576 7.476 7.476 0 0 0 -13.779-2.3 2.045 2.045 0 0 1 -1.828 1.035c-27.4-.846-46.718 16.778-49.283 46.969a2.978 2.978 0 0 1 -.692 1.684c-3.412 4.011-19.828 23.341-20.419 24.255-2.06 3.183-2.25 8.209 1.554 10.948a10.052 10.052 0 0 0 5.978 2.051c5.873 0 11.354-5.393 15.467-9.595a1.994 1.994 0 0 1 1.968-.529c14.532 4.208 25.051 15.7 31.869 19.289a14.081 14.081 0 0 0 9.09 1.32c12.27-2.02 25.28-16.94 30.1-22.98a6.248 6.248 0 0 1 5.16-2.33c2.52.11 5.26.12 7.81.1a11.628 11.628 0 0 0 11.37-10.05c2.15-15.22 1.13-27.64-7.81-40.68zm-105.024 62.455a7.086 7.086 0 0 1 -4.224-1.485 4.432 4.432 0 0 1 -1.825-3.094 5.177 5.177 0 0 1 0-1.244c4.716-2.926 11.02-3.839 18.885-2.38-3.664 3.726-8.393 8.203-12.836 8.203zm84.817-13.758a1.544 1.544 0 0 1 -2.025.841 175.9 175.9 0 0 1 -18.708-9.609c-8.416-4.777-16.364-9.289-26.45-11.656a47.488 47.488 0 0 0 -19.81-.358 1.5 1.5 0 0 1 -1.79-1.433 1.55 1.55 0 0 1 1.279-1.524 50.421 50.421 0 0 1 21.005.395c10.5 2.465 18.635 7.08 27.243 11.967 4.916 2.791 14.937 7.684 18.5 9.412a1.535 1.535 0 0 1 .75 1.965z"/></svg>