<svg id="_x33_0" enable-background="new 0 0 64 64" height="512" viewBox="0 0 64 64" width="512" xmlns="http://www.w3.org/2000/svg"><g><circle cx="30" cy="18" r="1"/><circle cx="38" cy="18" r="1"/><path d="m16.414 29-2.707-2.707-1.414 1.414 1.293 1.293-1.293 1.293 1.414 1.414z"/><path d="m20.293 31.707 1.414-1.414-1.293-1.293 1.293-1.293-1.414-1.414-2.707 2.707z"/><path d="m18.292 33.293c-.211.211-.374.211-.585 0-.912-.912-2.503-.912-3.415 0l-1 1 1.414 1.414 1-1c.211-.211.374-.211.585 0 .912.912 2.503.912 3.415 0l1-1-1.414-1.414z"/><path d="m63 31c0-1.103-.897-2-2-2v-28.868l-1.555 1.036c-4.035 2.69-6.445 7.192-6.445 12.043v15.789c-1.103 0-2 .897-2 2v2c0 1.103.897 2 2 2v1.667l-2.241 2.988-1.264-2.106c-2.376-3.961-6.303-6.655-10.831-7.455l-.888-1.776c4.209-1.546 7.224-5.581 7.224-10.318v-2c0-6.065-4.935-11-11-11s-11 4.935-11 11v1.012c-1.711-1.291-3.793-2.012-6-2.012-5.514 0-10 4.486-10 10v2.184c-1.161.414-2 1.514-2 2.816 0 1.654 1.346 3 3 3h.984l-2.611 1.492c-2.081 1.189-3.373 3.416-3.373 5.813 0 2.306 1.172 4.344 2.952 5.548l-2.447 2.855c-1.615 1.885-2.505 4.289-2.505 6.771 0 4.147 3.374 7.521 7.521 7.521 3.09 0 5.911-1.938 7.02-4.821l1.459-3.793 1.459 3.793c1.109 2.884 3.93 4.821 7.02 4.821.176 0 .348-.014.521-.026v.026h21.477l-4.477-11.192v-5.688l1.338 1.873c1.345 1.883 3.529 3.007 5.843 3.007 2.737 0 5.198-1.521 6.422-3.969l2.054-4.109c1.338-.301 2.343-1.494 2.343-2.922v-1c1.103 0 2-.897 2-2v-2c0-.366-.106-.705-.278-1 .172-.295.278-.634.278-1zm-8-17.789c0-3.514 1.467-6.814 4-9.155v24.944h-4zm-2 17.789h8l.001 2h-.001-1-7zm1.767 11.728-1.683.981-.956-2.548.872-1.162v.001c0 1.214.728 2.256 1.767 2.728zm-5.967 2.872 1.904-2.539.627 1.671-4.769 2.782c-.215-.21-.419-.434-.597-.682l-1.062-1.487 4.115-4.703.445.742-2.263 3.016zm-1.019-7.022.157.261-4.228 4.833-.71-.993v-3.265c0-.645.251-1.251.708-1.707l-1.415-1.414c-.834.834-1.293 1.942-1.293 3.121v7.586h-.382l-3.179-6.357 4.83-7.245c2.255 1.164 4.167 2.94 5.512 5.18zm-6.781 12.422h-9.015c-.339-.71-.766-1.378-1.261-2h10.276zm-18-2.148v-1.852h1.917c.452 0 .879-.091 1.286-.228l2.63 3.069-4.089 1.752zm20-32.852v2c0 1.053-.191 2.06-.525 3h-16.95c-.334-.94-.525-1.947-.525-3v-2c0-.338.022-.671.059-1h17.882c.037.329.059.662.059 1zm-7.365 31-7.188-15.275c.017-.024.035-.045.051-.069l1.966-.492 7.918 15.836zm-.195-10.357 3.022-4.532c.659.124 1.302.291 1.927.504l-3.978 5.968zm-1.03-2.06-.792-1.583h1.847zm-4.185-5.42-1.277.32c-.188-1.072-.944-1.941-1.948-2.298v-.706c1.02.843 2.197 1.498 3.476 1.932zm-5.225-.163h1c.551 0 1 .448 1 1s-.449 1-1 1h-1zm-.263 4h1.263c.272 0 .531-.048.781-.116l6.643 14.116h-4.393l-1.129-1.318c.675-.729 1.098-1.696 1.098-2.765 0-2.166-1.694-3.957-3.856-4.077l-5.483-.305c2.487-.881 4.408-2.955 5.076-5.535zm-8.794 12 2.057-2.88 2.057 2.88zm5.057-4.388v2.268l-1.687-2.362zm2 .111 2.032.113c1.104.061 1.968.976 1.968 2.081 0 1.148-.935 2.083-2.083 2.083h-1.917zm-6.246-.347.017.023-2.482 3.475-2.375-2.374 1.32-1.319zm-6.254 2.538 2.086 2.086h-2.891c-.391 0-.765-.062-1.128-.153zm26.346-11.986-.048.072h-4.18l-.538-1.077.35-1.048c.514.074 1.035.125 1.57.125.615 0 1.214-.063 1.801-.161zm-2.846-3.928c-3.113 0-5.862-1.59-7.478-4h14.956c-1.616 2.41-4.365 4-7.478 4zm0-20c3.909 0 7.235 2.51 8.475 6h-16.95c1.24-3.49 4.566-6 8.475-6zm-25 18c0-4.411 3.589-8 8-8 2.417 0 4.653 1.072 6.181 2.934.282 1.58.897 3.045 1.778 4.316.023.248.041.497.041.75v2c0-.94-.449-1.837-1.2-2.399l-3.2-2.4-1.2 1.6 3.201 2.401c.25.186.399.485.399.798v4c0 3.309-2.691 6-6 6s-6-2.691-6-6v-4c0-.313.149-.612.4-.8l2.6-1.95 3.4 2.55 1.2-1.6-4.6-3.45-3.8 2.85c-.751.563-1.2 1.46-1.2 2.4zm-2 5c0-.552.449-1 1-1h1v2h-1c-.551 0-1-.448-1-1zm.366 6.229 2.575-1.472c.798 1.493 2.057 2.698 3.584 3.438l-3.469-.193-.111 1.996.61.034-3.857 3.856c-1.029-.862-1.698-2.139-1.698-3.583 0-1.681.906-3.242 2.366-4.076zm2.329 10.771h2.483l-2.923 4.593-4.088-1.752 2.666-3.11c.592.172 1.215.269 1.862.269zm3.98 10.46c-.815 2.117-2.886 3.54-5.154 3.54-3.044 0-5.521-2.477-5.521-5.521 0-1.391.354-2.749 1.002-3.961l4.166 1.785-2.011 3.161 1.688 1.074 6.211-9.761c.308-.487.837-.777 1.414-.777.844 0 1.53.687 1.53 1.53 0 .188-.034.373-.102.549zm6.651 0-2.254-5.86.693-1.803c.156-.406.235-.832.235-1.267 0-.54-.132-1.047-.35-1.505.51.04 1.01.303 1.295.752l6.211 9.76 1.688-1.074-2.011-3.161 4.166-1.785c.647 1.213 1.001 2.571 1.001 3.962 0 3.044-2.477 5.521-5.521 5.521-2.268 0-4.339-1.423-5.153-3.54zm24.197 3.54h-13.954c1.49-1.375 2.431-3.338 2.431-5.521 0-.841-.11-1.672-.309-2.479h8.632zm3.963-12.292 3.558-2.075.643 1.714c-.752.415-1.606.653-2.506.653-.585 0-1.156-.105-1.695-.292zm6.327-2.571c-.146.292-.324.557-.515.811l-.502-1.338 1.807-1.054zm3.187-5.137h-2c-.551 0-1-.448-1-1v-5h2.184c-.112.314-.184.648-.184 1 0 1.302.839 2.402 2 2.816v1.184c0 .552-.449 1-1 1zm3-4h-1c-.551 0-1-.448-1-1s.449-1 1-1h1z"/></g></svg>