<svg height="512" viewBox="0 0 32 32" width="512" xmlns="http://www.w3.org/2000/svg"><g id="_x30_8"><path d="m15.4998 6.4728c-.7698-.0486-1.5261-.2028-2.2529-.4728l-1.4214-.5286-.4924-.2111v.0209c-1.9855.7975-4.9639 1.9948-5.0778 2.052-1.3338.6673-2.3339 1.8732-2.7607 3.4008l-1.4922 15.602c-.0147.1545.04.307.1494.4165.7555.7559 1.8016 1.1897 2.8701 1.1897h.6076c.2603 0 .48-.193.514-.451l1.7281-13.1092c.233 1.2175.3504 2.4558.3504 3.7022v10.4156c0 .2316.1534.4353.3763.4991 2.2072.6309 4.5282.959 6.9016 1.001v-23.5271zm-3.0259 16.6986-1 3.0018c-.0698.2096-.2646.342-.4741.342-.0522 0-.1055-.0083-.1582-.0259-.2617-.087-.4033-.3703-.3159-.6327l1-3.0018c.0874-.2619.3691-.4045.6323-.3161.2617.087.4033.3704.3159.6327z"/><path d="m28.4879 10.6407c-.4102-1.4349-1.4108-2.6408-2.7435-3.3076-.1144-.0572-3.0929-1.2545-5.0778-2.052v-.0204l-.4695.2013-1.4453.538c-.7253.2701-1.4815.4243-2.252.4728v23.5272c2.373-.0421 4.6939-.3701 6.902-1.001.2218-.0638.3757-.2675.3757-.4991v-10.4156c0-1.2464.1175-2.4847.3504-3.7022l1.7277 13.1091c.0345.2579.2542.451.5145.451h.6076c1.0836 0 2.1024-.4226 2.8701-1.1897.1094-.1094.1641-.2619.1498-.4165zm-7.3299 15.8486c-.0527.0176-.1055.0259-.1582.0259-.209 0-.4043-.1324-.4746-.342l-1-3.0018c-.0869-.2624.0547-.5457.3164-.6327.2627-.0879.5449.0537.6328.3161l1 3.0018c.0869.2624-.0547.5458-.3164.6327z"/><path d="m12.1966 4.5425 1.3989.5194c1.543.5731 3.2656.5731 4.8086 0l1.4219-.5286.8405-.3605v-1.6535c0-.1697-.0831-.3288-.2228-.4261s-.317-.1201-.476-.0603l-1.4745.5482c-1.6001.5944-3.3866.5944-4.9867 0l-1.4741-.5482c-.1595-.0592-.3372-.036-.4765.0603-.1397.0973-.2228.2564-.2228.4261v1.653z"/></g></svg>