<svg id="_x31_9.arm" enable-background="new 0 0 195 195" height="512" viewBox="0 0 195 195" width="512" xmlns="http://www.w3.org/2000/svg"><g><path d="m161.4 164.2c-5.5 5.5-12.6 8.3-20.2 8.9-9.2.6-18.5.5-27.7.5-25.9 0-53.6-.3-77.8-10.5-5.2-2.2-9.1-4.3-9.5-10.5-.5-7.1-1.1-14.4-1.1-21.5 0-15.4 5.8-29 11.8-42.8 5.7-13.3 11.4-26.5 17.4-39.7 1.1-2.3 2-4.9 3.4-7 2-3.1 5.3-5.5 8-7.9 3.8-3.4 7.5-6.9 11.5-10.1 4.6-3.6 8.5-1.9 12.7 1.2 2.9 2.2 5.9 4.3 8.8 6.6 2.4 1.9 6 3.9 7.3 6.8 1 2.1.5 4.2-.3 6.3-.3.8-1.7 2.7-1.5 3.5.2 1 1.8 2.1 2 3.5.3 2-.3 4.5-1.5 6-2 2.5-4.8 1.9-7.7 2.6-3.7.9-6.7 3.3-10.5 4.2-2.6.6-7-.7-9.2.4s-3.7 5.9-4.5 8c-1.3 3.1-2.3 6.4-3.1 9.7-1.7 7.2-2.1 14.6-1.7 22 .2 4 .6 8.1.9 12.1.3 3.9-.2 9.2 1.1 12.9 2.5-.8 5-4.3 7.3-5.8 2.8-1.8 5.9-3.3 9.1-4.3 6-1.9 12.5-2.4 18.8-1.2 3.2.6 6.2 1.6 9.2 2.9 3.9 1.8 3.1 2.2 6.1-.7 4.7-4.5 10.6-7.6 17.1-8.1 12.2-1 24.6 5.8 29.6 17 5 11.6 3.4 25.8-5.8 35z" /></g></svg>