<?xml version="1.0" encoding="iso-8859-1"?>
<!-- Generator: Adobe Illustrator 17.1.0, SVG Export Plug-In . SVG Version: 6.00 Build 0)  -->
<!DOCTYPE svg PUBLIC "-//W3C//DTD SVG 1.1//EN" "http://www.w3.org/Graphics/SVG/1.1/DTD/svg11.dtd">
<svg version="1.1" id="Capa_1" xmlns="http://www.w3.org/2000/svg" xmlns:xlink="http://www.w3.org/1999/xlink" x="0px" y="0px"
	 viewBox="0 0 205.159 205.159" style="enable-background:new 0 0 205.159 205.159;" xml:space="preserve">
<path d="M87.474,82.199c2.72-5.537,6.446-13.12,7.341-27.884c1.382-22.807,1.398-40.503,1.398-40.68c0-1.88-1.31-3.507-3.147-3.908
	L48.905,0.092c-1.218-0.266-2.488,0.051-3.438,0.856c-0.95,0.805-1.471,2.007-1.409,3.251c0.071,1.426,1.771,35.116,3.854,51.085
	c0.657,5.034,1.648,10.131,2.607,15.061c2.059,10.583,4.003,20.578,2.104,27.119c-0.51,1.756-1.046,3.502-1.582,5.245
	c-2.799,9.113-5.694,18.537-4.754,29.189c1.05,11.902,6.517,31.536,8.534,38.097c0.903,2.935-0.834,6.652-1.657,7.974
	c-2.882,3.654-9.249,12.29-9.249,17.278l-0.003,2.887c-0.004,1.875,0.722,3.638,2.046,4.965c1.325,1.328,3.089,2.06,4.967,2.06
	h27.38c2.052,0,3.994-0.893,5.328-2.45c1.333-1.556,1.917-3.609,1.603-5.635c-1.163-7.488-2.892-13.631-5.14-18.26
	c-2.963-6.102,0.534-37.051,5.271-46.642c4.148-8.399,2.175-20.662,0.59-30.515c-0.715-4.444-1.39-8.642-1.289-11.269
	C84.772,87.698,85.906,85.391,87.474,82.199z M70.063,107.721c-8.509,0-11.366-5.602-11.688-8.564
	c-0.179-1.647,1.011-3.128,2.658-3.307c1.631-0.183,3.093,0.983,3.3,2.601c0.094,0.57,0.803,3.27,5.73,3.27
	c4.01,0,4.337-2.796,4.362-3.115c0.125-1.653,1.575-2.887,3.218-2.765c1.652,0.125,2.89,1.566,2.765,3.218
	C80.18,102.055,77.726,107.721,70.063,107.721z "/>
<g>
</g>
<g>
</g>
<g>
</g>
<g>
</g>
<g>
</g>
<g>
</g>
<g>
</g>
<g>
</g>
<g>
</g>
<g>
</g>
<g>
</g>
<g>
</g>
<g>
</g>
<g>
</g>
<g>
</g>
</svg>
