<?xml version="1.0" standalone="no"?>
<!DOCTYPE svg PUBLIC "-//W3C//DTD SVG 20010904//EN"
 "http://www.w3.org/TR/2001/REC-SVG-20010904/DTD/svg10.dtd">
<svg version="1.0" xmlns="http://www.w3.org/2000/svg"
 width="1001.000000pt" height="1001.000000pt" viewBox="0 0 1001.000000 1001.000000"
 preserveAspectRatio="xMidYMid meet">

<g transform="translate(0.000000,1001.000000) scale(0.100000,-0.100000)"
fill="#000000" stroke="none">
<path d="M3950 7513 c-23 -4 -28 -13 -54 -116 -16 -62 -60 -221 -97 -354 -38
-133 -69 -256 -69 -273 0 -18 -9 -43 -20 -57 -13 -17 -20 -41 -20 -70 0 -36
-163 -669 -175 -682 -5 -4 -65 19 -65 26 0 2 9 16 20 31 17 23 19 39 16 117
-3 50 -12 119 -22 155 -9 36 -18 92 -19 126 -1 33 -8 71 -15 84 -7 12 -16 54
-21 92 -5 38 -17 88 -28 111 -33 73 -133 160 -205 177 -23 5 -54 15 -71 21
-16 6 -84 14 -150 16 -105 5 -127 3 -170 -15 -28 -11 -69 -25 -91 -31 -60 -16
-182 -127 -230 -208 -63 -106 -84 -220 -89 -493 -3 -179 2 -209 36 -246 18
-19 34 -111 41 -229 1 -24 -68 -182 -92 -210 -9 -11 -34 -54 -54 -95 -21 -41
-49 -90 -62 -109 -16 -23 -24 -48 -24 -76 0 -53 -24 -106 -123 -266 -42 -69
-77 -129 -77 -133 0 -3 -16 -47 -35 -97 -25 -63 -37 -112 -40 -162 -3 -40 -8
-95 -11 -123 -5 -42 -1 -60 19 -100 21 -41 25 -68 30 -174 5 -101 25 -221 39
-236 2 -1 32 4 68 11 36 8 68 14 72 15 10 0 68 -51 68 -61 0 -5 -38 -9 -85 -9
-62 0 -85 -3 -85 -13 0 -7 -47 -332 -104 -722 -58 -391 -102 -713 -98 -717 4
-4 99 -58 211 -121 l203 -114 97 14 c53 7 194 26 314 42 l218 28 -7 -79 c-4
-43 -3 -78 1 -78 13 0 273 99 309 117 17 8 53 31 79 50 48 33 52 34 210 48
407 35 1030 65 1359 65 l187 0 3 -73 3 -74 122 28 c115 27 224 68 268 102 18
14 23 12 62 -15 65 -44 102 -56 204 -68 52 -6 109 -13 127 -16 l32 -5 0 57 c0
47 3 55 16 50 9 -3 40 -6 70 -6 l54 0 0 -62 c0 -35 4 -69 8 -75 15 -23 214 22
312 70 l86 42 159 -12 c150 -11 688 -63 692 -67 1 0 7 -43 15 -93 l13 -92 141
53 c78 30 155 61 170 70 27 16 37 16 159 -2 l130 -19 210 118 c160 89 210 122
208 136 0 10 -41 289 -89 621 l-88 602 -76 0 c-42 0 -124 3 -182 6 l-106 7 46
23 c75 37 167 130 204 204 17 36 51 93 74 127 49 72 58 106 49 178 -6 52 -65
189 -105 245 -11 16 -20 39 -20 53 0 14 -11 64 -25 111 -14 47 -25 106 -25
130 0 24 -9 73 -20 108 -28 91 -27 102 19 123 77 34 122 108 123 199 1 89 -53
175 -130 210 -34 15 -51 17 -112 9 -62 -8 -73 -7 -77 6 -19 60 -35 85 -104
152 -42 42 -85 91 -95 108 -10 18 -48 51 -84 74 -36 23 -81 54 -100 69 -55 42
-150 72 -277 85 l-43 5 -2 47 c-5 99 0 125 27 149 14 12 37 22 50 22 13 0 36
5 52 11 71 27 99 91 108 248 9 160 -30 211 -162 211 l-68 0 -29 55 c-34 66
-125 158 -202 206 -30 18 -72 47 -92 62 -36 28 -39 29 -142 25 -105 -4 -105
-4 -199 -56 -52 -29 -113 -68 -136 -87 -50 -41 -106 -122 -127 -185 -9 -25
-21 -63 -29 -85 -18 -54 -27 -335 -14 -420 7 -41 68 -234 85 -265 8 -14 2 -23
-30 -44 -22 -14 -63 -36 -92 -47 -28 -11 -85 -38 -126 -60 -75 -39 -76 -39
-161 -33 -70 5 -90 10 -114 30 -16 13 -39 24 -52 24 -13 0 -26 3 -28 8 -2 4 0
46 4 93 5 49 5 121 0 165 -6 60 -5 87 5 113 10 23 14 78 14 172 l0 139 43 0
c89 0 151 57 150 138 -2 109 -88 201 -237 251 l-48 17 -33 101 c-44 133 -63
168 -123 227 -116 114 -263 182 -426 197 -108 10 -148 3 -201 -35 -16 -12 -60
-36 -96 -54 -36 -17 -90 -53 -120 -79 -30 -26 -66 -57 -80 -68 -42 -34 -77
-88 -104 -160 -25 -65 -26 -75 -22 -224 5 -169 17 -274 36 -309 15 -28 8 -50
-29 -97 -35 -44 -40 -99 -14 -161 18 -43 104 -142 140 -162 21 -11 23 -17 17
-57 -3 -26 0 -64 7 -90 7 -25 10 -48 8 -51 -3 -2 -17 1 -31 7 -29 13 -53 65
-34 72 12 5 -102 115 -180 175 -50 38 -51 44 -22 154 22 89 19 127 -14 157
-12 11 -42 38 -66 61 l-43 41 23 71 c28 87 28 125 -1 179 l-21 42 40 126 c44
137 91 308 122 439 18 78 18 86 3 118 -38 80 -156 119 -294 97z m2441 -768
c-31 -36 -72 -109 -86 -155 -8 -27 -72 -89 -92 -90 -16 0 2 63 32 115 24 41
87 105 140 143 41 29 42 27 6 -13z m489 -61 c28 -26 50 -50 50 -55 0 -5 -76
30 -96 45 -5 4 -13 56 -9 56 3 0 28 -21 55 -46z m-1449 -69 c9 -17 19 -42 23
-57 l6 -28 -221 0 c-122 0 -220 2 -218 4 2 2 78 36 169 75 l165 70 29 -17 c17
-10 38 -31 47 -47z m-2905 -59 c-20 -43 -21 -145 -1 -193 9 -21 34 -61 56 -90
47 -63 33 -70 -22 -11 -35 38 -39 40 -39 20 0 -12 -5 -22 -12 -22 -6 0 -20 -8
-31 -17 -19 -18 -20 -17 -14 27 3 25 10 84 16 132 11 84 47 205 58 194 3 -3
-2 -21 -11 -40z m2234 -84 c-40 -21 -48 -20 -29 2 8 8 25 15 39 16 23 0 22 -2
-10 -18z m2104 -1 c3 -5 -8 -14 -24 -20 -17 -5 -43 -19 -58 -29 -23 -16 -40
-18 -122 -13 l-95 6 95 31 c93 31 193 43 204 25z m-2404 -67 c0 -22 -9 -16
-30 19 -27 44 -25 53 5 21 14 -15 25 -33 25 -40z m2724 43 c8 -12 7 -21 -6
-33 -22 -22 -48 -11 -48 20 0 37 34 45 54 13z m-1677 -153 c-2 -123 -6 -157
-17 -164 -19 -12 -28 45 -29 185 -1 76 3 106 15 123 8 12 20 20 25 17 5 -4 8
-74 6 -161z m934 149 c-5 -10 -5 -26 0 -41 6 -16 6 -21 -2 -16 -6 3 -28 6 -50
6 -21 -1 -39 1 -39 4 0 4 91 64 97 64 2 0 0 -8 -6 -17z m-1738 0 c-7 -2 -19
-2 -25 0 -7 3 -2 5 12 5 14 0 19 -2 13 -5z m618 -19 c-30 -25 -41 -54 -21 -54
6 0 10 -4 10 -10 0 -5 -7 -7 -15 -4 -27 11 -64 -6 -79 -34 -8 -15 -36 -56 -62
-91 -104 -138 -221 -134 -271 9 -26 76 -29 137 -7 168 23 33 95 30 161 -5 l50
-28 -41 0 c-46 0 -109 -23 -100 -36 3 -5 -3 -9 -13 -9 -13 0 -9 -6 15 -21 38
-25 88 -27 130 -5 17 9 39 16 48 16 15 0 14 3 -5 24 l-23 24 39 -5 c29 -4 42
-1 52 11 17 21 9 28 -49 47 l-45 14 100 6 c55 3 113 6 128 7 l29 2 -31 -26z
m125 1 c-12 -19 -16 -51 -16 -139 0 -152 -14 -159 -56 -27 -15 50 -15 55 0 66
9 7 16 18 16 25 0 10 -3 10 -15 0 -12 -10 -15 -10 -15 4 0 9 7 16 15 16 8 0
15 5 15 10 0 6 -7 10 -17 10 -15 0 -15 1 0 18 10 10 17 23 17 29 0 5 16 10 36
11 36 1 36 1 20 -23z m-843 -22 c22 -3 37 -11 37 -19 0 -21 -104 -19 -124 2
-26 25 -19 37 17 30 17 -4 49 -9 70 -13z m229 -32 c-3 -38 0 -57 16 -83 11
-18 25 -52 31 -75 9 -32 23 -51 58 -78 51 -39 43 -46 -17 -15 -50 25 -85 72
-110 145 -25 73 -26 130 -2 144 27 17 29 14 24 -38z m2193 24 c31 -30 33 -77
5 -105 -26 -26 -32 -25 -59 4 -38 41 -28 126 16 126 8 0 25 -11 38 -25z
m-2264 -5 c12 0 16 -8 15 -25 -1 -19 -7 -25 -23 -25 -16 0 -23 -6 -23 -20 0
-11 -5 -20 -11 -20 -6 0 -8 7 -5 16 3 9 6 34 6 57 0 32 3 38 12 29 7 -7 20
-12 29 -12z m1943 4 c32 -5 43 -10 37 -18 -15 -18 -25 -131 -13 -152 10 -18 7
-19 -23 -16 -40 5 -46 17 -42 90 l4 52 -35 0 c-42 0 -165 20 -159 26 17 18
155 28 231 18z m-309 -44 c-10 -11 -21 -18 -25 -15 -4 2 -16 -3 -26 -11 -19
-15 -19 -15 1 -9 15 4 17 3 9 -5 -13 -13 7 -84 31 -110 8 -9 19 -37 24 -63 6
-26 23 -81 37 -122 22 -65 24 -79 14 -110 -16 -49 -38 -45 -98 19 -61 65 -80
120 -88 261 -6 97 -5 101 22 143 26 39 32 42 73 42 43 0 44 0 26 -20z m-1904
-6 c69 -31 68 -30 82 -116 l5 -36 -33 21 c-40 26 -57 59 -49 95 4 21 3 24 -5
12 -6 -8 -11 -29 -11 -46 0 -25 9 -39 44 -68 24 -20 50 -36 56 -36 8 0 9 -7 5
-17 -4 -10 -10 -29 -12 -43 l-4 -25 25 28 c18 19 27 24 30 15 3 -7 12 -40 22
-73 23 -80 38 -94 31 -30 -2 28 -1 59 3 70 8 18 9 18 10 -5 2 -14 2 -31 1 -39
-4 -27 17 0 23 30 4 21 -1 46 -14 76 -11 25 -20 65 -20 89 0 36 3 44 19 44 13
0 25 -16 41 -55 28 -68 95 -133 171 -164 l57 -24 -34 -34 c-20 -20 -39 -52
-46 -78 -10 -37 -14 -42 -29 -34 -10 5 -31 9 -47 9 -41 0 -109 26 -149 56 -35
26 -52 57 -55 99 -2 19 -5 22 -20 14 -28 -15 -51 4 -97 80 -37 63 -41 76 -41
135 0 36 2 66 3 66 2 0 19 -7 38 -16z m-437 -17 c11 -16 0 -44 -44 -113 -12
-18 -27 -67 -35 -110 -23 -124 -33 -150 -68 -165 -17 -8 -33 -20 -35 -27 -3
-11 1 -11 19 1 13 8 38 18 54 22 17 3 39 15 50 25 11 11 40 26 64 35 l43 15
31 -32 32 -31 -54 -20 c-67 -26 -54 -33 23 -13 63 17 81 13 98 -17 8 -16 7
-23 -8 -34 -10 -7 -26 -13 -36 -13 -10 0 -18 -4 -18 -10 0 -12 0 -12 39 1 43
15 78 4 95 -30 17 -31 11 -71 -10 -71 -8 0 -11 6 -7 16 5 14 3 14 -15 3 -30
-19 -40 -54 -48 -172 -7 -109 -17 -138 -71 -203 -32 -40 -35 -41 -71 -33 -20
4 -67 22 -104 38 -47 22 -83 31 -118 31 -49 0 -50 0 -50 32 0 18 -13 52 -31
80 -41 63 -49 171 -18 231 12 25 19 55 18 87 -2 32 5 61 19 89 12 23 37 81 56
130 36 92 62 139 128 229 40 54 53 59 72 29z m1034 15 c9 -6 5 -12 -13 -20
-34 -16 -34 -15 -28 8 6 21 20 25 41 12z m179 -10 c-9 -10 -30 -47 -46 -82
-32 -70 -39 -76 -17 -14 31 85 47 114 63 114 15 0 15 -1 0 -18z m1283 -25 c50
-24 73 -65 54 -95 -13 -21 -92 -37 -138 -28 -76 14 -109 78 -70 135 15 20 22
22 63 16 25 -3 66 -16 91 -28z m-1560 8 c14 -16 10 -18 -14 -9 -9 3 -16 10
-16 15 0 14 16 11 30 -6z m343 2 c4 -10 -3 -12 -23 -9 -23 3 -31 -1 -44 -24
-8 -16 -15 -24 -16 -18 0 6 9 23 21 38 22 28 54 35 62 13z m-727 -53 c4 -21 2
-40 -4 -46 -11 -11 -13 -4 -27 65 -2 9 3 17 10 17 8 0 17 -16 21 -36z m724
-11 c15 -55 24 -243 11 -222 -6 9 -15 63 -20 120 -5 57 -12 112 -16 122 -4 10
-3 17 3 17 6 0 16 -17 22 -37z m-2465 -3 c-82 -9 -157 -38 -153 -59 3 -12 13
-15 38 -13 21 1 30 -1 23 -6 -9 -6 -3 -13 18 -26 29 -17 33 -17 75 -1 39 15
59 35 35 35 -5 0 -22 5 -38 12 l-28 11 35 7 c19 4 50 11 67 15 29 7 34 5 43
-21 15 -38 7 -52 -42 -74 -64 -29 -142 -26 -208 8 -30 15 -56 32 -58 39 -5 17
36 50 82 67 23 8 70 14 106 14 l65 -1 -60 -7z m2584 -146 c34 -7 40 -18 15
-28 -19 -7 -60 33 -78 77 -28 67 -25 80 3 19 25 -52 35 -63 60 -68z m-2938 86
c16 -9 17 -14 8 -32 -13 -25 4 -41 38 -35 12 2 20 0 17 -4 -8 -13 -46 -10 -65
4 -16 12 -36 77 -24 77 3 0 15 -5 26 -10z m4349 -24 c44 -8 82 -10 91 -5 9 4
19 5 23 2 9 -9 7 -58 -3 -87 -6 -13 -13 -48 -16 -77 -7 -64 -26 -110 -65 -159
-27 -34 -34 -38 -55 -30 -13 5 -50 12 -83 16 -39 4 -63 12 -66 21 -5 12 -11
11 -32 -6 -45 -36 -46 -23 -4 39 22 33 36 60 31 60 -11 0 -101 -99 -101 -111
0 -5 -4 -9 -9 -9 -5 0 18 48 50 107 34 63 61 126 65 153 4 25 15 53 25 63 11
10 19 22 19 27 0 13 39 12 130 -4z m-222 -49 c5 -40 -20 -72 -81 -107 -28 -16
-54 -30 -57 -30 -3 0 -11 24 -17 53 -6 28 -14 62 -18 75 -7 21 -4 22 36 22 24
0 51 5 59 10 8 6 29 9 45 8 25 -3 31 -8 33 -31z m-1179 -144 c6 -23 8 -55 5
-70 -7 -25 -9 -21 -26 37 -10 36 -16 71 -13 79 8 20 19 4 34 -46z m-294 38
c-6 -4 -27 -11 -48 -14 -33 -5 -37 -4 -27 8 7 8 29 15 48 15 21 0 32 -4 27 -9z
m-163 -66 c-22 -55 -30 -65 -50 -65 -24 0 -24 0 -7 28 21 31 75 102 79 102 2
0 -8 -29 -22 -65z m212 40 c21 -31 21 -75 1 -75 -8 0 -15 8 -15 18 0 10 -7 28
-16 40 -15 21 -12 42 5 42 5 0 16 -11 25 -25z m-260 -25 c-15 -22 -28 -40 -31
-40 -6 0 18 43 35 63 25 29 24 19 -4 -23z m372 -37 c-3 -8 -10 -11 -16 -8 -14
9 -12 59 3 74 10 10 13 6 15 -19 2 -18 1 -39 -2 -47z m163 45 c0 -27 -2 -29
-8 -13 -5 11 -6 26 -4 33 8 21 13 13 12 -20z m-435 -103 c-17 -25 -37 -115
-26 -115 3 0 14 8 25 18 20 16 20 16 14 -1 -4 -10 -7 -23 -7 -28 0 -6 -5 -7
-11 -4 -6 4 -5 -2 2 -13 10 -16 16 -18 30 -9 10 6 21 8 25 4 12 -11 -19 -39
-38 -34 -13 4 -18 0 -18 -16 0 -12 4 -17 8 -12 4 6 19 16 35 22 22 11 27 10
27 -2 0 -19 -46 -49 -65 -41 -10 4 -15 -1 -15 -14 0 -30 -18 -24 -40 13 -24
38 -26 75 -5 83 8 4 15 10 15 15 0 4 -7 6 -15 3 -17 -7 -19 8 -9 68 4 21 9 36
13 34 3 -2 7 6 7 17 2 28 32 107 47 126 21 25 21 -83 1 -114z m86 105 c-12
-23 -60 -28 -60 -6 0 16 15 24 48 25 20 1 21 -2 12 -19z m-2150 -4 c0 -3 -4
-8 -10 -11 -5 -3 -10 -1 -10 4 0 6 5 11 10 11 6 0 10 -2 10 -4z m2192 -20 c6
-14 7 -33 3 -43 -6 -17 -8 -16 -15 3 -5 12 -13 25 -19 28 -12 8 -4 36 10 36 5
0 14 -11 21 -24z m-2238 -7 c-8 -14 -24 -10 -24 6 0 9 6 12 15 9 8 -4 12 -10
9 -15z m377 -88 c-11 -31 -25 -86 -30 -122 -5 -36 -21 -88 -36 -116 -15 -31
-29 -75 -32 -110 -3 -36 -14 -72 -28 -94 -13 -20 -29 -55 -35 -78 -6 -22 -13
-41 -15 -41 -3 0 -31 18 -63 40 -32 21 -81 50 -110 63 l-51 24 140 163 c133
156 231 289 261 355 l13 30 3 -29 c2 -16 -6 -54 -17 -85z m1457 29 c7 0 12
-14 12 -34 0 -35 0 -35 -31 -24 -60 21 -124 71 -127 101 l-3 27 68 -35 c37
-19 74 -35 81 -35z m-1743 50 c3 -6 -1 -13 -10 -16 -19 -8 -30 0 -20 15 8 14
22 14 30 1z m2085 0 c0 -5 -9 -14 -20 -20 -15 -8 -20 -8 -20 3 0 8 3 17 7 20
10 10 33 8 33 -3z m-2214 -38 c-10 -10 -29 15 -21 28 6 9 10 8 17 -4 6 -10 7
-20 4 -24z m2250 -8 c-6 -16 -7 -16 -20 2 -19 25 -9 51 12 31 8 -9 12 -23 8
-33z m-2156 8 c0 -13 -12 -22 -22 -16 -10 6 -1 24 13 24 5 0 9 -4 9 -8z m2229
1 c0 -5 -4 -17 -9 -28 -8 -18 -9 -17 -9 8 -1 15 4 27 9 27 6 0 10 -3 9 -7z
m-312 -35 c-3 -7 -5 -2 -5 12 0 14 2 19 5 13 2 -7 2 -19 0 -25z m182 25 c0 -5
-4 -17 -9 -28 -8 -18 -9 -17 -9 8 -1 15 4 27 9 27 6 0 10 -3 9 -7z m17 -31
c-18 -16 -19 -16 -12 1 3 10 6 24 6 30 0 8 4 7 12 -1 10 -9 8 -16 -6 -30z m75
-27 l-9 -40 -1 46 c-1 25 2 49 7 53 12 12 13 -16 3 -59z m-2323 43 c7 -7 12
-30 11 -52 l-1 -41 -9 39 c-5 22 -14 45 -20 53 -14 16 3 17 19 1z m2494 -27
c2 -29 0 -37 -10 -33 -7 2 -11 11 -8 19 3 8 6 23 6 34 0 34 8 20 12 -20z
m-615 -49 c34 -18 64 -36 68 -42 9 -14 58 -13 73 2 9 9 12 8 12 -6 0 -38 81
-166 122 -193 l39 -27 -23 -12 c-13 -7 -45 -21 -72 -30 l-48 -16 -57 56 c-48
48 -62 56 -93 56 -50 0 -198 48 -205 66 -6 16 19 122 45 187 l14 38 32 -24
c17 -13 59 -38 93 -55z m319 41 c-11 -11 -17 4 -9 23 7 18 8 18 11 1 2 -10 1
-21 -2 -24z m104 2 c0 -19 -4 -35 -10 -35 -11 0 -14 53 -3 63 11 12 13 8 13
-28z m-2205 15 c-3 -5 -11 -10 -16 -10 -6 0 -7 5 -4 10 3 6 11 10 16 10 6 0 7
-4 4 -10z m1996 -3 c-1 -4 -1 -15 -1 -26 0 -14 -10 -21 -36 -25 -19 -4 -38
-14 -41 -22 -11 -28 -18 -13 -15 31 3 39 6 43 18 30 17 -16 40 -11 48 12 6 14
28 15 27 0z m179 -17 c0 -14 -7 -20 -22 -21 -17 -1 -19 -2 -5 -6 21 -5 21 -13
3 -38 -12 -17 -13 -16 -20 10 -5 21 -2 33 15 51 27 29 29 29 29 4z m-2603 -37
c-3 -10 -5 -2 -5 17 0 19 2 27 5 18 2 -10 2 -26 0 -35z m262 33 c-2 -2 -18 -8
-34 -11 -21 -5 -27 -4 -20 3 6 5 19 12 30 14 20 4 32 1 24 -6z m-69 -16 c0 -5
-9 -10 -21 -10 -11 0 -17 5 -14 10 3 6 13 10 21 10 8 0 14 -4 14 -10z m2334 1
c3 -5 -1 -14 -9 -21 -13 -10 -15 -9 -15 9 0 21 14 28 24 12z m-2426 -19 c2 -7
-2 -10 -12 -6 -9 3 -16 11 -16 16 0 13 23 5 28 -10z m42 8 c0 -5 -4 -10 -9
-10 -6 0 -13 5 -16 10 -3 6 1 10 9 10 9 0 16 -4 16 -10z m227 -32 c-3 -8 -6
-5 -6 6 -1 11 2 17 5 13 3 -3 4 -12 1 -19z m2039 -15 c-11 -11 -19 6 -11 24 8
17 8 17 12 0 3 -10 2 -21 -1 -24z m214 24 c0 -7 -7 -23 -16 -35 -9 -13 -14
-26 -11 -29 3 -3 15 12 26 34 11 21 20 32 21 25 0 -7 -9 -31 -21 -54 l-21 -40
-13 26 c-12 23 -12 30 3 56 18 31 32 39 32 17z m213 -3 c9 -3 13 -13 10 -24
-3 -11 2 -27 11 -35 9 -9 16 -26 15 -38 0 -22 0 -22 -9 1 -5 12 -16 25 -23 28
-9 3 -12 14 -9 30 5 29 -12 32 -48 7 -34 -23 -50 -45 -45 -60 2 -7 0 -13 -6
-13 -5 0 -7 -12 -4 -27 5 -24 5 -25 -5 -10 -26 41 22 115 97 146 1 1 8 -2 16
-5z m-2513 -35 c16 -29 11 -36 -6 -9 -14 23 -14 23 -9 3 5 -18 2 -23 -13 -23
-15 0 -18 6 -14 29 4 32 25 33 42 0z m2226 -6 c-11 -11 -17 4 -9 23 7 18 8 18
11 1 2 -10 1 -21 -2 -24z m-2442 -8 c4 -10 0 -14 -14 -12 -11 2 -23 7 -27 12
-5 4 -2 5 5 1 6 -4 12 -2 12 3 0 16 17 13 24 -4z m26 5 c0 -5 -2 -10 -4 -10
-3 0 -8 5 -11 10 -3 6 -1 10 4 10 6 0 11 -4 11 -10z m70 0 c0 -5 -11 -10 -25
-10 -14 0 -25 5 -25 10 0 6 11 10 25 10 14 0 25 -4 25 -10z m60 -5 c0 -8 -6
-15 -14 -15 -8 0 -16 7 -20 15 -4 10 1 15 14 15 11 0 20 -7 20 -15z m4520 0
c7 -9 8 -15 2 -15 -5 0 -12 7 -16 15 -3 8 -4 15 -2 15 2 0 9 -7 16 -15z
m-2125 -34 c-4 -17 -10 -31 -15 -31 -5 0 -4 15 1 32 5 18 9 35 9 37 0 2 3 2 6
-2 3 -3 3 -19 -1 -36z m50 22 c-4 -10 -10 -28 -12 -40 -6 -25 -33 -32 -33 -9
0 29 20 66 36 66 11 0 14 -5 9 -17z m-790 -43 c114 -58 238 -100 307 -105 44
-3 50 -7 112 -78 36 -41 94 -97 128 -125 35 -27 78 -63 95 -78 l33 -29 -66
-85 c-94 -121 -82 -114 -148 -100 -48 10 -66 20 -114 67 l-57 55 50 -34 c58
-40 107 -61 61 -25 -16 12 -46 36 -65 53 -47 41 -83 49 -105 25 -15 -16 -15
-19 -1 -24 8 -4 20 -18 27 -32 7 -15 19 -25 32 -25 31 0 66 -28 66 -52 0 -15
-4 -18 -17 -13 -10 4 -36 11 -57 17 -46 10 -111 59 -130 97 -12 23 -12 35 0
80 7 29 18 59 23 65 10 12 36 74 27 66 -46 -47 -91 -170 -75 -204 10 -21 10
-21 -6 -1 -46 56 -47 68 -8 131 64 105 85 145 80 150 -3 3 -13 -8 -22 -25
l-16 -31 -64 6 c-61 6 -66 5 -106 -25 -24 -17 -48 -31 -54 -31 -6 0 -31 -13
-56 -29 -52 -33 -88 -44 -109 -31 -12 8 -8 16 25 42 22 18 56 48 75 66 19 19
50 46 70 61 19 14 37 29 40 32 16 19 61 30 147 36 54 3 107 10 118 15 12 5
-18 7 -78 3 l-98 -5 -84 58 c-64 44 -84 63 -87 85 -3 15 -2 27 1 27 3 0 51
-23 106 -50z m1012 28 c-3 -8 -6 -5 -6 6 -1 11 2 17 5 13 3 -3 4 -12 1 -19z
m-304 -26 c-3 -12 -9 -19 -14 -16 -5 3 -4 14 2 25 13 26 20 21 12 -9z m-19
-30 c11 -19 -36 -52 -73 -52 -34 0 -24 24 17 42 45 19 49 20 56 10z m2342 -37
c15 -20 25 -38 22 -40 -2 -3 -16 13 -31 35 -32 49 -27 52 9 5z m-4821 -34 c3
-5 1 -12 -5 -16 -5 -3 -10 1 -10 9 0 18 6 21 15 7z m64 -120 c17 -12 31 -25
31 -29 0 -11 -77 -52 -84 -45 -10 10 -7 43 4 43 5 0 8 6 6 13 -3 6 -7 32 -10
57 l-6 45 14 -31 c8 -17 28 -41 45 -53z m-1 73 c12 -4 22 -13 22 -21 0 -8 7
-28 16 -46 l17 -31 -35 29 c-34 29 -65 75 -50 75 4 0 17 -3 30 -6z m4053 -104
c-28 -4 -51 -15 -63 -29 -25 -32 -24 -100 3 -137 18 -24 16 -23 -14 6 -50 50
-67 63 -74 56 -4 -3 1 -14 10 -24 10 -10 17 -32 17 -48 0 -16 4 -40 8 -54 6
-20 8 -15 13 30 l6 55 1 -57 c2 -44 -1 -58 -12 -58 -8 0 -21 -3 -30 -6 -14 -5
-15 1 -11 42 3 27 3 43 -1 36 -3 -6 -10 -10 -15 -6 -5 3 -9 -4 -9 -15 0 -12
-2 -21 -4 -21 -2 0 -12 -3 -21 -7 -16 -5 -17 2 -14 75 4 84 7 92 33 96 9 1 23
11 32 22 15 18 15 18 5 -3 -16 -31 -14 -33 17 -22 35 12 78 65 59 72 -6 3 15
5 48 5 59 0 59 -1 16 -8z m-3973 -30 c17 -22 19 -30 8 -30 -8 0 -19 14 -25 30
-5 17 -9 30 -7 30 1 0 12 -13 24 -30z m4047 10 c10 -11 16 -20 13 -20 -3 0
-13 9 -23 20 -10 11 -16 20 -13 20 3 0 13 -9 23 -20z m-3907 -9 c22 -13 -14
-42 -49 -39 -33 3 -36 10 -14 28 13 11 15 10 10 -6 -5 -15 -3 -15 11 4 18 24
23 26 42 13z m4149 -53 c-2 -13 -4 -3 -4 22 0 25 2 35 4 23 2 -13 2 -33 0 -45z
m-4287 -76 c6 -31 14 -66 18 -77 11 -27 3 -67 -11 -62 -20 6 -48 98 -53 172
l-5 70 20 -23 c11 -12 25 -48 31 -80z m3749 61 c-6 -16 -9 -50 -7 -78 3 -49 3
-49 -33 -58 -30 -7 -36 -13 -36 -33 0 -14 -3 -27 -6 -31 -10 -9 -37 5 -37 19
0 9 3 8 10 -2 5 -8 10 -13 11 -10 2 7 8 49 14 100 10 81 15 91 48 105 45 20
48 19 36 -12z m-3518 -39 c-7 -19 -11 -38 -8 -40 3 -3 10 9 15 26 11 30 12 31
37 14 30 -20 30 -19 5 -51 -30 -38 -24 -48 8 -14 15 17 41 33 57 37 l30 6 -30
-25 c-28 -24 -195 -117 -209 -117 -9 0 -6 82 4 105 7 16 9 14 10 -15 0 -34 1
-33 25 25 14 33 25 65 25 71 0 18 23 35 34 24 7 -7 6 -22 -3 -46z m3423 9
c-10 -49 -13 -53 -39 -53 -19 0 -25 5 -25 23 0 26 10 42 30 50 33 12 40 8 34
-20z m-3487 -5 c-3 -8 -6 -5 -6 6 -1 11 2 17 5 13 3 -3 4 -12 1 -19z m4918 -5
c3 -14 15 -38 26 -51 38 -48 14 -132 -37 -132 -62 0 -91 59 -60 121 21 42 20
49 -4 20 -11 -13 -20 -31 -20 -41 0 -13 -6 -16 -25 -12 -41 7 -24 53 35 97 45
33 76 33 85 -2z m-800 -23 c0 -22 -5 -42 -12 -44 -8 -3 -10 1 -6 12 6 14 4 15
-9 4 -12 -10 -18 -9 -28 3 -16 19 -6 43 22 55 34 13 34 13 33 -30z m179 -46
c11 -29 6 -34 -32 -34 -31 0 -45 -7 -80 -43 -43 -44 -68 -103 -57 -136 5 -16
-1 -20 -37 -26 -24 -4 -60 -14 -82 -21 -24 -9 -43 -11 -49 -5 -5 5 8 12 35 16
58 10 68 20 68 71 0 41 1 43 35 50 25 4 40 15 50 34 8 15 27 38 42 49 l28 22
-45 -7 c-25 -3 -88 -17 -140 -31 -115 -30 -135 -32 -135 -14 0 15 136 53 184
52 12 -1 37 5 55 13 49 22 58 24 107 25 34 1 49 -3 53 -15z m-424 -4 c0 -5 -5
-10 -11 -10 -5 0 -7 5 -4 10 3 6 8 10 11 10 2 0 4 -4 4 -10z m892 -51 c3 -31
1 -37 -17 -37 -11 0 -60 -12 -110 -26 -81 -23 -259 -65 -342 -80 -33 -5 -33
-5 -33 34 0 35 4 42 28 51 25 10 401 103 447 111 21 4 22 2 27 -53z m-1393 39
c-1 -7 -5 -24 -9 -38 -7 -22 -8 -21 -9 13 -1 20 4 37 9 37 6 0 10 -6 9 -12z
m261 -37 c0 -4 -17 -11 -37 -14 -21 -3 -46 -8 -55 -12 -10 -4 -18 -3 -18 3 0
5 19 14 43 19 56 14 67 15 67 4z m0 -36 c0 -16 -27 -20 -57 -8 -15 6 -13 9 12
14 17 4 33 7 38 8 4 0 7 -6 7 -14z m-204 -12 c22 -29 17 -59 -11 -71 -38 -17
-42 -15 -49 24 -11 56 29 87 60 47z m-1751 -13 c10 -11 16 -20 13 -20 -3 0
-13 9 -23 20 -10 11 -16 20 -13 20 3 0 13 -9 23 -20z m1829 -5 c-4 -8 -8 -15
-10 -15 -2 0 -4 7 -4 15 0 8 4 15 10 15 5 0 7 -7 4 -15z m-1722 -52 c3 -33 2
-38 -8 -38 -5 0 -24 16 -42 36 l-32 36 40 -11 c22 -5 41 -16 42 -23z m1833 21
c-16 -8 -37 -21 -45 -28 -16 -14 -147 -56 -175 -56 -31 0 -11 33 25 43 19 5
39 13 45 18 5 5 25 9 45 10 19 0 51 7 70 14 49 19 71 18 35 -1z m362 -61 c-2
-16 -4 -5 -4 22 0 28 2 40 4 28 2 -13 2 -35 0 -50z m43 55 c0 -9 4 -8 10 2 7
11 10 4 10 -26 0 -37 -3 -42 -25 -46 -24 -5 -25 -3 -25 38 0 32 4 44 15 44 8
0 15 -6 15 -12z m-63 -65 c-2 -16 -4 -5 -4 22 0 28 2 40 4 28 2 -13 2 -35 0
-50z m-4466 30 c13 -16 17 -22 9 -15 -15 13 -90 17 -90 5 0 -5 16 -9 36 -10
48 -2 56 -11 89 -95 15 -40 32 -78 37 -84 8 -11 58 -151 58 -164 0 -3 -16 -6
-35 -6 -22 0 -43 -8 -58 -22 l-24 -22 -12 26 c-14 33 -7 44 9 14 6 -12 14 -20
16 -17 3 3 -8 32 -25 65 -39 77 -101 241 -101 267 0 15 -2 17 -9 6 -6 -9 -2
-34 10 -69 24 -70 23 -77 -2 -29 -39 74 -28 30 21 -87 28 -64 57 -130 65 -145
12 -24 12 -31 1 -40 -15 -12 -28 15 -93 184 -59 155 -60 167 -9 224 l21 24
-22 -12 c-11 -6 -31 -27 -43 -46 -12 -19 -24 -35 -27 -35 -8 0 26 52 55 83 19
20 35 27 62 27 27 0 43 -7 61 -27z m4062 -90 c-3 -28 1 -66 10 -90 18 -52 12
-57 -9 -8 -14 35 -19 101 -8 129 10 26 11 19 7 -31z m562 -13 c3 -5 19 -10 34
-10 16 0 34 -7 41 -15 10 -13 9 -15 -11 -16 -13 0 -55 -8 -92 -18 -66 -17 -68
-17 -78 1 -7 13 -6 18 4 18 8 0 17 9 20 19 3 12 16 21 33 24 16 2 32 5 36 6 4
0 10 -3 13 -9z m-598 -6 c-3 -3 -12 -4 -19 -1 -8 3 -5 6 6 6 11 1 17 -2 13 -5z
m-37 -8 c0 -2 -9 -6 -20 -9 -11 -3 -18 -1 -14 4 5 9 34 13 34 5z m10 -52 c-5
-20 -13 -41 -19 -47 -9 -9 -8 -2 0 23 6 19 12 41 15 48 8 28 11 9 4 -24z m39
-11 c1 -7 -5 -13 -12 -13 -10 0 -12 10 -9 32 4 28 6 30 13 13 4 -11 8 -26 8
-32z m-81 -24 c-21 -13 -25 -11 -31 17 -3 20 0 27 17 34 18 6 22 3 24 -18 2
-14 -2 -29 -10 -33z m-4070 -38 c19 -57 27 -91 20 -93 -18 -6 6 -63 26 -62 13
2 14 -1 6 -11 -8 -10 -8 -21 3 -42 13 -26 13 -63 0 -63 -3 0 -22 16 -41 36
-50 51 -53 33 -3 -22 46 -49 48 -68 6 -40 -16 10 -24 23 -21 32 9 24 -9 16
-86 -36 -40 -27 -81 -50 -90 -50 -15 0 -65 57 -57 65 2 2 51 26 108 54 110 54
123 55 155 9 10 -14 16 -17 16 -8 0 23 -42 60 -69 60 -14 0 -62 -20 -107 -44
-68 -36 -83 -41 -98 -31 -15 11 -7 27 78 153 52 78 97 150 101 162 3 11 10 20
14 20 4 0 22 -40 39 -89z m4822 80 c0 -11 -19 -18 -70 -26 -19 -3 -48 -8 -65
-11 -59 -12 -16 8 56 26 41 10 75 18 77 19 1 1 2 -3 2 -8z m-643 -77 c-3 -3
-12 -4 -19 -1 -8 3 -5 6 6 6 11 1 17 -2 13 -5z m-95 -26 c-7 -7 -12 -30 -12
-52 0 -50 -6 -44 -14 17 -7 44 -6 47 15 47 18 0 20 -3 11 -12z m132 -140 l1
-133 -44 -28 c-24 -15 -45 -27 -46 -25 -2 2 -6 20 -10 41 -7 33 -5 37 15 37
28 0 62 18 55 30 -3 5 -1 11 5 15 13 8 13 65 0 65 -11 0 -14 133 -3 144 18 18
26 -24 27 -146z m-44 89 c0 -23 -4 -57 -9 -75 -8 -25 -7 -32 5 -32 24 0 16
-30 -11 -40 -30 -11 -34 -25 -5 -17 11 3 20 2 20 -3 0 -9 -57 -19 -65 -12 -3
3 -5 49 -5 103 0 103 7 118 53 119 13 0 17 -9 17 -43z m-3910 -77 c8 -5 12
-11 10 -14 -3 -2 -14 2 -24 10 -22 15 -10 19 14 4z m-80 -3 c0 -2 -10 -12 -22
-23 l-23 -19 19 23 c18 21 26 27 26 19z m55 -13 c17 -7 45 -54 45 -77 0 -8
-18 -26 -40 -41 -22 -14 -40 -22 -40 -18 0 5 16 17 35 28 19 10 35 22 35 26 0
12 -12 9 -45 -10 l-30 -18 -18 40 c-18 40 -18 41 4 58 23 20 30 21 54 12z
m4108 -1 c2 -5 7 -20 11 -35 6 -25 4 -28 -19 -28 -15 0 -35 -5 -47 -11 -31
-17 -30 -6 3 39 30 41 43 50 52 35z m-4578 -93 c3 -5 1 -10 -4 -10 -6 0 -11 5
-11 10 0 6 2 10 4 10 3 0 8 -4 11 -10z m545 -10 c-20 -13 -33 -13 -25 0 3 6
14 10 23 10 15 0 15 -2 2 -10z m4064 -16 c6 -15 0 -16 -40 -10 -26 3 -60 6
-76 6 -17 0 -27 4 -23 10 3 6 35 10 70 10 49 0 64 -4 69 -16z m-4382 -11 c11
-10 56 -36 101 -58 44 -22 84 -47 87 -55 4 -8 12 -24 18 -36 5 -12 26 -60 46
-108 38 -92 45 -150 22 -182 -14 -19 -15 -19 -22 1 -22 62 -36 87 -89 153 -32
40 -60 70 -63 68 -6 -7 33 -68 57 -90 15 -14 19 -30 18 -72 -1 -41 4 -61 21
-84 20 -27 21 -30 5 -30 -50 2 -82 32 -172 163 -39 58 -51 57 -18 -1 44 -79
102 -151 131 -163 l28 -12 -27 -14 c-42 -23 -68 -9 -149 79 -93 100 -100 90
-10 -14 62 -73 113 -106 137 -91 5 3 7 1 4 -4 -12 -19 -67 -23 -102 -8 -21 8
-48 33 -67 61 -18 27 -47 62 -65 79 -24 22 -41 57 -67 138 -20 59 -36 112 -36
118 0 25 162 179 189 179 2 0 13 -8 23 -17z m406 -16 c34 -18 59 -36 56 -40
-4 -3 4 -30 18 -59 14 -29 30 -65 36 -80 6 -16 18 -28 27 -28 8 0 15 -6 15
-14 0 -7 9 -24 19 -37 10 -14 49 -95 87 -182 58 -136 71 -157 90 -157 21 0 20
2 -12 35 -40 42 -43 54 -10 48 19 -4 31 -22 61 -91 20 -48 43 -102 51 -119 15
-34 4 -44 -18 -18 -57 68 -60 60 -14 -47 20 -48 14 -49 -13 -3 -11 19 -27 35
-35 35 -19 0 -38 -34 -30 -54 3 -9 2 -16 -2 -16 -5 0 -49 91 -98 201 l-89 200
26 27 c15 16 27 32 27 36 0 14 -53 127 -57 123 -2 -3 5 -28 17 -56 11 -28 20
-57 20 -64 -1 -17 -61 112 -95 203 -37 100 -48 116 -105 151 -28 17 -50 33
-50 35 0 9 19 2 78 -29z m-33 -22 l56 -36 -56 -55 c-30 -30 -55 -59 -55 -64 0
-6 -4 -10 -10 -10 -5 0 -10 7 -10 15 0 8 -9 20 -19 27 -10 6 -17 18 -14 25 6
15 -23 18 -32 3 -3 -5 -1 -15 5 -22 6 -7 20 -28 31 -46 11 -18 23 -31 28 -27
5 3 7 -4 4 -15 -8 -31 -28 -8 -73 83 -40 82 -41 97 -5 127 23 19 30 4 11 -24
-22 -34 -20 -43 5 -20 15 13 19 26 15 45 -3 15 -2 30 2 34 13 12 60 -4 117
-40z m151 13 c4 -6 3 -8 -4 -5 -7 5 -9 -7 -6 -35 l5 -43 -16 28 c-22 39 -2 93
21 55z m3814 -292 c0 -150 3 -288 6 -305 l7 -31 -47 0 c-39 0 -46 3 -50 23 -3
12 -7 149 -11 305 l-6 282 51 0 50 0 0 -274z m-116 162 c3 -57 7 -192 9 -301
l2 -197 -22 0 c-21 0 -23 5 -23 58 0 31 -5 162 -10 291 -9 189 -8 236 2 243
31 19 36 7 42 -94z m-3626 69 c5 -24 -15 -21 -21 4 -3 13 -1 19 6 16 7 -2 13
-11 15 -20z m-786 -16 c-23 -22 -32 -39 -32 -62 0 -40 -11 -32 -12 8 -1 38 29
83 55 83 19 0 18 -3 -11 -29z m752 13 c3 -8 2 -12 -4 -9 -6 3 -10 10 -10 16 0
14 7 11 14 -7z m3600 -261 c4 -148 10 -276 12 -285 4 -13 0 -18 -14 -18 -18 0
-21 10 -28 118 -9 129 -8 427 1 442 18 29 23 -14 29 -257z m-3724 247 c0 -5
-5 -10 -11 -10 -5 0 -7 5 -4 10 3 6 8 10 11 10 2 0 4 -4 4 -10z m238 -25 c-3
-3 -9 2 -12 12 -6 14 -5 15 5 6 7 -7 10 -15 7 -18z m55 10 c31 -13 57 -40 57
-59 0 -9 -82 32 -91 45 -9 15 -12 29 -5 29 2 0 20 -7 39 -15z m-193 -10 c-7
-8 -18 -15 -24 -15 -6 0 -2 7 8 15 25 19 32 19 16 0z m-70 -50 c22 -53 22 -85
0 -85 -5 0 -10 6 -10 13 0 21 -46 71 -58 63 -19 -11 -14 -42 18 -118 27 -64
29 -73 15 -88 -8 -9 -15 -21 -15 -26 0 -16 60 -56 74 -51 8 3 18 -5 24 -19 10
-20 8 -28 -12 -50 l-22 -27 -33 57 c-34 62 -60 71 -71 26 -5 -21 -8 -18 -26
30 -19 49 -19 56 -6 66 9 7 13 18 9 29 -12 28 -40 -2 -35 -37 3 -16 0 -32 -6
-37 -8 -7 -11 8 -11 47 0 32 -4 67 -8 79 -6 18 -5 21 11 16 15 -3 24 8 46 62
25 58 64 105 86 105 4 0 18 -25 30 -55z m130 40 c-12 -15 -30 -12 -30 6 0 5
10 9 21 9 18 0 19 -2 9 -15z m62 -2 c4 -20 -60 -125 -72 -118 -9 6 -34 65 -29
68 2 2 21 17 42 35 43 37 54 39 59 15z m-106 -48 c-6 -13 -14 -21 -18 -19 -12
8 -9 39 4 52 18 18 28 -5 14 -33z m-213 -20 c-3 -9 -8 -14 -10 -11 -3 3 -2 9
2 15 9 16 15 13 8 -4z m362 -60 c28 -12 39 -13 56 -4 22 11 22 11 -1 -21 -12
-17 -29 -34 -36 -37 -10 -4 -86 32 -112 53 -2 1 7 18 20 38 23 35 23 35 31 11
4 -13 24 -31 42 -40z m-379 9 c-4 -9 -9 -15 -11 -12 -3 3 -3 13 1 22 4 9 9 15
11 12 3 -3 3 -13 -1 -22z m-497 -66 c1 -5 -3 -8 -9 -8 -9 0 -31 63 -29 85 0
10 37 -63 38 -77z m714 -99 c-17 -19 -34 -26 -54 -25 -34 2 -40 7 -30 24 5 8
16 9 39 3 38 -11 38 -11 12 39 -23 44 -25 71 -9 87 9 9 19 -2 39 -45 l28 -57
-25 -26z m108 102 c13 -11 21 -22 18 -25 -3 -3 -19 5 -35 19 -34 29 -18 34 17
6z m-821 -31 c8 -5 12 -11 9 -14 -3 -3 -14 1 -25 9 -21 16 -8 20 16 5z m384
-90 c4 -8 0 -6 -8 4 -9 11 -15 36 -15 55 l2 36 6 -40 c4 -22 10 -47 15 -55z
m493 21 c43 -98 44 -101 25 -94 -18 7 -51 43 -52 56 0 4 8 7 18 8 14 0 13 3
-5 16 -13 8 -23 22 -23 29 0 8 -4 14 -10 14 -5 0 -14 8 -19 19 -9 16 -7 17 15
13 19 -3 31 -18 51 -61z m-261 2 c-10 -10 -19 5 -10 18 6 11 8 11 12 0 2 -7 1
-15 -2 -18z m-547 -27 c7 -8 8 -17 3 -20 -6 -3 -12 3 -15 14 -6 24 -4 25 12 6z
m448 -31 c-1 0 -14 -8 -28 -17 -15 -10 -31 -13 -39 -8 -10 6 -6 14 16 34 26
23 30 24 41 9 7 -9 12 -17 10 -18z m96 -43 c16 -29 25 -56 22 -62 -14 -22 -35
-8 -55 36 -41 94 -15 114 33 26z m-469 -31 c-7 -8 -73 62 -68 71 3 5 21 -8 39
-29 18 -21 31 -40 29 -42z m626 -47 c21 -48 29 -79 23 -85 -6 -6 -19 14 -36
58 -24 60 -34 103 -24 103 2 0 18 -34 37 -76z m-344 1 c18 -13 17 -14 -18 -15
-37 0 -51 13 -25 23 19 8 22 8 43 -8z m198 -30 c-4 -8 -7 -15 -9 -15 -2 0 -5
7 -9 15 -3 9 0 15 9 15 9 0 12 -6 9 -15z m96 -67 c0 -5 -4 -8 -8 -8 -12 0 -32
46 -24 54 6 6 31 -31 32 -46z m129 -80 c17 -38 27 -68 22 -68 -4 0 -20 29 -36
65 -21 50 -32 65 -49 66 -20 0 -20 1 -1 9 26 10 28 8 64 -72z m-92 56 c-3 -3
-12 -4 -19 -1 -8 3 -5 6 6 6 11 1 17 -2 13 -5z m61 -59 c12 -25 22 -48 22 -51
0 -4 -16 -3 -35 0 -22 5 -44 2 -63 -8 -21 -11 -29 -12 -30 -3 -1 7 -4 24 -8
39 -5 24 -2 28 37 46 24 11 46 21 50 21 3 1 15 -19 27 -44z m206 -5 c7 0 18
-11 24 -25 16 -34 15 -35 -8 -35 -11 0 -20 7 -20 15 0 8 -4 15 -10 15 -5 0
-14 10 -21 22 -10 18 -9 20 6 15 9 -4 22 -7 29 -7z m-814 -27 c0 -5 -7 -59
-16 -121 -9 -62 -14 -115 -11 -118 3 -3 36 10 74 30 l70 35 11 81 c7 45 14 86
17 91 7 11 142 12 149 1 2 -4 -24 -224 -60 -487 -35 -264 -64 -485 -64 -491 0
-9 -159 -38 -167 -31 -1 1 18 146 43 322 24 176 44 323 44 327 0 5 -106 -50
-147 -77 -2 -1 -22 -134 -45 -296 l-43 -293 -44 -9 -44 -9 127 -127 c69 -69
126 -130 126 -134 0 -4 -75 52 -166 125 -160 127 -165 132 -160 162 3 17 37
249 76 516 39 267 73 491 75 498 5 13 155 18 155 5z m474 -41 c-22 -5 -27 3
-19 29 l7 22 14 -24 c11 -20 10 -25 -2 -27z m2496 37 c0 -6 -12 -33 -27 -60
l-26 -49 -109 0 -108 0 0 -310 0 -310 70 0 70 0 0 230 0 229 66 21 c36 11 72
20 78 20 12 0 26 -289 26 -545 0 -106 -6 -116 -100 -159 l-55 -26 -3 60 -3 60
-144 0 c-142 0 -145 0 -161 25 -14 21 -15 58 -8 329 l7 305 33 32 c19 18 34
37 34 41 0 4 -25 8 -55 8 -30 0 -55 3 -55 8 0 10 27 50 53 80 20 21 26 22 219
22 139 0 198 -3 198 -11z m530 2 c0 -5 -12 -29 -26 -55 l-26 -46 -60 0 -61 0
6 -127 c18 -369 29 -714 23 -720 -10 -10 -82 30 -127 70 l-37 32 -10 335 -10
335 29 30 c16 17 29 34 29 38 0 4 -40 7 -90 7 -49 0 -90 3 -90 6 0 12 24 51
48 77 l26 27 188 0 c103 0 188 -4 188 -9z m491 -9 c21 -18 24 -35 60 -458 l37
-439 -26 -27 c-21 -21 -131 -76 -132 -65 0 1 -11 138 -24 305 -13 166 -25 305
-28 307 -4 4 -126 -32 -136 -40 -1 -1 4 -100 13 -220 8 -120 13 -220 11 -222
-2 -2 -39 -1 -83 3 l-79 7 -18 334 -19 334 32 33 c37 38 38 46 7 46 -13 0 -38
3 -55 6 l-31 7 22 36 c45 75 31 71 238 71 167 0 190 -2 211 -18z m534 -3 c-4
-11 -16 -41 -26 -65 l-20 -44 -111 0 c-110 0 -110 0 -104 -22 3 -13 6 -40 6
-60 l0 -36 135 -72 c101 -53 136 -76 139 -93 3 -12 14 -110 26 -217 11 -107
22 -214 26 -237 8 -64 -3 -67 -212 -52 -153 12 -177 16 -194 34 -15 16 -21 49
-33 170 -8 83 -12 153 -11 157 5 8 91 -15 131 -35 28 -15 32 -22 38 -74 13
-124 11 -120 58 -126 23 -3 43 -4 46 -2 4 5 -16 236 -26 293 -5 30 -15 37
-139 103 -120 63 -134 73 -135 97 0 15 -6 86 -13 157 -7 72 -11 133 -9 138 2
4 101 7 219 7 214 0 215 0 209 -21z m-2406 -271 c35 -65 67 -118 70 -118 3 0
39 55 80 121 l73 120 62 -3 c41 -2 61 -7 60 -15 -1 -7 -2 -159 -2 -338 l-2
-325 -71 0 -71 0 7 215 c4 118 5 215 2 215 -3 0 -21 -29 -41 -64 -35 -62 -36
-68 -36 -168 0 -56 -3 -127 -6 -155 l-7 -53 -65 0 -65 0 6 158 7 157 -34 65
-34 65 -6 -85 c-3 -47 -8 -146 -12 -220 -3 -74 -6 -136 -7 -136 -1 -1 -30 -4
-64 -6 l-63 -4 0 70 c0 39 7 190 15 336 8 146 15 268 15 272 0 8 52 16 95 14
27 -1 35 -10 94 -118z m-655 30 c-3 -46 -16 -204 -28 -353 l-21 -270 -60 -7
c-33 -3 -63 -3 -67 1 -4 3 1 105 12 226 11 120 18 220 16 222 -2 2 -22 -27
-44 -64 -40 -68 -40 -69 -53 -227 -13 -151 -14 -158 -37 -167 -30 -11 -112
-12 -112 0 0 4 7 77 16 162 l15 154 -28 69 c-21 53 -29 64 -34 50 -4 -11 -15
-102 -24 -204 -24 -270 -15 -246 -88 -254 -33 -3 -62 -4 -65 -1 -3 2 12 169
34 370 l38 365 63 0 64 0 44 -97 c25 -54 51 -111 58 -127 l13 -29 85 131 84
132 63 0 63 0 -7 -82z m393 66 c9 -24 -27 -647 -38 -659 -11 -11 -131 -23
-242 -24 -64 -1 -79 2 -84 16 -4 9 1 130 11 267 l18 251 36 38 36 37 -47 0
c-26 0 -47 2 -47 5 0 3 12 23 26 45 l27 40 149 0 c127 0 150 -2 155 -16z
m-1202 -8 c18 -13 17 -25 -25 -387 -42 -359 -44 -375 -69 -402 -27 -29 -109
-83 -116 -75 -2 2 11 122 29 266 17 144 31 262 29 262 -2 0 -21 -9 -41 -19
l-38 -19 -23 -197 c-14 -114 -29 -198 -35 -200 -6 -2 -35 -6 -63 -10 -50 -5
-53 -5 -53 17 0 13 16 149 36 303 l36 280 37 40 36 40 -47 5 -47 5 34 47 35
47 107 4 c60 1 120 4 134 5 14 1 33 -4 44 -12z m215 12 c0 -41 -83 -734 -88
-739 -4 -4 -33 -9 -64 -11 -58 -5 -58 -5 -58 23 0 15 18 183 40 373 22 189 40
347 40 350 0 3 29 6 65 6 36 0 65 -1 65 -2z m4049 -8 l47 0 23 -177 c22 -172
24 -179 64 -246 22 -39 43 -65 45 -59 3 9 -36 327 -54 445 l-6 37 61 0 c33 0
62 -4 66 -9 4 -8 95 -654 107 -766 3 -33 6 -32 -82 -20 l-45 6 -128 187 -129
186 -24 195 c-29 236 -29 235 -8 227 9 -3 37 -6 63 -6z m489 -98 c30 -48 52
-76 49 -62 -3 14 -9 53 -13 88 l-7 63 64 -3 64 -3 62 -420 c47 -320 59 -423
50 -431 -14 -14 -306 -243 -327 -258 -8 -5 47 54 124 131 137 139 138 141 109
147 l-29 7 -26 187 c-26 181 -28 189 -69 261 -24 40 -45 69 -46 64 -2 -6 12
-125 32 -266 19 -140 33 -262 29 -270 -5 -14 -105 -70 -112 -63 -1 2 -29 198
-62 437 -33 239 -61 444 -63 457 -4 21 -1 22 57 22 l61 0 53 -88z m-569 -537
c2 -3 7 -32 9 -65 l4 -59 -73 6 c-41 3 -78 9 -82 13 -5 4 -11 33 -14 65 l-6
58 78 -6 c43 -4 81 -9 84 -12z"/>
<path d="M6436 6288 c-18 -10 -17 -12 15 -29 40 -21 64 -23 108 -8 31 11 31
12 15 30 -20 22 -106 26 -138 7z m80 -26 c-3 -2 -18 -1 -33 3 -25 7 -26 8 -8
15 19 7 51 -7 41 -18z"/>
<path d="M7858 5219 c-25 -14 -24 -75 1 -89 27 -14 37 -13 55 6 29 29 10 95
-27 94 -7 0 -20 -5 -29 -11z"/>
<path d="M2300 4705 c-9 -11 -10 -19 -3 -26 7 -7 14 -5 23 6 9 11 10 19 3 26
-7 7 -14 5 -23 -6z"/>
<path d="M2253 4645 c-3 -9 -3 -18 0 -21 9 -9 27 6 27 22 0 19 -19 18 -27 -1z"/>
<path d="M2935 4064 c-19 -19 -19 -28 1 -70 18 -37 27 -40 61 -21 l23 13 -21
41 c-23 48 -42 58 -64 37z"/>
<path d="M2987 3943 c-13 -13 -7 -61 11 -83 13 -17 24 -20 45 -15 33 9 33 16
5 66 -20 36 -45 49 -61 32z"/>
<path d="M3090 3855 c0 -5 5 -17 10 -25 5 -8 10 -10 10 -5 0 6 -5 17 -10 25
-5 8 -10 11 -10 5z"/>
<path d="M3039 3816 c-14 -30 15 -100 38 -92 8 4 19 6 24 6 6 0 15 14 21 30 8
25 14 30 32 25 21 -5 21 -5 -1 11 -13 9 -23 24 -23 33 0 14 -2 14 -10 1 -5 -8
-7 -24 -4 -35 5 -16 2 -15 -12 5 -33 46 -50 51 -65 16z"/>
<path d="M2480 2911 c-19 -3 -36 -13 -37 -21 -2 -8 -9 -58 -16 -111 l-13 -95
60 8 c33 5 61 9 62 11 2 2 8 36 14 77 6 41 13 90 16 108 5 30 3 32 -23 31 -15
-1 -44 -4 -63 -8z"/>
<path d="M2184 2858 l-51 -9 -13 -92 c-7 -50 -15 -98 -18 -105 -3 -10 1 -13
14 -9 10 3 40 8 66 12 l46 6 12 87 c6 48 14 95 16 105 6 19 3 19 -72 5z"/>
<path d="M4940 2996 c0 -63 3 -121 6 -130 5 -14 29 -16 160 -16 l154 0 0 -55
0 -55 37 15 c80 34 83 41 83 202 l0 143 -65 0 -65 0 0 -90 0 -90 -90 0 -90 0
0 95 0 95 -65 0 -65 0 0 -114z"/>
<path d="M5600 2961 l0 -129 38 -30 c45 -36 82 -55 89 -48 3 3 2 80 -2 171
l-7 165 -59 0 -59 0 0 -129z"/>
<path d="M6114 3483 c4 -43 9 -79 11 -81 2 -2 33 6 69 18 72 24 75 30 60 109
l-6 31 -71 0 -70 0 7 -77z"/>
<path d="M6003 3009 c4 -34 7 -88 7 -119 l0 -57 62 -7 c34 -3 63 -5 64 -3 4 4
-13 227 -17 231 -2 2 -31 7 -63 11 l-59 7 6 -63z"/>
<path d="M6313 3003 c3 -21 9 -93 13 -160 4 -67 10 -127 14 -133 5 -9 18 -6
46 8 70 36 72 41 61 183 l-10 127 -36 6 c-20 3 -49 6 -65 6 -27 0 -28 -2 -23
-37z"/>
<path d="M6564 2987 c3 -18 8 -62 11 -99 4 -36 12 -73 18 -81 14 -16 353 -45
367 -30 7 7 -6 183 -14 190 -1 2 -30 7 -63 11 l-61 8 4 -35 c3 -20 7 -49 9
-64 l5 -29 -68 7 c-37 4 -68 8 -69 10 -2 1 -6 29 -9 63 -7 68 -5 66 -92 75
l-43 5 5 -31z"/>
<path d="M4559 3103 c-24 -4 -27 -9 -33 -71 -3 -37 -6 -95 -6 -129 l0 -63 44
0 c42 0 44 1 50 38 3 20 6 81 6 135 0 106 4 100 -61 90z"/>
<path d="M4736 3058 c-3 -29 -6 -88 -6 -130 l0 -78 50 0 50 0 0 130 0 130 -44
0 -43 0 -7 -52z"/>
<path d="M4316 3039 c-3 -34 -6 -93 -6 -130 l0 -69 44 0 43 0 7 77 c3 42 6
100 6 130 l0 53 -44 0 -43 0 -7 -61z"/>
<path d="M3739 3063 c-26 -4 -26 -6 -33 -101 -4 -53 -9 -110 -12 -127 l-5 -30
49 3 50 4 6 101 c4 56 9 114 12 130 6 29 1 30 -67 20z"/>
<path d="M3514 3042 c-6 -4 -14 -47 -18 -97 -4 -49 -10 -105 -13 -122 -5 -33
-5 -33 33 -33 22 0 44 4 50 8 6 4 15 52 19 107 3 55 9 110 12 123 5 20 2 22
-33 22 -22 0 -44 -4 -50 -8z"/>
<path d="M3309 3023 c-12 -3 -18 -22 -23 -81 -4 -42 -9 -98 -13 -124 l-5 -46
43 5 c24 3 47 10 50 16 4 5 10 54 14 110 4 55 9 106 12 114 4 9 -4 13 -28 12
-19 -1 -41 -3 -50 -6z"/>
<path d="M4046 3378 c-3 -18 -10 -118 -16 -223 -6 -104 -13 -205 -16 -222 -5
-33 -4 -33 36 -33 31 0 40 4 40 18 0 9 7 116 15 237 8 121 15 228 15 238 0 13
-8 17 -35 17 -31 0 -35 -3 -39 -32z"/>
<path d="M4115 2985 l-7 -105 -58 0 -58 0 5 100 6 100 -45 0 -45 0 -7 -92 c-3
-50 -6 -109 -6 -131 l0 -40 143 7 c78 4 145 10 149 14 4 4 10 62 14 130 l7
122 -46 0 -45 0 -7 -105z"/>
<path d="M2842 3313 c-5 -38 -8 -69 -7 -71 7 -8 65 30 75 47 5 11 10 36 10 55
0 34 -2 36 -34 36 l-34 0 -10 -67z"/>
<path d="M2943 2980 c-24 -4 -44 -8 -46 -11 -8 -8 -39 -310 -33 -316 10 -11
86 47 91 70 5 23 34 262 31 263 0 0 -20 -3 -43 -6z"/>
<path d="M2738 2953 c-20 -2 -41 -9 -46 -16 -9 -12 -38 -215 -31 -221 2 -1 23
-1 45 2 l42 4 12 101 c6 56 14 110 16 120 3 9 4 16 2 15 -2 -1 -20 -3 -40 -5z"/>
<path d="M3124 3003 c-31 -4 -31 -5 -38 -71 -3 -37 -9 -91 -12 -119 l-7 -53
46 0 c51 0 49 -4 62 145 4 39 9 78 11 88 6 18 3 18 -62 10z"/>
<path d="M7435 2873 c104 -159 117 -173 178 -173 l29 0 -7 68 c-4 37 -11 74
-16 83 -5 10 -35 20 -89 28 -45 7 -89 15 -98 19 -14 5 -13 1 3 -25z"/>
<path d="M7733 2814 c3 -16 11 -69 17 -119 16 -124 13 -119 60 -95 22 11 40
26 40 33 -1 24 -27 187 -31 191 -2 2 -24 7 -48 11 l-43 7 5 -28z"/>
<path d="M7943 2784 c3 -11 9 -43 12 -72 7 -56 9 -57 65 -65 l35 -5 -9 69
c-10 72 -9 71 -74 84 -30 6 -33 5 -29 -11z"/>
<path d="M7093 2801 c3 -24 7 -44 9 -46 1 -1 29 -5 61 -7 l57 -5 0 38 c0 45
-5 49 -77 56 l-56 6 6 -42z"/>
</g>
</svg>
