<svg id="Capa_1" enable-background="new 0 0 512.097 512.097" height="512" viewBox="0 0 512.097 512.097" width="512" xmlns="http://www.w3.org/2000/svg"><g><g id="Make_up_1_"><g><path d="m120.048 240.112v-74.573c-13.859 9.357-29.075 14.559-45 14.559-15.807 0-31.014-5.27-45-14.808v74.822z"/><path d="m30.048 270.112v196.985c0 24.814 20.186 45 45 45s45-20.186 45-45v-196.985z"/></g><g><path d="m271.048 240.112v-64.391c-13.262 4.096-24.76 4.406-35.508 4.406l-20.728.044c-8.668 0-22.414-.295-33.765-4.587v64.528z"/><path d="m181.048 270.112v196.985c0 24.814 20.186 45 45 45s45-20.186 45-45v-196.985z"/></g><g><path d="m349.02 120.097h116.056l44.453-66.68c4.424-6.636 2.886-15.571-3.516-20.347-1.802-1.348-44.795-32.974-98.965-32.974s-97.163 31.626-98.965 32.974c-6.401 4.775-7.939 13.711-3.516 20.347z"/><path d="m362.048 150.097h90v90.015h-90z"/><path d="m362.048 270.112v196.985c0 24.814 20.186 45 45 45s45-20.186 45-45v-196.985z"/></g><g><path d="m214.812 150.17c-8.247 0-16.055-.352-23.188-2.534-25.576-9.053-25.576-34.263-25.576-42.539 0-35.64 21.182-105 60-105s60 69.36 60 105c0 8.276 0 33.486-24.99 42.334-9.287 2.856-18.97 2.71-29.282 2.695-23.257.067-15.223.044-16.964.044z"/></g></g><g><path d="m75.048 150.097c-14.312 0-28.462-7.031-40.942-20.347-19.409-20.713-34.058-57.1-34.058-84.653 0-13.682 3.867-24.448 11.499-32.021 13.389-13.316 33.999-13.286 55.972-13.008 3.021 0 18.153 0 15.132 0 21.943-.278 42.554-.322 55.913 12.949 7.617 7.573 11.484 18.369 11.484 32.08 0 28.917-16.133 66.141-34.058 84.961-12.275 13.111-26.44 20.039-40.942 20.039zm30-30.293h.293z"/></g></g></svg>