<svg id="Capa_1" enable-background="new 0 0 512 512" height="512" viewBox="0 0 512 512" width="512" xmlns="http://www.w3.org/2000/svg"><g><path d="m381.847 197.425c9.672 2.947 19.57 4.389 29.4 4.389 26.194-.001 51.87-10.252 71.228-29.611 30.173-30.173 38.093-76.315 19.707-114.819l-.704-1.474-45.195 45.195c-13.038 13.038-34.177 13.038-47.215 0-13.038-13.038-13.038-34.177 0-47.215l44.55-44.55-.715-.325c-38.858-17.664-84.867-8.859-114.484 21.912-13.176 13.689-22.158 30.805-25.976 49.498-3.067 15.012-2.709 30.463.993 45.208l-36.852 37.062 69.912 70.275z"/><path d="m130.152 314.575c-35.442-10.797-74.002-1.402-100.628 25.223-30.173 30.173-38.091 76.315-19.705 114.818l1.28 2.681 44.619-44.619c13.038-13.038 34.177-13.038 47.215 0 13.038 13.038 13.038 34.177 0 47.215l-43.318 43.318c13.208 5.915 27.22 8.79 41.13 8.789 26.901-.001 53.4-10.735 72.836-30.928 13.176-13.689 22.158-30.805 25.977-49.498 3.066-15.012 2.708-30.463-.994-45.208l36.731-36.941-69.912-70.275z"/><path d="m408.307 304.501c-10.044 0-19.905 1.428-29.431 4.255l-175.492-176.404c2.659-9.261 4.003-18.826 4.003-28.546 0-57.177-46.516-103.693-103.693-103.693-57.177 0-103.694 46.517-103.694 103.693s46.517 103.693 103.693 103.693c10.044 0 19.904-1.428 29.432-4.255l175.491 176.404c-2.66 9.263-4.003 18.826-4.003 28.547 0 57.177 46.516 103.693 103.693 103.693s103.694-46.517 103.694-103.694-46.516-103.693-103.693-103.693zm-304.614-157.827c-23.637 0-42.868-19.23-42.868-42.868 0-23.637 19.231-42.868 42.868-42.868s42.868 19.231 42.868 42.868c.001 23.638-19.23 42.868-42.868 42.868zm304.614 304.388c-23.637 0-42.868-19.23-42.868-42.868 0-23.637 19.231-42.868 42.868-42.868s42.868 19.231 42.868 42.868-19.231 42.868-42.868 42.868z"/></g></svg>