<svg id="Outline" height="512" viewBox="0 0 512 512" width="512" xmlns="http://www.w3.org/2000/svg"><g id="Mushroom"><path d="m465.30762 243.65869c-5.06962-182.50148-119.74057-232.3429-202.3584-148.41504-40.60156 41.25049-63.21191 101.35254-63.98922 105.42188-1.76856 9.33349 1.35644 23.69043 26.28222 39.08056 16.30542 10.06751 39.37915 19.12476 66.80335 26.25269 16.28432 30.36114-22.29725 78.34026-26.17664 85.28479a55.44991 55.44991 0 0 0 -64.03393 23.39807 80.43883 80.43883 0 0 0 -14.31787.46912c-2.86471-4.09626-33.20487-34.57575-25.18262-56.129 16.71509-6.39331 51.819-21.85291 59.11182-41.24194a18.3193 18.3193 0 0 0 -.90528-15.74659c-41.4375-76.92578-91.0791-93.90088-123.71875-84.13525-32.66894 9.78125-65.08789 51.12646-58.09961 137.83447a18.31073 18.31073 0 0 0 7.84961 13.73535c16.08908 11.81621 51.62532 6.69933 71.02149 2.67029 1.14148 26.25659 4.24731 56.757 15.81152 74.49463a78.67532 78.67532 0 0 0 -15.69531 47.4371 4.00019 4.00019 0 0 0 4 4h257.5a4.0002 4.0002 0 0 0 4-4 79.75653 79.75653 0 0 0 -37.84778-67.77026c9.87341-21.22888 13.02734-56.96155 9.61462-108.92725a351.07347 351.07347 0 0 0 35.15308 1.8938c24.99707-.00048 52.71484-3.314 66.65527-16.08447 5.86423-5.37207 8.73142-11.93994 8.52243-19.52295zm-29.77417-11.26758c0 6.0774-6.18335 10.8191-12.08545 10.8191-2.92785 0-10.54614-1.395-10.54614-14.578 0-8.12964 3.19629-11.10925 7.187-11.10925 6.46119.00004 15.44459 7.98986 15.44459 14.86815zm-38.21765-21.87719a9.60371 9.60371 0 0 1 -9.75207-9.44263c0-6.19885 6.24731-12.11646 12.40136-12.11646 5.84986 0 9.91651 5.705 9.91651 10.37305 0 6.20545-6.44751 11.18604-12.5658 11.18604zm2.95789 28.67041a18.28931 18.28931 0 0 1 -4.05369 11.48559 8.20743 8.20743 0 0 1 -6.24659 2.80347c-5.30883 0-10.76538-4.64868-10.76538-10.06763 0-7.27978 10.28321-12.33691 14.82117-12.33691 4.4278 0 6.24449 3.72558 6.24449 8.11548zm-218.24536 142.22583c3.8164 6.74316 3.1416 14.77636-1.80567 21.48877-4.7539 6.45214-14.37988 12.355-27.11328 9.58252-23.12634-5.02578-26.6777-58.60535-27.58984-82.12378 9.28662-2.22144 18.72217-4.96656 27.78979-8.07837-3.64852 26.03564 25.86128 54.04383 28.719 59.13086zm154.57422 4.53466c-9.9004 18.27979-24.63868 19.34815-43.71973 15.33057-24.0593-5.05752-29.84284-32.92093-18.36914-48.69971 14.69751-20.17285 36.4303-56.41333 27.25586-84.17382a433.01541 433.01541 0 0 0 45.12573 8.042c3.60498 53.41234.14873 90.25048-10.29272 109.50096z"/></g></svg>