<?xml version="1.0" encoding="iso-8859-1"?>
<!-- Generator: Adobe Illustrator 19.0.0, SVG Export Plug-In . SVG Version: 6.00 Build 0)  -->
<svg version="1.1" id="Capa_1" xmlns="http://www.w3.org/2000/svg" xmlns:xlink="http://www.w3.org/1999/xlink" x="0px" y="0px"
	 viewBox="0 0 426.667 426.667" style="enable-background:new 0 0 426.667 426.667;" xml:space="preserve">
<g>
	<g>
		<path d="M270.933,234.667L164.267,128l-128-128L0,34.133L93.867,128h-51.2C32,128,21.333,138.667,21.333,149.333v64
			c0,12.8,8.533,21.333,21.333,21.333H64l-34.133,121.6C25.6,369.067,36.267,384,51.2,384h83.2c8.533,0,17.067-6.4,21.333-14.933
			L192,234.667h6.4l192,192l36.267-36.267L270.933,234.667z"/>
	</g>
</g>
<g>
	<g>
		<polygon points="384,149.333 384,128 206.933,128 313.6,234.667 384,234.667 384,213.333 426.667,213.333 426.667,149.333 		"/>
	</g>
</g>
<g>
</g>
<g>
</g>
<g>
</g>
<g>
</g>
<g>
</g>
<g>
</g>
<g>
</g>
<g>
</g>
<g>
</g>
<g>
</g>
<g>
</g>
<g>
</g>
<g>
</g>
<g>
</g>
<g>
</g>
</svg>
