<svg id="Capa_1" enable-background="new 0 0 512 512" height="512" viewBox="0 0 512 512" width="512" xmlns="http://www.w3.org/2000/svg"><g><path d="m325.131 323.765h-138.262c-7.081-38.553-40.858-67.765-81.457-67.765-40.173 0-73.665 28.601-81.226 66.551-5.368-2.302-9.127-7.635-9.127-13.846v-7.529c-8.317 0-15.059-6.742-15.059-15.058 0-8.317 6.742-15.059 15.059-15.059v-128c0-8.317 6.742-15.059 15.059-15.059h37.647c0-8.317 6.742-15.059 15.059-15.059s15.058 6.742 15.058 15.059h90.353c0-8.317 6.742-15.059 15.059-15.059s15.059 6.742 15.059 15.059h105.381c5.005 0 9.682 2.487 12.482 6.635l41.254 61.13h89.354c16.634 0 30.118 13.484 30.118 30.118v45.176c8.317 0 15.059 6.742 15.059 15.059s-6.742 15.059-15.059 15.059v7.529c0 6.21-3.76 11.543-9.127 13.846-7.562-37.951-41.054-66.552-81.227-66.552-40.599 0-74.376 29.212-81.457 67.765zm-219.719 75.294c-33.267 0-60.235-26.968-60.235-60.235s26.968-60.235 60.235-60.235 60.235 26.968 60.235 60.235-26.968 60.235-60.235 60.235zm0-30.118c16.634 0 30.118-13.484 30.118-30.118s-13.484-30.118-30.118-30.118-30.118 13.484-30.118 30.118 13.484 30.118 30.118 30.118zm301.176 30.118c-33.267 0-60.235-26.968-60.235-60.235s26.968-60.235 60.235-60.235 60.235 26.968 60.235 60.235-26.968 60.235-60.235 60.235zm0-30.118c16.634 0 30.118-13.484 30.118-30.118s-13.484-30.118-30.118-30.118-30.118 13.484-30.118 30.118c.001 16.634 13.484 30.118 30.118 30.118z"/></g></svg>