<svg id="Capa_1" enable-background="new 0 0 512 512" height="512" viewBox="0 0 512 512" width="512" xmlns="http://www.w3.org/2000/svg"><g><path d="m495.056 388.048c-2.477-18.861-10.681-36.509-23.504-50.56-3.034-3.344-7.341-5.25-11.856-5.248h-117.52c-4.51.003-8.809 1.908-11.84 5.248-8.524 9.349-15.057 20.334-19.2 32.288-79.076-27.655-141.249-89.823-168.912-168.896 11.949-4.154 22.932-10.686 32.288-19.2 3.344-3.034 5.25-7.341 5.248-11.856v-117.536c.002-4.516-1.904-8.822-5.248-11.856-14.015-12.79-31.608-20.986-50.416-23.488-5.993-.895-12.063-1.168-18.112-.816-51.05 3.665-90.453 46.389-89.984 97.568 2.226 210.249 172.151 380.131 382.4 382.304h.64c50.933.129 93.271-39.196 96.896-90 .309-5.998.014-12.013-.88-17.952z"/><path d="m416 80h-128c-8.837 0-16 7.163-16 16s7.163 16 16 16h89.376l-132.688 132.688c-6.247 6.249-6.246 16.38.003 22.627 3 2.999 7.067 4.684 11.309 4.685 4.243-.001 8.312-1.687 11.312-4.688l132.688-132.688v89.376c0 8.836 7.163 16 16 16s16-7.164 16-16v-128c.035-.96.151-6.846-4.538-11.513-4.658-4.637-10.497-4.522-11.462-4.487z"/></g></svg>