<svg id="Capa_1" enable-background="new 0 0 512 512" height="512" viewBox="0 0 512 512" width="512" xmlns="http://www.w3.org/2000/svg"><g><path d="m481 46c0-24.814-20.186-46-45-46s-45 21.186-45 46 20.186 45 45 45 45-20.186 45-45z"/><path d="m436 91c-41.353 0-75 33.647-75 75 0 8.291 6.709 15 15 15h31.972l-24.159 36.235c9.311 3.986 17.714 9.721 24.699 17.034l35.515-53.269h52.973c8.291 0 15-6.709 15-15 0-41.353-34.647-75-76-75z"/><path d="m121 46c0-24.814-20.186-46-45-46s-45 21.186-45 46 20.186 45 45 45 45-20.186 45-45z"/><path d="m15 181h52.973l35.51 53.275c6.984-7.313 15.385-13.05 24.697-17.036l-24.156-36.239h31.976c8.291 0 15-6.709 15-15 0-41.353-33.647-75-75-75s-76 33.647-76 75c0 8.291 6.709 15 15 15z"/><path d="m301 46c0-24.814-20.186-46-45-46s-45 21.186-45 46 20.186 45 45 45 45-20.186 45-45z"/><path d="m196 181h45v30h30v-30h45c8.291 0 15-6.709 15-15 0-41.353-33.647-75-75-75s-75 33.647-75 75c0 8.291 6.709 15 15 15z"/><circle cx="106" cy="482" r="30"/><circle cx="406" cy="482" r="30"/><path d="m466 422c0-8.291 6.709-15 15-15h24.668c-11.581-26.468-38.928-45-69.668-45h-360c-41.422 0-76 33.578-76 75v30c0 8.284 6.716 15 15 15h31c0-33.091 26.909-60 60-60s60 26.909 60 60h180c0-33.091 26.909-60 60-60s60 26.909 60 60h31c8.284 0 15-6.716 15-15v-30h-31c-8.291 0-15-6.709-15-15z"/><path d="m271 332h145.811l-19.746-60.238c-6.138-18.399-23.292-30.762-42.686-30.762h-83.379z"/><path d="m114.936 271.762-19.747 60.238h145.811v-91h-83.379c-19.394 0-36.548 12.363-42.685 30.762z"/></g></svg>