<svg id="Capa_1" enable-background="new 0 0 512 512" height="512" viewBox="0 0 512 512" width="512" xmlns="http://www.w3.org/2000/svg"><g><g><path d="m326 120c-33.084 0-60-26.916-60-60s26.916-60 60-60 60 26.916 60 60-26.916 60-60 60z"/></g><path d="m480.157.012c-16.341.448-29.157 14.266-29.157 30.612v29.376c0 27.614-22.386 50-50 50h-.204c-16.165 24.103-43.658 40-74.796 40-23.497 0-44.915-9.055-60.961-23.854-29.464 18.596-49.039 51.437-49.039 88.854v90c0 19.33 15.67 35 35 35h15v157c0 8.284 6.716 15 15 15h37.5v-157c0-8.284 6.716-15 15-15s15 6.716 15 15v157h37.5c8.284 0 15-6.716 15-15v-327c60.751 0 110-49.249 110-110v-30c0-16.849-13.89-30.453-30.843-29.988z"/><path d="m126 110c-30.327 0-55-24.673-55-55s24.673-55 55-55 55 24.673 55 55-24.673 55-55 55z"/><g><path d="m190.731 110c-15.603 18.336-38.825 30-64.731 30-22.391 0-42.774-8.717-57.972-22.918-39.221 15.22-67.028 53.32-67.028 97.918v90c0 19.33 15.67 35 35 35h15v157c0 8.284 6.716 15 15 15h37.5v-157c0-8.284 6.716-15 15-15s15 6.716 15 15v157h37.5c8.284 0 15-6.716 15-15v-282c0-42.367 19.623-80.231 50.251-105z"/></g></g></svg>