<svg id="Capa_1" enable-background="new 0 0 512 512" height="512" viewBox="0 0 512 512" width="512" xmlns="http://www.w3.org/2000/svg"><g><path d="m279.034 130.922v-115.922c0-8.284-6.716-15-15-15s-15 6.716-15 15v114h-65v-33c0-8.284-6.716-15-15-15s-15 6.716-15 15v33h-35v-17c0-8.284-6.716-15-15-15s-15 6.716-15 15v18.922c-18.494 5.592-32 22.784-32 43.078v293c0 24.813 20.187 45 45 45h164c24.813 0 45-20.187 45-45v-293c0-20.294-13.507-37.486-32-43.078zm-63 316.078h-64c-8.284 0-15-6.716-15-15s6.716-15 15-15h64c8.284 0 15 6.716 15 15s-6.716 15-15 15zm16-64h-96c-8.284 0-15-6.716-15-15s6.716-15 15-15h96c8.284 0 15 6.716 15 15s-6.716 15-15 15zm15-111c0 8.284-6.716 15-15 15h-96c-8.284 0-15-6.716-15-15v-64c0-8.284 6.716-15 15-15h96c8.284 0 15 6.716 15 15z"/><path d="m151.034 223h66v34h-66z"/><path d="m367.895 200.139c-5.857-5.857-15.355-5.857-21.213 0-5.857 5.857-5.857 15.355 0 21.213 19.149 19.149 19.152 50.145 0 69.297-9.479 9.479-2.635 25.606 10.606 25.606 3.838 0 7.678-1.465 10.606-4.394 30.874-30.871 30.879-80.846.001-111.722z"/><path d="m413.15 154.884c-5.858-5.859-15.355-5.857-21.213 0s-5.858 15.355 0 21.213c44.058 44.059 44.058 115.748 0 159.807-5.858 5.857-5.858 15.355 0 21.213 5.859 5.859 15.355 5.858 21.213 0 55.755-55.757 55.755-146.477 0-202.233z"/></g></svg>