<?xml version="1.0" encoding="iso-8859-1"?>
<!-- Generator: Adobe Illustrator 19.0.0, SVG Export Plug-In . SVG Version: 6.00 Build 0)  -->
<svg version="1.1" id="Capa_1" xmlns="http://www.w3.org/2000/svg" xmlns:xlink="http://www.w3.org/1999/xlink" x="0px" y="0px"
	 viewBox="0 0 423.04 423.04" style="enable-background:new 0 0 423.04 423.04;" xml:space="preserve">
<g>
	<g>
		<path d="M179.52,42.453H21.653V423.04H64.32v-64c0.108-5.292,4.311-9.589,9.6-9.813h74.667c5.372,0.113,9.7,4.441,9.813,9.813v64
			h43.733V42.453H179.52z M74.987,312.747H45.76V295.04h29.227V312.747z M74.987,270.08H45.76v-18.773h29.227V270.08z
			 M74.987,227.413H45.76V208.64h29.227V227.413z M74.987,184.747H45.76V163.84h29.227V184.747z M74.987,142.08H45.76v-21.76h29.227
			V142.08z M74.987,99.413H45.76v-22.4h29.227V99.413z M131.093,312.747H92.907V295.04h38.187V312.747z M131.093,270.08H92.907
			v-18.773h38.187V270.08z M131.093,227.413H92.907V208.64h38.187V227.413z M131.093,184.747H92.907V163.84h38.187V184.747z
			 M131.093,142.08H92.907v-21.76h38.187V142.08z M131.093,99.413H92.907v-22.4h38.187V99.413z M148.8,316.587V295.04h29.013
			l0.427,21.547H148.8z M148.8,273.92v-18.773h29.013l0.427,18.773H148.8z M148.8,231.253V212.48h29.013l0.427,18.773H148.8z
			 M148.8,188.587V163.84h29.013l0.427,24.747H148.8z M148.8,145.92v-25.6h29.013l0.427,25.6H148.8z M148.8,103.253v-26.24h29.013
			l0.427,26.24H148.8z"/>
	</g>
</g>
<g>
	<g>
		<rect x="221.333" y="367.36" width="80.427" height="55.253"/>
	</g>
</g>
<g>
	<g>
		<rect x="321.173" y="367.36" width="80.213" height="55.253"/>
	</g>
</g>
<g>
	<g>
		<rect x="54.08" width="115.627" height="24.107"/>
	</g>
</g>
<g>
	<g>
		<rect x="84.8" y="367.36" width="54.4" height="55.253"/>
	</g>
</g>
<g>
	<g>
		<path d="M221.333,182.4v165.333h180.053V182.4H221.333z M245.653,312.747V295.04h28.587l0.213,17.707H245.653z M245.653,270.08
			v-18.773h28.587l0.213,18.773H245.653z M245.653,227.413V208.64h28.587l0.213,18.773H245.653z M330.347,314.24h-37.973v-19.2
			h37.973V314.24z M330.347,271.573h-37.973V252.8h37.973V271.573z M330.347,228.907h-37.973v-18.773h37.973V228.907z
			 M377.28,315.733h-29.013V295.04h29.227L377.28,315.733z M377.28,273.067h-29.013v-18.773h29.227L377.28,273.067z M377.28,230.4
			h-29.013v-18.773h29.227L377.28,230.4z"/>
	</g>
</g>
<g>
</g>
<g>
</g>
<g>
</g>
<g>
</g>
<g>
</g>
<g>
</g>
<g>
</g>
<g>
</g>
<g>
</g>
<g>
</g>
<g>
</g>
<g>
</g>
<g>
</g>
<g>
</g>
<g>
</g>
</svg>
