<?xml version="1.0" encoding="iso-8859-1"?>
<!-- Generator: Adobe Illustrator 21.0.0, SVG Export Plug-In . SVG Version: 6.00 Build 0)  -->
<svg xmlns="http://www.w3.org/2000/svg" xmlns:xlink="http://www.w3.org/1999/xlink" version="1.1" id="Capa_1" x="0px" y="0px" viewBox="0 0 512 512" style="enable-background:new 0 0 512 512;" xml:space="preserve" width="512" height="512">
<g>
	<path d="M199.219,210.008c2.242-2.936,3.364-6.7,3.364-11.292c0-4.698-1.282-8.435-3.844-11.212   c-2.563-2.776-5.341-4.165-8.33-4.165h-23.226v31.074h24.026C194.306,214.413,196.976,212.946,199.219,210.008z"/>
	<path d="M351.545,187.022c-1.176-1.282-2.51-2.215-4.004-2.803c-1.497-0.586-2.991-0.881-4.485-0.881h-20.503v31.074h21.464   c3.096,0,5.766-1.334,8.009-4.004c2.243-2.668,3.364-6.567,3.364-11.693c0-2.668-0.348-4.966-1.041-6.888   C353.652,189.905,352.719,188.304,351.545,187.022z"/>
	<rect x="24.261" y="436" width="463.479" height="76"/>
	<path d="M445.741,189.741C445.741,85.118,360.624,0,256,0S66.259,85.118,66.259,189.741V406h379.482V189.741z M248.232,160.272   h26.269v113.726h-26.269V160.272z M140.914,160.272h51.257c5.338,0,10.276,1.122,14.816,3.364c4.538,2.243,8.462,5.181,11.773,8.81   c3.309,3.631,5.899,7.743,7.769,12.333c1.867,4.593,2.803,9.238,2.803,13.936c0,3.524-0.428,6.915-1.282,10.171   c-0.856,3.259-2.082,6.327-3.684,9.21c-1.602,2.883-3.551,5.474-5.846,7.769c-2.298,2.297-4.885,4.245-7.769,5.847l24.987,42.287   h-29.633l-21.784-36.681h-17.139v36.681h-26.269V160.272z M371.5,334h-231v-30h231V334z M379.335,213.131   c-1.762,4.592-4.22,8.705-7.368,12.333c-3.151,3.631-6.968,6.515-11.453,8.649c-4.485,2.138-9.45,3.204-14.896,3.204h-23.065   v36.681h-26.269V160.272h48.534c5.446,0,10.437,1.122,14.977,3.364c4.538,2.243,8.435,5.181,11.693,8.81   c3.256,3.631,5.819,7.743,7.688,12.333c1.867,4.593,2.803,9.238,2.803,13.936C381.979,203.736,381.098,208.541,379.335,213.131z"/>
</g>















</svg>
