<svg id="Capa_1" enable-background="new 0 0 512 512" height="512" viewBox="0 0 512 512" width="512" xmlns="http://www.w3.org/2000/svg"><g><path d="m497 90h-45v-30h45c8.291 0 15-6.709 15-15s-6.709-15-15-15h-437v-15c0-8.291-6.709-15-15-15h-30c-8.291 0-15 6.709-15 15v482c0 8.291 6.709 15 15 15h30c8.291 0 15-6.709 15-15v-437h122v30h-45c-8.291 0-15 6.709-15 15v330c0 8.291 6.709 15 15 15h360c8.291 0 15-6.709 15-15v-330c0-8.291-6.709-15-15-15zm-285-30h210v30h-210zm235.605 235.605c-5.859 5.859-15.351 5.86-21.211 0l-4.394-4.394v83.789c0 8.291-6.709 15-15 15h-180c-8.291 0-15-6.709-15-15v-83.789l-4.395 4.395c-5.859 5.859-15.352 5.859-21.211 0s-5.859-15.352 0-21.211c3.009-3.009 123.009-123.009 120-120 5.859-5.859 15.352-5.859 21.211 0 3.83 3.83 124.22 124.22 120 120 5.86 5.859 5.86 15.351 0 21.21z"/><path d="m242 261.211v98.789h60v-45c0-8.291 6.709-15 15-15s15 6.709 15 15v45h60v-98.789l-75-75z"/></g></svg>