<svg id="Capa_1" enable-background="new 0 0 511.999 511.999" height="512" viewBox="0 0 511.999 511.999" width="512" xmlns="http://www.w3.org/2000/svg"><g><g><path d="m227.716 227.716c-15.621 15.621-15.621 40.948 0 56.569 38.865 36.092 92.656-17.72 56.568-56.569-15.621-15.621-40.947-15.621-56.568 0z"/><path d="m13.159 406.917c-17.545 17.545-17.545 46.094 0 63.64l28.284 28.284c17.545 17.545 46.094 17.545 63.64 0l10.607-10.607-91.924-91.924z"/><path d="m213.552 347.945-21.213 21.213 17.678 17.678c14.58 13.536 34.744-6.649 21.213-21.213z"/><path d="m134.675 327.827c-33.232 5.826-64.419 21.992-88.293 45.866l-1.404 1.404 35.355 35.355 17.677-17.677c14.58-13.536 34.744 6.649 21.213 21.213l-17.677 17.677 35.355 35.355 1.403-1.403c23.875-23.875 40.041-55.061 45.867-88.293l8.167-8.167-49.497-49.497z"/><path d="m498.841 41.443-28.284-28.284c-17.545-17.545-46.094-17.545-63.64 0l-10.607 10.607 91.924 91.924 10.607-10.607c17.545-17.545 17.545-46.094 0-63.64z"/><path d="m413.988 119.225c-14.58 13.536-34.744-6.649-21.213-21.213l17.678-17.678-35.355-35.355-1.404 1.404c-23.875 23.875-40.041 55.061-45.867 88.293l-8.166 8.166 49.497 49.497 8.166-8.166c33.232-5.826 64.419-21.992 88.293-45.867l1.404-1.404-35.355-35.355z"/><path d="m365.623 231.23c14.58 13.536 34.744-6.649 21.213-21.213l-17.678-17.678-21.213 21.213z"/><path d="m190.075 232.501c6.373-19.023 23.404-36.053 42.426-42.426l-18.928-18.928c-5.858-5.858-15.355-5.858-21.213 0l-21.213 21.213c-5.858 5.858-5.858 15.355 0 21.213z"/><path d="m188.413 274.09-24.358 24.358 49.497 49.497 24.358-24.358c-23.135-5.565-43.933-26.362-49.497-49.497z"/><path d="m274.09 188.413c23.136 5.565 43.933 26.362 49.497 49.497l24.358-24.358-49.497-49.497z"/></g></g></svg>