<svg height="409pt" viewBox="0 0 409.60256 409" width="409pt" xmlns="http://www.w3.org/2000/svg"><path d="m404.613281 368.746094-96.636719-96.695313c20.886719-28.320312 33.351563-63.207031 33.351563-101.089843 0-94.242188-76.378906-170.660157-170.664063-170.660157-94.25 0-170.664062 76.417969-170.664062 170.664063 0 94.269531 76.414062 170.667968 170.664062 170.667968 37.914063 0 72.785157-12.484374 101.105469-33.382812l96.679688 96.664062c6.636719 6.652344 17.5 6.652344 24.136719 0l12.039062-12.050781c6.640625-6.617187 6.640625-17.496093-.011719-24.117187zm-233.949219-300.179688c23.574219 0 42.664063 19.113282 42.664063 42.679688s-19.089844 42.648437-42.664063 42.648437c-23.566406.007813-42.664062-19.082031-42.664062-42.648437s19.097656-42.679688 42.664062-42.679688zm102.402344 192.515625c-25.003906 28.421875-61.558594 46.433594-102.402344 46.433594-40.824218 0-77.382812-18.015625-102.390624-46.449219v-21.835937c0-28.164063 23.035156-51.183594 51.191406-51.183594h102.398437c28.1875 0 51.203125 23.019531 51.203125 51.183594zm0 0"/></svg>