<svg id="svg6331" height="512" viewBox="0 0 32 32" width="512" xmlns="http://www.w3.org/2000/svg" xmlns:svg="http://www.w3.org/2000/svg"><g id="layer1"><path id="path1777" d="m16 2.00002c-7.7201 0-14 6.27986-14 14s6.2799 14 14 14a1.0001 1.0001 0 0 0 1-1v-8h11.3614a1.0001 1.0001 0 0 0 .9511-.68945c.453-1.39114.6847-2.84561.6875-4.3086a1.0001 1.0001 0 0 0 0-.002c0-7.72014-6.2798-14-14-14zm-1.9941 4.27539a1.9999999 1.9999999 0 0 1 1.8555 1.48047 1.9999999 1.9999999 0 0 1 -1.4141 2.44922 1.9999999 1.9999999 0 0 1 -2.4492-1.41406 1.9999999 1.9999999 0 0 1 1.414-2.44922 1.9999999 1.9999999 0 0 1 .5938-.0664zm6.041.79688a1.9999999 1.9999999 0 0 1 .9531.26757 1.9999999 1.9999999 0 0 1 .7325 2.73243 1.9999999 1.9999999 0 0 1 -2.7325.73242 1.9999999 1.9999999 0 0 1 -.7304-2.73242 1.9999999 1.9999999 0 0 1 1.6367-.99805 1.9999999 1.9999999 0 0 1 .1406-.002zm-10.9277 2.92968a1.9999999 1.9999999 0 0 1 .9531.26758 1.9999999 1.9999999 0 0 1 .7324 2.73047 1.9999999 1.9999999 0 0 1 -2.7324.73242 1.9999999 1.9999999 0 0 1 -.7324-2.73242 1.9999999 1.9999999 0 0 1 1.6387-.99609 1.9999999 1.9999999 0 0 1 .1406-.002zm14.6855 1.92969a1.9999999 1.9999999 0 0 1 1.8555 1.48047 1.9999999 1.9999999 0 0 1 -1.4141 2.44922 1.9999999 1.9999999 0 0 1 -2.4492-1.41406 1.9999999 1.9999999 0 0 1 1.4141-2.44922 1.9999999 1.9999999 0 0 1 .5937-.0664z" font-variant-ligatures="normal" font-variant-position="normal" font-variant-caps="normal" font-variant-numeric="normal" font-variant-alternates="normal" font-feature-settings="normal" text-indent="0" text-align="start" text-decoration-line="none" text-decoration-style="solid" text-decoration-color="rgb(0,0,0)" text-transform="none" text-orientation="mixed" white-space="normal" shape-padding="0" isolation="auto" mix-blend-mode="normal" solid-color="rgb(0,0,0)" solid-opacity="1" vector-effect="none" paint-order="normal"/></g></svg>