<svg id="Capa_1" enable-background="new 0 0 512 512" height="512" viewBox="0 0 512 512" width="512" xmlns="http://www.w3.org/2000/svg"><g><path d="m406 92h-45v-77c0-8.284-6.716-15-15-15s-15 6.716-15 15v77h-150v-77c0-8.284-6.716-15-15-15s-15 6.716-15 15v77h-45c-8.28 0-15 6.72-15 15v60c0 8.28 6.72 15 15 15h15v75c0 69.63 52.98 127.11 120.75 134.25h.002c7.142 67.766 64.621 120.75 134.248 120.75 8.284 0 15-6.716 15-15s-6.716-15-15-15c-53.13 0-97.163-39.667-104.056-90.939h.006c66.95-7.911 119.05-65.021 119.05-134.061v-75h15c8.28 0 15-6.72 15-15v-60c0-8.28-6.72-15-15-15zm-109.39 175.61-30 30c-13.91 13.91-35.27-7.16-21.22-21.22l15.29-15.28-41.39-20.69c-9.14-4.58-11.13-16.79-3.9-24.03l30-30c14.02-14.02 35.26 7.17 21.22 21.22l-15.29 15.28 41.39 20.69c9.14 4.58 11.13 16.79 3.9 24.03z"/></g></svg>