<svg id="Layer_1" height="512" viewBox="0 0 100 100" width="512" xmlns="http://www.w3.org/2000/svg"><path d="m43.016 43.62c3.842.025 8.436.055 12.21.055 3.088 0 5.155-.02 6.299-.061l.924-4.992c-1.398-.093-3.227-.144-5.417-.144-4.771 0-10.041.23-11.391.429-1.073.158-1.683.595-2.454 1.147-.738.529-1.574 1.129-2.957 1.544-1.572.472-3.318 1.374-4.247 1.988.149 0 .313-.001.494-.001 1.402.002 3.776.018 6.539.035z"/><path d="m61.97 44.598c-1.044.052-3.25.078-6.743.078-3.776 0-8.373-.03-12.217-.055-3.832-.024-6.925-.044-7.674-.025-3.665 1.429-2.057 9.8-1.054 13.173 1.649.404 13.205-.158 18.843-.434 2.409-.117 4.149-.201 4.692-.201l.46.004c.201.004.406.01.46-.01.035-.031.154-.23.27-.426.355-.594 1.016-1.701 2.688-3.719 3.173-3.83 1.594-7.459 1.068-8.432-.254.017-.517.032-.793.047zm-.973 2.504h-3.856v-1h3.856z"/><path d="m64.811 38.901c-.332-.076-.797-.141-1.36-.197l-.899 4.859c3.387-.215 4.833-.723 9.06-2.212l.338-.119c-.801-.544-3.581-1.519-7.139-2.331z"/><path d="m3.834 54.582c-.101.059-.312.623-.114 1.521.195.885.615 1.311.751 1.33.109-.068.316-.631.12-1.521-.197-.898-.627-1.322-.757-1.33z"/><path d="m95.079 45.043c-.003 0-.006 0-.008 0 .443 1.263.975 1.66 2.134 1.668h.004c.216 0 .476-.096.691-.196-.1-.256-.191-.5-.274-.736-1.034-.431-2.099-.736-2.547-.736z"/><path d="m5.216 49.219c.007-.179.014-.354.031-.524-.647.043-2.287.592-3.685 1.18-.332.553-.58 1.168-.511 2.11.521-.168 1.399-.436 2.701-.789 1.403-.383 1.429-1.051 1.464-1.977z"/><path d="m78.007 47.973c2.174.008 3.769.412 4.968 1.045 1.815.248 6.787.733 8.262.04.713-.334 2.123-2.28 2.938-3.561-.028-.077-.06-.145-.087-.226-.177-.53.044-.834.19-.969.527-.479 1.809-.18 3.035.276-.065-.503-.014-.965.252-1.396.325-.529.364-.958.288-1.095-.032-.057-.138-.069-.22-.069-.128 0-.357.031-.721.176-2.976 1.191-5.696 1.473-7.989.829-.993-.279-2.551-.899-4.354-1.617-3.484-1.386-8.256-3.284-11.921-3.875-5.625-.907-13.218-1.418-19.944-1.347l-.346-.002c-2.724 0-6.216.291-7.847 1.106-.629.314-1.548.852-2.613 1.474-3.25 1.899-7.701 4.5-10.378 4.641-.718.038-1.675.075-2.78.119-4.148.164-10.416.41-13.662 1.045-5.136 1.005-12.116 3.032-12.638 3.876-.001.003-.003.005-.004.008 1.928-.723 3.141-.917 3.588-.557.21.168.3.427.247.708-.039.205-.045.427-.054.655-.035.927-.089 2.327-2.2 2.903-1.413.385-2.331.67-2.811.824.42 2.303.646 3.92.262 4.977-.089.244-.192.459-.285.65-.076.153-.177.36-.183.438h.001c.014 0 .097.07.355.17l.168.064c1.009.391 4.078 1.582 5.859 1.582.433 0 .754-.076.882-.211.025-.027.093-.098.082-.311-.037-.705-.265-6.988 3.021-10.54 1.339-1.447 3.067-2.207 5.135-2.259 9.333-.232 9.696 6.568 9.908 10.193.05.852.118 2.018.324 2.191.993.229 15.608.75 27.911.75 10.733 0 13.163-.408 13.71-.6l.005-.125c.368-9.9 5.449-11.98 9.646-11.98zm-72.65 9.943c-.169.266-.402.438-.673.496-.066.014-.137.021-.208.021-.746 0-1.458-.869-1.732-2.115-.194-.881-.116-1.711.21-2.219.169-.266.402-.438.673-.496.772-.172 1.641.73 1.941 2.094.194.881.115 1.711-.211 2.219zm58.464-13.454c.688 1.521 1.841 5.3-1.356 9.159-1.623 1.957-2.258 3.021-2.599 3.594-.506.848-.676.957-1.607.922l-.441-.004c-.519 0-2.339.088-4.645.201-8.264.402-13.049.568-15.833.568-3.497 0-3.837-.262-3.957-.65-.151-.49-3.494-11.584 1.002-14.3.092-1.156 4.244-2.916 5.558-3.31 1.223-.367 1.954-.891 2.662-1.398.811-.582 1.577-1.131 2.891-1.324 1.384-.204 6.725-.44 11.537-.44 2.756 0 6.38.078 8.001.447 2.992.682 8.022 2.024 8.098 3.344.013.222-.065.628-.734.863l-.454.16c-3.706 1.305-5.378 1.891-8.123 2.168z"/><path d="m98.767 49.152c-.144-.619-.328-1.17-.518-1.693-.295.13-.671.252-1.04.252-.004 0-.008 0-.011 0-1.152-.008-1.936-.372-2.501-1.181-.717 1.075-2.087 2.989-3.036 3.435-.728.342-1.995.454-3.349.454-1.304 0-2.676-.104-3.737-.209 1.504 1.563 1.905 3.65 2.214 5.285.254 1.346.473 2.508 1.14 2.842.745.373 2.036.586 3.544.586 3.229 0 6.405-.941 6.664-1.975.443-1.772 1.267-5.073.63-7.796z"/><circle cx="17.629" cy="57.123" r="6.699"/><circle cx="77.979" cy="57.123" r="6.699"/></svg>