<svg id="_5_Classic_Car" height="512" viewBox="0 0 512 512" width="512" xmlns="http://www.w3.org/2000/svg"><path d="m496 256h8l3.31-3.31c3-3 4.69-7.07 4.69-11.31v-9.37c0-8.84-7.16-16-16-16h-167.13l-26.49-42.38c-8.46-13.54-23.04-21.62-39.01-21.62h-23.37c-4.93 0-9.58 2.27-12.61 6.15s-4.11 8.95-2.91 13.73l11.03 44.12h-51.51c-19.7 0-38.28-2.92-59.79-6.29-29-4.55-61.88-9.71-108.21-9.71-5.54 0-10.7 2.87-13.61 7.59-2.92 4.72-3.18 10.61-.7 15.57l11.69 16.84h10.62c8.84 0 16 7.16 16 16s-7.16 16-16 16h-11.78l-3.38 1.69c-5.42 2.71-8.84 8.25-8.84 14.31v24c0 8.84 7.16 16 16 16h77.41c9 18.9 28.29 32 50.59 32s41.58-13.1 50.59-32h154.83c9 18.9 28.29 32 50.59 32s41.58-13.1 50.59-32h45.41c8.84 0 16-7.16 16-16v-8c0-4.24-1.69-8.31-4.69-11.31l-3.31-4.69h-8c-8.84 0-16-7.16-16-16s7.16-16 16-16zm-352 72c-13.23 0-24-10.77-24-24s10.77-24 24-24 24 10.77 24 24-10.77 24-24 24zm124.49-112-8-32h2.88c4.86 0 9.3 2.46 11.87 6.58l15.89 25.42zm131.51 112c-13.23 0-24-10.77-24-24s10.77-24 24-24 24 10.77 24 24-10.77 24-24 24z"/></svg>