<svg xmlns="http://www.w3.org/2000/svg" viewBox="0 0 2391 2390">
  <path d="M 1225 1565 l -825 -825 l 170 -170 c 93 -93 174 -170 179 -170 c 13 0 1633 1619 1641 1639 c 14 37 -162 239 -275 314 c -30 20 -57 37 -60 37 c -3 0 -376 -371 -830 -825 z M 231 611 c -101 -102 -117 -121 -108 -137 c 16 -30 357 -364 371 -364 c 16 0 213 192 231 225 c 14 25 11 29 -170 210 c -102 102 -189 185 -195 185 c -6 0 -64 -53 -129 -119 z M 55 375 l -55 -55 l 160 -160 l 160 -160 l 57 57 l 58 58 l -157 157 c -87 87 -160 158 -163 158 c -3 0 -30 -25 -60 -55 z" fill="#000000"/>
</svg>