<svg id="Capa_1" enable-background="new 0 0 611.805 611.805" height="512" viewBox="0 0 611.805 611.805" width="512" xmlns="http://www.w3.org/2000/svg"><g><path clip-rule="evenodd" d="m85.524 406.181c-.793-1.785 10.863 22.693 14.731 32.364 25.146 62.866 21.941 54.372 24.308 67.388.942 5.183 1.397 10.294 1.397 15.9v71.977c0 9.938 8.056 17.994 17.994 17.994h323.897c9.938 0 17.994-8.056 17.994-17.994v-71.977c0-5.606.454-10.717 1.397-15.9 2.367-13.017-.839-4.523 24.308-67.388 3.868-9.671 15.524-34.149 14.731-32.364 9.367-21.076 12.848-42.283 13.449-91.759 13.168-.732 33.591-2.277 43.364-4.449 9.017-2.004 15.189-4.182 18.764-5.97 6.096-3.048 9.947-9.279 9.947-16.095v-161.948c0-6.816-3.851-13.047-9.947-16.095-1.055-.507-1.055-.507-1.718-.81-1.133-.514-2.434-1.071-3.894-1.66-4.033-1.625-8.631-3.229-13.747-4.714-34.693-10.072-73.513-10.072-112.74 6.739-42.246 18.106-55.892 5.7-55.892-37.443v-53.983c.001-9.938-8.055-17.994-17.993-17.994h-179.943c-9.938 0-17.994 8.056-17.994 17.994v53.983c0 43.143-13.646 55.549-55.892 37.443-39.227-16.811-78.047-16.811-112.74-6.739-8.855 2.571-15.434 5.222-19.359 7.184-6.095 3.048-9.946 9.279-9.946 16.095v152.951c0 4.773 1.896 9.349 5.27 12.724 1.256 1.179 1.256 1.179 1.943 1.77 1.128.957 2.432 1.969 3.918 3.018 3.938 2.78 8.653 5.474 14.174 7.928 10.742 4.774 32.313 8.13 46.764 9.643.587 49.783 4.062 71.051 13.455 92.187zm220.379 169.636c-9.938 0-17.994-8.056-17.994-17.994s8.056-17.994 17.994-17.994 17.994 8.056 17.994 17.994-8.056 17.994-17.994 17.994zm116.962-206.935c-9.938 0-17.994-8.056-17.994-17.994s8.056-17.994 17.994-17.994 17.994 8.056 17.994 17.994c.001 9.938-8.056 17.994-17.994 17.994zm-233.925 0c-9.938 0-17.994-8.056-17.994-17.994s8.056-17.994 17.994-17.994 17.994 8.056 17.994 17.994-8.056 17.994-17.994 17.994z" fill-rule="evenodd"/></g></svg>