<?xml version="1.0" encoding="iso-8859-1"?>
<!-- Generator: Adobe Illustrator 19.0.0, SVG Export Plug-In . SVG Version: 6.00 Build 0)  -->
<svg version="1.1" id="Layer_1" xmlns="http://www.w3.org/2000/svg" xmlns:xlink="http://www.w3.org/1999/xlink" x="0px" y="0px"
	 viewBox="0 0 511.998 511.998" style="enable-background:new 0 0 511.998 511.998;" xml:space="preserve">
<g>
	<g>
		<path d="M450.431,178.985h-43.012V101.6c0-3.721-3.016-6.738-6.738-6.738h-20.354c-3.721,0-6.738,3.016-6.738,6.738v77.386h-21.88
			v-37.758c0-3.58-2.902-6.482-6.482-6.482h-20.865c-3.58,0-6.482,2.903-6.482,6.482v37.758h-30.235l-14.92-134.339
			c-1.246-11.221-10.701-19.683-21.991-19.683H106.751c-12.201,0-22.127,9.926-22.127,22.126v187.92
			c4.865-8.768,14.192-14.606,24.733-14.606c10.947,0,19.17,0,29.481,0c9.278,0,17.512,4.502,22.67,11.425
			c2.188,2.936,3.833,6.3,4.752,9.953c4.667,1.621,9.234,3.51,13.687,5.664c4.343-2.609,9.324-4.001,14.521-4.001
			c7.552,0,14.652,2.94,19.991,8.281l20.849,20.849c8.04,8.043,10.663,20.591,5.799,31.513h96.381l3.933-3.934
			c8.261-8.266,20.437-9.693,29.984-5.002c2.389-1.096,4.818-2.099,7.283-3.011c3.524-10.267,13.274-17.666,24.721-17.666h23.058
			c11.447,0,21.199,7.399,24.723,17.667c2.465,0.91,4.893,1.914,7.282,3.01c3.607-1.772,7.604-2.72,12.029-2.629v-93.466
			C470.503,187.971,461.516,178.985,450.431,178.985z M263.133,180.987c-7.193-7.14-11.508-11.425-18.705-18.566
			c11.323-11.004,8.758-8.51,15.022-14.598L263.133,180.987z M109.203,206.192V174.1l7.71,31.544
			C114.326,205.763,111.757,205.949,109.203,206.192z M132.238,130.493l2.561,44.803l-7.921-32.406
			c-1.612-6.594-8.268-10.628-14.856-9.02c-1.005,0.245-1.942,0.62-2.817,1.082v-85.41h139.334l9.832,88.549
			c-2.329-1.388-5.378-1.129-7.415,0.851c-3.165,3.075-5.31,5.16-8.42,8.182c-2.327-3.162-6.342-4.88-10.442-4.054l-35.361,7.086
			l-23.876-23.93l18.664,10.879l-0.57-9.969c-0.49-8.571-7.835-15.122-16.407-14.632l-27.675,1.582
			C138.299,114.576,131.748,121.922,132.238,130.493z M199.495,224.687c0.725-1.567,1.141-3.306,1.141-5.146
			c0-2.386-0.692-4.606-1.868-6.492l7.508,0.869l23.242,32.097C220.41,237.795,210.345,230.619,199.495,224.687z M258.638,262.279
			c4.562-4.241,5.359-11.312,1.612-16.486l-36.936-51.007c-2.057-2.84-5.21-4.686-8.694-5.09l-20.228-2.341l-0.273-4.777
			c-7.255,1.453-12.711-1.448-15.579-6.374l-20.446-35.251l27.826,27.887c2.475,2.48,6.024,3.544,9.428,2.858l27.587-5.528
			l-8.233,8.001c-2.432,2.365-2.43,6.314-0.123,8.687c2.365,2.434,6.255,2.49,8.689,0.125l12.328-11.765l29.699,29.227l6.866,61.833
			H258.638z M324.021,245.348c0,3.393-2.751,6.144-6.144,6.144s-6.144-2.751-6.144-6.144v-36.092c0-3.393,2.751-6.144,6.144-6.144
			s6.144,2.751,6.144,6.144V245.348z M348.599,245.349c0,3.393-2.751,6.144-6.144,6.144s-6.144-2.751-6.144-6.144v-36.092
			c0-3.393,2.751-6.144,6.144-6.144s6.144,2.751,6.144,6.144V245.349z M373.177,245.348c0,3.393-2.751,6.144-6.144,6.144
			s-6.144-2.751-6.144-6.144v-36.092c0-3.393,2.751-6.144,6.144-6.144s6.144,2.751,6.144,6.144V245.348z"/>
	</g>
</g>
<g>
	<g>
		<path d="M317.852,330.552H260.42c3.879,4.84,6.209,10.973,6.209,17.644c0,34,0.022,28.97-0.051,30.694h32.867
			c0-12.287,7.623-21.659,17.532-25.122c0.937-2.522,1.97-5.005,3.1-7.448C317.693,341.388,316.957,335.857,317.852,330.552z"/>
	</g>
</g>
<g>
	<g>
		<circle cx="161.534" cy="78.753" r="23.011"/>
	</g>
</g>
<g>
	<g>
		<path d="M238.357,338.358h-7.025c-3.542-17.71-13.536-32.687-14.094-33.803c3.354-3.354,2.433-2.433,5.033-5.033
			c3.847-3.847,3.836-10.076,0-13.912c-18.625-18.625-15.208-15.206-20.846-20.846c-3.819-3.819-10.025-3.863-13.912,0l-5.089,5.089
			c-0.003-0.002-0.007-0.004-0.011-0.007c-10.087-6.317-21.475-11.158-33.736-13.955v-7.214c0-5.328-4.334-9.839-9.838-9.839
			h-29.481c-0.052,0-0.103,0.007-0.154,0.008c-5.387,0.084-9.684,4.465-9.684,9.83v7.214c-11.841,2.961-22.364,6.832-33.747,13.961
			l-5.089-5.089c-3.812-3.813-10.054-3.856-13.912,0c-2.567,2.567,0.637-0.637-20.846,20.846c-3.85,3.852-3.831,10.082,0,13.912
			l5.033,5.033c-6.709,10.636-11.398,22.109-14.094,33.803H9.838c-5.295,0-9.838,4.29-9.838,9.838v29.481
			c0,5.434,4.405,9.838,9.838,9.838h6.922c0,1.115,3.861,17.775,14.014,33.986c-4.012,4.012-2.837,2.838-4.849,4.849
			c-3.823,3.824-3.85,10.063,0,13.912l20.846,20.847c3.895,3.895,10.135,3.778,13.912,0c3.69-3.69,2.865-2.865,4.793-4.793
			c1.115,0.558,14.019,9.578,34.044,14.147v6.733c0,5.434,4.404,9.838,9.838,9.838h29.481c5.432,0,9.838-4.404,9.838-9.838v-6.733
			c18.847-4.301,30.529-12.139,34.043-14.147c1.402,1.402,0.437,0.436,4.793,4.793c3.816,3.816,10.066,3.846,13.912,0l20.846-20.847
			c3.842-3.841,3.841-10.071,0-13.912c-2.781-2.781-1.733-1.733-4.849-4.848c7.247-11.573,11.037-22.077,14.014-33.987h6.922
			c5.432,0,9.838-4.403,9.838-9.838v-29.481C248.194,342.763,243.792,338.358,238.357,338.358z M124.097,427.426
			c-35.381,0-64.25-28.696-64.25-64.25c0-35.485,28.766-64.25,64.25-64.25c35.485,0,64.25,28.766,64.25,64.25
			C188.347,398.565,159.636,427.426,124.097,427.426z"/>
	</g>
</g>
<g>
	<g>
		<circle cx="124.098" cy="363.18" r="23.353"/>
	</g>
</g>
<g>
	<g>
		<circle cx="414.94" cy="390.164" r="18.265"/>
	</g>
</g>
<g>
	<g>
		<path d="M504.305,370.749h-5.523c-2.211-9.589-5.999-18.483-11.009-26.426c2.382-2.382,1.5-1.5,3.949-3.949
			c3.007-3.008,2.997-7.882,0-10.882l-16.306-16.306c-3.002-3.002-7.875-3.004-10.879,0c0,0-0.001,0-0.001,0.001l-3.991,3.991
			c-7.904-4.951-16.844-8.728-26.381-10.905c-0.001,0-0.002,0-0.002-0.001c0-1.344,0-1.853,0-2.026c0-0.066,0-0.086,0-0.081
			c0-0.227,0-1.037,0-3.56c0-4.126-3.353-7.695-7.695-7.695h-23.058c-4.249,0-7.695,3.445-7.695,7.695v5.667
			c-9.591,2.19-18.513,5.977-26.385,10.905l-3.991-3.991c-3.04-3.04-7.914-2.966-10.882,0l-16.305,16.305
			c-2.991,2.993-3.017,7.863,0,10.882c2.45,2.45,1.566,1.566,3.949,3.949c-5.02,7.961-8.801,16.854-11.009,26.426h-5.522
			c-4.267,0-7.695,3.47-7.695,7.695v23.058c0,4.192,3.411,7.695,7.695,7.695h5.436c3.062,13.557,9.833,25.457,10.949,26.572
			l-3.803,3.803c-3.017,3.017-2.985,7.897,0,10.882c12.567,12.568,3.843,3.843,16.305,16.305c3.003,3.003,7.876,3.004,10.882,0
			c1.571-1.571,0.867-0.867,3.761-3.761c2.53,1.518,12.008,7.719,26.613,11.052v5.291c0,4.276,3.478,7.695,7.695,7.695h23.058
			c4.248,0,7.695-3.444,7.695-7.695v-5.291c10.54-2.406,21.305-7.337,26.613-11.052c0.185,0.184,3.577,3.577,3.761,3.761
			c3.003,3.003,7.878,3.004,10.882,0c12.458-12.459,3.763-3.763,16.305-16.305c2.997-2.997,3.011-7.87,0-10.882l-3.803-3.803
			c1.115-1.115,7.886-13.016,10.949-26.572h5.436c4.292,0,7.695-3.514,7.695-7.695c0-4.239,0-21.017,0-23.058
			C512,374.192,508.554,370.749,504.305,370.749z M414.938,440.412c-27.817,0-50.253-22.596-50.253-50.253
			c0-27.753,22.498-50.253,50.253-50.253c27.753,0,50.253,22.499,50.253,50.253C465.191,418.104,442.495,440.412,414.938,440.412z"
			/>
	</g>
</g>
<g>
</g>
<g>
</g>
<g>
</g>
<g>
</g>
<g>
</g>
<g>
</g>
<g>
</g>
<g>
</g>
<g>
</g>
<g>
</g>
<g>
</g>
<g>
</g>
<g>
</g>
<g>
</g>
<g>
</g>
</svg>
