<?xml version="1.0" encoding="UTF-8"?>
<svg xmlns:dc="http://purl.org/dc/elements/1.1/" xmlns:cc="http://creativecommons.org/ns#" xmlns:rdf="http://www.w3.org/1999/02/22-rdf-syntax-ns#" xmlns:svg="http://www.w3.org/2000/svg" xmlns="http://www.w3.org/2000/svg" xmlns:sodipodi="http://sodipodi.sourceforge.net/DTD/sodipodi-0.dtd" xmlns:inkscape="http://www.inkscape.org/namespaces/inkscape" width="512" height="512" viewBox="0 0 8.4666659 8.4666659" version="1.1" id="svg8" inkscape:version="1.0.2-2 (e86c870879, 2021-01-15)" sodipodi:docname="E-Commerce [Glyph]_12.svg"><defs id="defs2"/><metadata id="metadata5"/><g inkscape:groupmode="layer" id="layer2" inkscape:label="Icon" style="display:inline"><path id="rect1364" style="color:rgb(0,0,0);font-style:normal;font-variant:normal;font-weight:normal;font-stretch:normal;font-size:medium;line-height:normal;font-family:sans-serif;font-variant-ligatures:normal;font-variant-position:normal;font-variant-caps:normal;font-variant-numeric:normal;font-variant-alternates:normal;font-variant-east-asian:normal;font-feature-settings:normal;font-variation-settings:normal;text-indent:0;text-align:start;text-decoration:none;text-decoration-line:none;text-decoration-style:solid;text-decoration-color:rgb(0,0,0);letter-spacing:normal;word-spacing:normal;text-transform:none;writing-mode:lr-tb;direction:ltr;text-orientation:mixed;dominant-baseline:auto;baseline-shift:baseline;text-anchor:start;white-space:normal;shape-padding:0;shape-margin:0;inline-size:0;clip-rule:nonzero;display:inline;overflow:visible;visibility:visible;isolation:auto;mix-blend-mode:normal;color-interpolation:sRGB;color-interpolation-filters:linearRGB;solid-color:rgb(0,0,0);solid-opacity:1;vector-effect:none;fill:rgb(0,0,0);fill-opacity:1;fill-rule:nonzero;stroke:none;stroke-width:0.529166;stroke-linecap:round;stroke-linejoin:round;stroke-miterlimit:4;stroke-dasharray:none;stroke-dashoffset:0;stroke-opacity:1;color-rendering:auto;image-rendering:auto;shape-rendering:auto;text-rendering:auto;enable-background:accumulate;stop-color:rgb(0,0,0)" d="m 1.3568095,2.0470396 c -0.1959053,0 -0.35851793,0.1618639 -0.35851793,0.3580301 V 3.0255254 H 1.5841148 A 0.18116713,0.18116713 0 0 1 1.7660565,3.207467 0.18116713,0.18116713 0 0 1 1.5841148,3.3894088 H 0.99829157 V 3.9859632 H 2.5069935 A 0.18116713,0.18116713 0 0 1 2.6889354,4.1649783 0.18116713,0.18116713 0 0 1 2.5069935,4.3469199 H 0.99829157 V 4.9434743 H 1.5841148 A 0.18116713,0.18116713 0 0 1 1.7660565,5.1254161 0.18116713,0.18116713 0 0 1 1.5841148,5.3044312 H 0.99829157 v 0.2594985 c 0,0.196166 0.16261193,0.358518 0.35851793,0.358518 H 1.9811672 C 1.9677885,5.8707631 1.9587293,5.817628 1.9587293,5.7619683 c 0,-0.3569046 0.2926455,-0.6472834 0.6497223,-0.6472834 0.3570766,0 0.6526491,0.2903788 0.6526491,0.6472834 0,0.055698 -0.00942,0.1087627 -0.022926,0.1604794 H 5.7634095 V 2.0470396 Z M 0.99829157,5.3044312 V 4.9434743 H 0.19589429 A 0.18116713,0.18116713 0 0 0 0.01395253,5.1254161 0.18116713,0.18116713 0 0 0 0.19589429,5.3044312 Z m 0,-0.9575113 V 3.9859632 H 0.63977365 A 0.18116713,0.18116713 0 0 0 0.45783187,4.1649783 0.18116713,0.18116713 0 0 0 0.63977365,4.3469199 Z m 0,-0.9575111 V 3.0255254 H 0.19589429 A 0.18116713,0.18116713 0 0 0 0.01395253,3.207467 0.18116713,0.18116713 0 0 0 0.19589429,3.3894088 Z"/><path id="rect1366" style="color:rgb(0,0,0);font-style:normal;font-variant:normal;font-weight:normal;font-stretch:normal;font-size:medium;line-height:normal;font-family:sans-serif;font-variant-ligatures:normal;font-variant-position:normal;font-variant-caps:normal;font-variant-numeric:normal;font-variant-alternates:normal;font-variant-east-asian:normal;font-feature-settings:normal;font-variation-settings:normal;text-indent:0;text-align:start;text-decoration:none;text-decoration-line:none;text-decoration-style:solid;text-decoration-color:rgb(0,0,0);letter-spacing:normal;word-spacing:normal;text-transform:none;writing-mode:lr-tb;direction:ltr;text-orientation:mixed;dominant-baseline:auto;baseline-shift:baseline;text-anchor:start;white-space:normal;shape-padding:0;shape-margin:0;inline-size:0;clip-rule:nonzero;display:inline;overflow:visible;visibility:visible;isolation:auto;mix-blend-mode:normal;color-interpolation:sRGB;color-interpolation-filters:linearRGB;solid-color:rgb(0,0,0);solid-opacity:1;vector-effect:none;fill:rgb(0,0,0);fill-opacity:1;fill-rule:nonzero;stroke:none;stroke-width:0.529167;stroke-linecap:round;stroke-linejoin:round;stroke-miterlimit:4;stroke-dasharray:none;stroke-dashoffset:0;stroke-opacity:1;color-rendering:auto;image-rendering:auto;shape-rendering:auto;text-rendering:auto;enable-background:accumulate;stop-color:rgb(0,0,0)" d="m 5.9255613,2.7702517 c 0.00587,0.6887053 0.02634,3.1575615 0.02634,3.1575615 0.1095057,0 0.2936206,-0.00128 0.4082714,-0.00146 -0.016075,-0.056297 -0.027316,-0.1143922 -0.027316,-0.1756005 0,-0.3569047 0.2926456,-0.6472835 0.6497224,-0.6472835 0.3570769,0 0.6502099,0.2903788 0.6502099,0.6472835 0,0.059806 -0.010969,0.1165568 -0.02634,0.1716983 h 0.555093 c 0.085835,0 0.1627961,-0.042183 0.2112085,-0.09902 0.048395,-0.056816 0.07463,-0.1282024 0.07463,-0.2034041 V 4.154247 C 8.4474589,4.109915 8.4313895,4.067459 8.4020175,4.0342532 L 7.3215863,2.8304136 C 7.2872431,2.792897 7.2387966,2.7718543 7.1879345,2.7718798 6.8234558,2.7622746 6.1548989,2.7528233 5.9255613,2.7702517 Z M 6.6767416,3.2299049 H 7.14501 c 0.052209,-1.054e-4 0.1020956,0.022258 0.1365781,0.061459 L 7.8000979,3.887918 c 0.027799,0.032897 0.043101,0.074486 0.042924,0.1175551 V 4.5000825 C 7.8423477,4.6175079 7.8010708,4.7416456 7.6132783,4.7410458 H 6.6767416 C 6.4989829,4.7342276 6.457423,4.6671795 6.4469974,4.5000825 V 3.4703804 c 0,-0.05682 0.018172,-0.1115495 0.056095,-0.1575531 0.037946,-0.046076 0.1008806,-0.082915 0.1736492,-0.082922 z m 0.1312128,0.3609567 v 0.7863007 c 0.2128167,0 0.4681057,0.00342 0.6663069,0.00342 0.0061,-0.087927 0.00781,-0.2081673 0.00781,-0.3029112 L 7.0620875,3.5908616 Z" sodipodi:nodetypes="cccssscsssccccccccccccccscccccccc"/><path style="color:rgb(0,0,0);font-style:normal;font-variant:normal;font-weight:normal;font-stretch:normal;font-size:medium;line-height:normal;font-family:sans-serif;font-variant-ligatures:normal;font-variant-position:normal;font-variant-caps:normal;font-variant-numeric:normal;font-variant-alternates:normal;font-variant-east-asian:normal;font-feature-settings:normal;font-variation-settings:normal;text-indent:0;text-align:start;text-decoration:none;text-decoration-line:none;text-decoration-style:solid;text-decoration-color:rgb(0,0,0);letter-spacing:normal;word-spacing:normal;text-transform:none;writing-mode:lr-tb;direction:ltr;text-orientation:mixed;dominant-baseline:auto;baseline-shift:baseline;text-anchor:start;white-space:normal;shape-padding:0;shape-margin:0;inline-size:0;clip-rule:nonzero;display:inline;overflow:visible;visibility:visible;isolation:auto;mix-blend-mode:normal;color-interpolation:sRGB;color-interpolation-filters:linearRGB;solid-color:rgb(0,0,0);solid-opacity:1;vector-effect:none;fill:rgb(0,0,0);fill-opacity:1;fill-rule:nonzero;stroke:none;stroke-width:0.529167;stroke-linecap:round;stroke-linejoin:round;stroke-miterlimit:4;stroke-dasharray:none;stroke-dashoffset:0;stroke-opacity:1;color-rendering:auto;image-rendering:auto;shape-rendering:auto;text-rendering:auto;enable-background:accumulate;stop-color:rgb(0,0,0)" d="m 2.6122157,5.2819984 c -0.2649734,0 -0.482308,0.2154775 -0.482308,0.4803231 0,0.2648458 0.2173346,0.482308 0.482308,0.482308 0.2649735,0 0.4823081,-0.2174622 0.4823081,-0.482308 0,-0.2648456 -0.2173346,-0.4803231 -0.4823081,-0.4803231 z" id="path70"/><path style="color:rgb(0,0,0);font-style:normal;font-variant:normal;font-weight:normal;font-stretch:normal;font-size:medium;line-height:normal;font-family:sans-serif;font-variant-ligatures:normal;font-variant-position:normal;font-variant-caps:normal;font-variant-numeric:normal;font-variant-alternates:normal;font-variant-east-asian:normal;font-feature-settings:normal;font-variation-settings:normal;text-indent:0;text-align:start;text-decoration:none;text-decoration-line:none;text-decoration-style:solid;text-decoration-color:rgb(0,0,0);letter-spacing:normal;word-spacing:normal;text-transform:none;writing-mode:lr-tb;direction:ltr;text-orientation:mixed;dominant-baseline:auto;baseline-shift:baseline;text-anchor:start;white-space:normal;shape-padding:0;shape-margin:0;inline-size:0;clip-rule:nonzero;display:inline;overflow:visible;visibility:visible;isolation:auto;mix-blend-mode:normal;color-interpolation:sRGB;color-interpolation-filters:linearRGB;solid-color:rgb(0,0,0);solid-opacity:1;vector-effect:none;fill:rgb(0,0,0);fill-opacity:1;fill-rule:nonzero;stroke:none;stroke-width:0.529167;stroke-linecap:round;stroke-linejoin:round;stroke-miterlimit:4;stroke-dasharray:none;stroke-dashoffset:0;stroke-opacity:1;color-rendering:auto;image-rendering:auto;shape-rendering:auto;text-rendering:auto;enable-background:accumulate;stop-color:rgb(0,0,0)" d="m 6.9887538,5.2819984 c -0.2649734,0 -0.482308,0.2154775 -0.482308,0.4803231 0,0.2648458 0.2173346,0.482308 0.482308,0.482308 0.2649735,0 0.4823081,-0.2174622 0.4823081,-0.482308 0,-0.2648456 -0.2173346,-0.4803231 -0.4823081,-0.4803231 z" id="path56"/></g></svg>
