<svg id="Layer_1" enable-background="new 0 0 1540 1540" height="512" viewBox="0 0 1540 1540" width="512" xmlns="http://www.w3.org/2000/svg"><g><path d="m721.9 748.9c-.8-.1-1.6-.2-2.5-.2s-1.7.1-2.5.2c-10.4 1.2-18.4 10.1-18.4 20.7 0 11.5 9.4 20.9 20.9 20.9s20.9-9.4 20.9-20.9c0-10.6-8-19.5-18.4-20.7z"/><path d="m498.9 5h441.4v251.8h-441.4z"/><path d="m1032.4 752.9h38.8c-4-84.4-37.8-161.2-91.2-219.9l-27.3 27.3c-3.3 3.3-7.6 4.9-11.9 4.9s-8.6-1.6-11.9-4.9c-6.6-6.6-6.6-17.2 0-23.8l27.3-27.3c-58.7-53.4-135.4-87.3-219.9-91.2v38.8c0 9.3-7.5 16.8-16.8 16.8s-16.8-7.5-16.8-16.8v-38.8c-84.4 4-161.2 37.8-219.9 91.2l27.3 27.3c6.6 6.6 6.6 17.2 0 23.8-3.3 3.3-7.6 4.9-11.9 4.9s-8.6-1.6-11.9-4.9l-27.3-27.3c-53.4 58.7-87.3 135.4-91.2 219.9h38.8c9.3 0 16.8 7.5 16.8 16.8s-7.5 16.8-16.8 16.8h-38.8c4 84.4 37.8 161.2 91.2 219.9l27.3-27.3c6.6-6.6 17.2-6.6 23.8 0s6.6 17.2 0 23.8l-27.3 27.3c58.7 53.4 135.4 87.2 219.9 91.2v-38.8c0-9.3 7.5-16.8 16.8-16.8s16.8 7.5 16.8 16.8v38.8c84.4-4 161.2-37.8 219.9-91.2l-27.3-27.3c-6.6-6.6-6.6-17.2 0-23.8s17.2-6.6 23.8 0l27.3 27.3c53.4-58.7 87.3-135.4 91.2-219.9h-38.8c-9.3 0-16.8-7.5-16.8-16.8-.1-9.3 7.5-16.8 16.8-16.8zm-163.6 166.2c-3.3 3.3-7.6 4.9-11.9 4.9s-8.6-1.6-11.9-4.9l-100.8-100.8c-7.4 3.8-15.9 6-24.8 6-30.1 0-54.5-24.5-54.5-54.5 0-24.2 15.9-44.8 37.7-51.9v-128.4c0-9.3 7.5-16.8 16.8-16.8s16.8 7.5 16.8 16.8v128.3c21.9 7.1 37.7 27.7 37.7 51.9 0 8.9-2.2 17.3-6 24.8l100.8 100.8c6.7 6.6 6.7 17.2.1 23.8z"/><path d="m1024.1 289.7v-101.1h-50.1v85c0 9-7.1 16.4-16.1 16.8-.3 0-.6 0-.9 0h-475-.3c-9.3 0-16.8-7.5-16.8-16.8v-85h-50v101.1c0 51.6-19.2 100.1-54.2 136.5-88.9 92.8-137.9 214.8-137.9 343.4s49 250.6 137.9 343.4c34.9 36.4 54.2 84.9 54.2 136.5v101.1h50v-84.1c0-5.9 3.1-11.1 7.7-14.1.1-.1.3-.2.4-.3 2.6-1.7 5.7-2.6 9-2.6h475c6.2 0 11.6 3.3 14.5 8.3l.3.6c1.3 2.4 2.1 5.2 2.1 8.1v84.1h50.1v-101.1c0-51.6 19.2-100.1 54.1-136.5 74.3-77.6 120.7-175.6 134-280.8 0-.3.1-.6.1-.8 2.5-20.4 3.8-41 3.8-61.8 0-128.6-49-250.6-137.9-343.4-34.8-36.4-54-84.9-54-136.5zm50.8 630.1c-19.4 45.9-47.2 87.2-82.7 122.6-35.4 35.4-76.7 63.2-122.6 82.7-47.6 20.1-98.1 30.3-150.2 30.3s-102.6-10.2-150.2-30.3c-45.9-19.4-87.2-47.2-122.6-82.7-35.4-35.4-63.2-76.7-82.7-122.6-20.1-47.6-30.3-98.1-30.3-150.2s10.2-102.6 30.3-150.2c19.4-45.9 47.2-87.2 82.7-122.6 35.4-35.4 76.7-63.2 122.6-82.7 47.6-20.1 98.1-30.3 150.2-30.3s102.6 10.2 150.2 30.3c45.9 19.4 87.2 47.2 122.6 82.7 35.4 35.4 63.2 76.7 82.7 122.6 20.1 47.6 30.3 98.1 30.3 150.2s-10.2 102.6-30.3 150.2z"/><path d="m498.9 1283.5h441.4v251.5h-441.4z"/><path d="m1243.6 688.8c1.8 11.5 3.1 23.1 4.1 34.7 1.3 15.3 2 30.7 2 46.1 0 15.5-.7 30.9-2 46.1-1 11.7-2.4 23.2-4.1 34.7 18.8-1.7 36.3-9.9 49.8-23.4 15.3-15.3 23.8-35.7 23.8-57.4 0-42.2-32.4-77-73.6-80.8z"/></g></svg>